<?xml version="1.0" encoding="UTF-8"?>
<svg id="Capa_2" data-name="Capa 2" xmlns="http://www.w3.org/2000/svg" viewBox="0 0 475.05 118.92">
  <g id="Capa_1-2" data-name="Capa 1">
    <g>
      <path d="M0,81.83c.36-.02,.74,0,1.09-.08,12.24-2.89,24.48-5.8,36.72-8.7,.45-.11,.92-.16,1.46-.26,.12,.32,.25,.59,.32,.88,.88,3.44,2.54,6.47,4.8,9.17,1.52,1.82,3.37,3.18,5.68,3.84,1.59,.46,3.2,.64,4.85,.38,.73-.12,1.46-.22,2.17-.4,3.56-.89,5.54-3.26,6.24-6.79,.25-1.25,.31-2.51,.31-3.78,0-23.54,0-47.08,0-70.62,0-.68,0-1.36,0-2.12,.37-.08,.66-.17,.96-.19,.37-.03,.74-.01,1.11-.01,12.14,0,24.28,0,36.41,0,.62,0,1.26-.09,1.93,.17,.04,.31,.09,.61,.1,.92,.02,.47,0,.95,0,1.42,0,23.7,0,47.39,0,71.09,0,4.89-.65,9.69-2.34,14.29-3.67,10-10.41,17.22-20.01,21.79-3.78,1.8-7.76,2.99-11.85,3.8-6.18,1.23-12.43,1.69-18.72,1.53-6.99-.18-13.86-1.15-20.47-3.54-10.47-3.77-18.56-10.46-24.41-19.9-2.17-3.51-3.94-7.22-5.39-11.07-.15-.39-.27-.8-.47-1.17-.08-.16-.32-.24-.49-.35,0-.11,0-.21,0-.32Z"/>
      <path d="M236.37,115.32c-.23,.1-.37,.21-.51,.21-13.72,0-27.43,0-41.24,0-.17-.47-.36-.89-.48-1.33-1.06-3.75-2.11-7.51-3.16-11.26-.07-.25-.16-.49-.2-.63-.14-.11-.18-.15-.22-.18-.05-.02-.1-.04-.15-.04-9.71-.02-19.42-.03-29.12-.05-.21,0-.41,.04-.69,.07-.12,.34-.27,.67-.36,1.01-.87,3.64-1.72,7.28-2.58,10.92-.11,.46-.26,.9-.39,1.32-1.47,.27-27.03,.4-34.85,.18-.3,0-.6-.08-.83-.11-.09-.13-.14-.17-.15-.22,0-.05,.01-.1,.03-.15,11.35-37.08,22.71-74.17,34.07-111.25,.05-.15,.13-.28,.24-.51,.26-.04,.56-.11,.86-.14,.31-.03,.63,0,.95,0,14.19,0,28.39,0,42.58,0,.58,0,1.15,.02,1.66,.03,.59,.53,.62,1.21,.8,1.79,3.35,10.88,6.67,21.76,10.01,32.65,7.78,25.39,15.56,50.79,23.33,76.18,.15,.49,.27,.99,.41,1.5Zm-62.03-74.03c-2.35,10.67-4.63,21.01-6.9,31.35-.04,.19-.02,.39-.04,.64,.26,.05,.46,.13,.66,.13,4.64,0,9.28,0,13.93,0,.23,0,.46-.13,.67-.19-.41-2.42-7.68-30.5-8.32-31.92Z"/>
      <path d="M371.5,90.48c.23-.15,.43-.31,.66-.41,6.73-3.15,28.8-12.61,30.27-12.96,.24,.48,.5,.99,.76,1.5,1.76,3.48,4.26,6.26,7.76,8.07,2.32,1.2,4.79,1.89,7.39,2.14,1.31,.12,2.63,.24,3.94,.25,1.53,.01,3.05-.19,4.53-.6,3.54-1,4.57-3.6,3.93-6.5-.42-1.86-1.45-3.24-2.96-4.33-1.17-.84-2.49-1.36-3.84-1.82-5.28-1.79-10.57-3.58-15.85-5.39-4.79-1.64-9.45-3.6-13.87-6.09-3.18-1.79-6.18-3.84-8.87-6.33-2.77-2.57-5.07-5.49-6.65-8.96-1.33-2.93-2-6-2.03-9.2-.05-4.5,.42-8.95,1.73-13.28,2.1-6.92,6.12-12.43,12.09-16.51,4.62-3.15,9.69-5.3,15.08-6.73,3.62-.97,7.29-1.61,11.03-1.98,3.94-.39,7.89-.65,11.85-.53,6.41,.19,12.68,1.21,18.69,3.55,7.64,2.98,13.99,7.73,19.22,14.01,1.72,2.07,3.29,4.26,4.71,6.55,.25,.4,.46,.81,.71,1.25-.19,.11-.31,.21-.44,.26-10.82,3.49-21.64,6.97-32.47,10.46-.19,.06-.4,.07-.64,.11-.38-.46-.75-.91-1.12-1.34-2.01-2.36-4.46-4.02-7.53-4.64-2.25-.46-4.51-.47-6.73,.14-3.84,1.06-4.24,5.15-2.49,7.46,.65,.86,1.46,1.52,2.36,2.08,1.3,.82,2.7,1.42,4.16,1.9,5.99,2,11.99,3.99,17.97,6,5.05,1.7,9.95,3.76,14.54,6.5,3.69,2.21,7.06,4.8,9.85,8.1,3.14,3.73,5.15,7.98,5.65,12.83,.24,2.3,.18,4.64,.05,6.95-.22,3.75-.9,7.42-2.13,10.99-2.2,6.38-6.03,11.54-11.54,15.46-4.79,3.4-10.08,5.68-15.74,7.16-4.03,1.06-8.14,1.66-12.3,2.01-3.74,.32-7.49,.35-11.23,.21-8.97-.35-17.69-1.92-25.94-5.62-10.51-4.71-18.47-12.22-24.27-22.11-.1-.18-.18-.38-.29-.62Z"/>
      <path d="M358.85,81.99c-.11,.49-.17,.9-.28,1.3-1.9,7.19-5.57,13.39-10.54,18.87-7.04,7.75-15.67,12.67-25.9,14.84-4.19,.89-8.41,1.39-12.68,1.64-3.65,.21-7.29,.2-10.91-.13-9.91-.9-19.03-4.02-27.13-9.9-10.42-7.55-17.08-17.64-20.25-30.07-1.02-3.99-1.64-8.05-2-12.16-.36-4.11-.4-8.23-.19-12.34,.41-8.12,1.97-16,5.43-23.43,3.08-6.61,7.48-12.2,13.09-16.86,5.44-4.52,11.37-8.18,18.05-10.6,3.73-1.35,7.55-2.28,11.49-2.76,3.1-.38,6.2-.46,9.32-.37,2.42,.07,4.85,.13,7.26,.42,11.05,1.34,21.23,4.87,30.05,11.83,7.73,6.11,12.62,14.06,15.06,23.56,.06,.25,.06,.52,.1,.85-.4,.15-.78,.33-1.18,.42-9.48,2.24-18.96,4.48-28.43,6.72-2.46,.58-4.91,1.18-7.37,1.76-.55,.13-1.12,.22-1.76,.34-.19-.67-.36-1.27-.53-1.87-.55-1.93-1.24-3.81-2.23-5.56-.7-1.25-1.53-2.4-2.56-3.41-2.17-2.12-4.77-3.24-7.81-3.33-1.21-.03-2.41-.02-3.62,.24-2.81,.62-5.02,2.11-6.76,4.36-1.57,2.04-2.55,4.36-3.28,6.8-.9,3.05-1.36,6.17-1.62,9.33-.38,4.59-.38,9.17,0,13.76,.32,3.74,.89,7.43,2.18,10.98,.64,1.74,1.44,3.4,2.55,4.89,2.33,3.12,5.41,4.78,9.32,4.83,1.48,.02,2.95-.05,4.38-.5,2.73-.85,4.85-2.51,6.45-4.84,1.42-2.07,2.31-4.37,2.96-6.78,.18-.65,.35-1.31,.5-1.89,.15-.07,.2-.1,.25-.11,.05-.01,.1-.03,.15-.02,.31,.06,.62,.11,.93,.18,12.19,2.89,24.38,5.78,36.57,8.68,.25,.06,.49,.16,.94,.31Z"/>
    </g>
  </g>
</svg>