<?xml version="1.0" encoding="utf-8"?>
<!-- Generator: Adobe Illustrator 26.5.0, SVG Export Plug-In . SVG Version: 6.00 Build 0)  -->
<svg version="1.1" id="Capa_1" xmlns="http://www.w3.org/2000/svg" xmlns:xlink="http://www.w3.org/1999/xlink" x="0px" y="0px"
	 viewBox="0 0 600 750" style="enable-background:new 0 0 600 750;" xml:space="preserve">
<style type="text/css">
	.st0{fill:#020203;}
</style>
<g>
	<path class="st0" d="M452.1,182.7l16.3,60.4h-30.3L452.1,182.7L452.1,182.7z M509.3,512.7l-34.4-10.9c-11-3.4-16.5-7.9-16.5-13.7
		c0-6.5,4.9-9.8,14.6-9.8c9.7,0,17.6,4.1,23.7,12.3l67.7-20.7c-20.2-32.4-50.5-48.6-90.9-48.6c-12.7,0-24.3,1-34.8,3.1
		c7.6-9.1,12.6-19.5,14.9-31l-49.3-13.5c-2.5,14-8.4,21-17.8,21c-12.5-0.1-18.7-13.7-18.7-40.8c0-27,6.2-40.6,18.7-40.8
		c9.1,0,15.1,7,17.8,21l49.3-13.5c-3.3-16.1-10.6-28.8-22-38.2h50.1l7.5,25.3h82.4l-67.7-209.8h-91l-56.6,175.3
		c-2.6,1.3-5.1,2.8-7.6,4.5V104.1H223.7v345c0,32.9-10.8,49.3-32.4,49.3c-14.1,0-25.7-12.1-34.7-36.3c-3.9-9.6-6.6-20.1-8.1-31.5
		L28.2,473.7C54.3,586.9,109.3,647.3,192,647.3c52.3,0,90.9-22,117.2-58.3c26.3-36.3,39.4-82.9,39.4-140v-12
		c10.5,6.9,22.5,10.4,36.1,10.4c1.8,0,3.6-0.1,5.4-0.1c-11.7,11.7-17.6,27.6-17.6,47.7c0,26.4,22.4,46.6,67.1,60.6l28.5,9.2
		c9.2,2.8,13.8,7.7,13.8,14.8c0,7.1-6.1,10.6-18.2,10.6c-19.6,0-32.8-7.7-39.4-23.2l-62.4,25.7c21.8,36.3,58.3,54.5,109.7,54.5
		c30.2,0,54.3-6.2,72.2-18.7c17.9-12.5,26.9-31.6,26.9-57.5C570.8,545.2,550.3,525.7,509.3,512.7L509.3,512.7z"/>
</g>
</svg>
