<?xml version="1.0" encoding="utf-8"?>
<!-- Generator: Adobe Illustrator 26.5.0, SVG Export Plug-In . SVG Version: 6.00 Build 0)  -->
<svg version="1.1" id="Capa_1" xmlns="http://www.w3.org/2000/svg" xmlns:xlink="http://www.w3.org/1999/xlink" x="0px" y="0px"
	 viewBox="0 0 900 700" style="enable-background:new 0 0 900 700;" xml:space="preserve">
<style type="text/css">
	.st0{fill:#9A061A;}
	.st1{fill:#FFFFFF;}
</style>
<rect class="st0" width="900" height="700"/>
<g>
	<path class="st1" d="M286,329c-1.2-6.6-2.8-13.2-3.5-19.9c-2.8-27.4-1.8-54.7,6-81.1c7.5-25.3,22.1-46.1,46.5-58
		c7.7-3.7,16.7-5.4,25.3-6.1c11.7-1,19.5,7.1,20,18.9c0.1,1.6,0,3.2,0,3.8c4.4-3.6,8.6-8.6,14-11c14.8-6.6,29.9,1.7,34.5,18.4
		c4.2,15,3,30.1,0,45c-5.1,24.4-13.4,47.5-31.4,65.6c-17.9,18.1-40.2,24.9-65.5,22.7c6.8-2.5,13.7-4.6,20.2-7.6
		c34.3-15.3,53.3-42.6,59.6-78.9c1.8-10.4,1-21.3,1.2-32c0-2-0.7-4.2-1.3-6.2c-2.1-6.2-5.1-7.1-9.2-2.1
		c-6.3,7.8-12.3,15.8-17.9,24.1c-4.6,6.8-8.3,14.3-12.7,21.3c-7.5,11.9-20.8,23-34.6,28.7c4-5.8,7.8-10.9,11.2-16.2
		c11.4-17.7,16.2-36.9,12.9-57.8c-1.5-9.7-6.4-11.9-13.4-5.1c-8.4,8.2-15.9,17.3-23.1,26.6c-22.9,29.8-32.2,64.8-37.2,101.2
		c-0.2,1.7-0.4,3.4-0.5,5.1C286.9,328.8,286.5,328.9,286,329z"/>
	<path class="st1" d="M586.4,322.1c4.8-5,10.5-9.7,14.7-15.6c8.7-12.1,8.4-26,6.1-40.1c-0.7-4.3-1.6-8.6-2.7-12.9
		c-4.1-16.2-21.1-22.3-34.6-12.3c-8.7,6.5-13.6,15.2-14.1,26c-0.9,20.6-10.8,35.9-27.1,47.7c-1.3,0.9-2.6,1.7-4.5,2.9
		c2.2-10,4.3-19.3,6.2-28.7c3.9-19.8,4.7-39.7,3.7-59.8c-1-20.4,1.8-40.3,9.2-59.5c7.4-19.2,20.1-25.5,40.1-20.2
		c29.1,7.8,49.1,31.7,51.6,61.8c2.7,32.3-4.8,62.8-17.3,92.3C612.4,316.5,598.9,323.6,586.4,322.1z M610,239
		c-2.1-15.3-4.9-29-10.9-41.8c-2-4.3-4.3-8.5-7.2-12.2c-6.8-8.5-14-9-22-1.6c-3,2.8-5.7,6.3-7.9,9.8c-8,12.6-8.4,25.9-2.8,39.7
		C576.6,221,594,220.2,610,239z"/>
	<path class="st1" d="M384.8,607.3c0.4,0.8,0.6,1.7,1.1,2.2c11,11.4,23.6,14.5,37.9,8.5c14.2-6,24.1-15.7,24.5-32.4
		c0.2-8.6-0.5-17.3,0.8-25.8c2.9-18.8,25.9-33.2,44.5-28.8c6.3,1.5,10.2,5.8,14,10.6c10.2,13,23.2,21.5,39.9,23.1
		c34.2,3.3,65-30.6,58.7-64.2c-0.3-1.6-0.2-4.2,0.8-5c14.3-12.5,23.7-28.1,29.9-45.8c0.1-0.3,0.4-0.5,1.3-1.7
		c0,10.2,0.6,19.6-0.1,28.9c-1.5,19.6-3.8,39.2-11,57.8c-12,31-45.7,54.2-78.8,54.2c-13.6,0-25-5.2-34.4-14.8
		c-7.7-7.9-17-10.8-27.8-9.8c-11.6,1-19.2,7.8-21.1,19.2c-0.8,5-1.2,10.2-2.4,15.1c-4.2,17-13.9,30.2-28.9,39.3
		c-14.4,8.6-28.8,6-39.5-7C388.6,624.2,385.6,616.5,384.8,607.3z"/>
	<path class="st1" d="M381.7,389.4c-2.2-3.9-4.4-7.8-6.7-11.7c-4.5-7.6-10.8-11.8-20-10.8c-6.5,0.8-11.2,4.3-12.7,10.7
		c-3,12.2-1.4,24.5,0.6,36.7c1.2,7.2,3.3,14.4,5.7,21.3c6.5,19,20.5,15.8,31.4,7c6.6-5.4,8.4-13.1,8.3-21.4c0-1.3-0.2-2.6-0.2-3.9
		c0.5-0.1,1-0.2,1.5-0.3c1.7,7.6,4.1,15.1,4.9,22.8c1,9.9,1.3,20,0.8,29.9c-0.4,9.2-5.8,16.1-13.3,21.1c-6.7,4.5-14.1,4.7-19.8-1
		c-7.4-7.4-14.4-15.4-20.5-24c-15.4-21.6-29.6-44.1-38.9-69.1c-4.4-11.7-5.5-24-4.6-36.3c0.9-12.4,8.1-20.7,19.6-24.2
		c20.3-6.3,39-2.4,54.9,11.9c9.4,8.5,13.2,19.7,12.9,32.2c-0.1,3-1.2,5.9-1.8,8.9C383.1,389.2,382.4,389.3,381.7,389.4z"/>
	<path class="st1" d="M436.4,192.5c1.8,0.4,3.5,0.8,5.2,1.4c14.7,5.2,28.8,4.8,42.5-3.8c13.7-8.6,27.8-16.5,41.5-25.1
		c4.3-2.7,6.8-1.1,9.3,2.1c2.7,3.3,2.7,6.8-0.7,9.3c-5.4,3.9-11,7.5-16.9,10.7c-5.4,2.9-11.1,5.3-16.7,7.7
		c-7.8,3.4-14.2,8.3-19.1,15.3c-5.6,7.9-5.4,16.1,0.4,23.9c6.6,8.9,15.7,13.3,26.6,14.1c1.9,0.1,3.9,0.1,5.8,0.4
		c1.5,0.2,2.9,0.8,4.3,1.3c-0.6,1.3-1.3,2.6-1.8,4c-0.5,1.3-1,2.7-1.2,4.1c-0.1,0.6,0.4,1.4,0.4,2c0,3.4-0.2,6.8-0.2,10.1
		c-2.8-1.4-6-2.4-8.4-4.3c-13.6-10.5-27.6-10.4-38.4,0.4c-7.5,7.6-8.7,20.9-2.7,29.7c3.2,4.7,7.8,6.6,13.2,6
		c8.5-0.9,17-2.4,25.6-3.2c3.1-0.3,8.1-0.7,9.2,0.9c1.5,2.3,0.7,6.6,0,9.9c-0.6,2.9-1.5,5.9-6.1,5.6c-35.4-2.4-69.6,4.1-103.3,14.3
		c-4.8,1.4-9.7,2.5-15.1,2.7c14.8-10.2,29.7-19.8,39.5-35.3c9.8-15.6,14.6-32.6,15.7-50.8c1.1-18.2-2.6-35.6-9.7-52.4
		C435.6,193.3,436,192.9,436.4,192.5z"/>
	<path class="st1" d="M469.3,186.7c-23.9-4.9-45.8-13-58.7-35.3c-16.3-28.2-6-64.1,22.6-82.3c18.1-11.5,38-13.3,58.4-11.1
		c11.1,1.2,22.2,3.9,32.9,6.9c4.8,1.4,9.1,5,13.1,8.3c6.6,5.4,12.6,11.7,19.2,17.1c5.3,4.3,6,9.4,0.9,14.2c-6.5,6.2-14.9,8-23.1,6.5
		c-12.3-2.3-24.5-5.8-36.5-9.7c-3.9-1.3-8-4.6-10-8.1c-5.1-8.7-12.5-10.3-21.6-9.5c-22,1.9-43.3,21.6-46.4,43.4
		c-1.5,10.3,1.8,19.2,8.3,26.9c10.9,12.9,23.2,24,38.6,31.3C467.9,185.6,468.6,186.2,469.3,186.7z M530.5,89.8
		c-1.4-7.9-5.7-11.2-12.1-9.8c-4,0.9-3.3,3.3-2.5,5.9C518.1,92.7,521.7,93.6,530.5,89.8z"/>
	<path class="st1" d="M521.3,496.9c-9.2-15.5-22.1-19.5-39.7-12.3c1.5-2.4,1.7-3.1,2.2-3.4c9.5-5.9,11.9-14.8,10.4-25.1
		c-2-13.5-0.6-26.3,3.9-39.4c7.3-21.3,4.3-43-0.9-64.5c-1.2-5.1-2.3-10.3-2.7-15.5c-0.4-6.7,2.9-9.5,9.5-7.9
		c9.8,2.3,17.9-0.1,25.4-6.5c16.2-13.9,38-8.4,46,11.7c5.5,13.8,2.3,27.1-4.6,39.5c-9.7,17.4-24.1,27.2-44.8,25.1
		c-3.9-0.4-5.6,1.1-7.1,4.3c-7.6,16.1-10.4,32.6-5.6,50.2c3.3,12.2,6,24.6,8.9,36.9c0.4,1.8,0.4,3.6,0.6,5.4
		C522.3,495.9,521.8,496.4,521.3,496.9z M513.8,352.1c10.1,9.8,9.6,19.8,3.9,30.2c-0.2,0.5-0.4,1-0.6,1.5c-1.5,4.5-0.1,6.8,4.5,7.3
		c1.9,0.2,3.9,0.1,5.8-0.2c15.4-2.8,27.1-11.2,34.7-24.9c6.2-11.2,4.4-23.7-3.9-32.1c-6.7-6.8-11.5-6.4-16.1,2
		C536.3,346.5,527.9,352.5,513.8,352.1z"/>
	<path class="st1" d="M417,430.9c0.3,14.3-2.6,28-6.3,41.6c-1.3,4.7-2.3,9.6-2.7,14.4c-0.4,6,2.6,8.7,8.4,9c7.6,0.3,14-2.8,16.3-10
		c3.3-10.7,5.9-21.7,7.7-32.7c4.2-26.7,7.9-53.5,11.4-80.4c1.5-11.7,1.7-23.5,2.5-35.2c0.2-2.8,0.6-5.6,1.3-8.3
		c0.4-1.3,1.7-3.1,2.8-3.3c1.1-0.2,2.9,1.1,3.7,2.2c4.7,6.4,5.6,13.9,6,21.5c0.9,18.8-1.7,37.2-5.3,55.5
		c-3.9,19.6-7.6,39.3-12.6,58.7c-4.7,18.3-13.5,35-23.6,51c-1.1,1.8-3.7,3.5-5.8,3.8c-13.4,1.7-24.2-2.8-31.7-14.3
		c-0.9-1.4-1-4.6-0.1-6c16.1-24.1,17.6-51.3,14.9-78.7c-2.3-24.1-6.9-48-10.4-72c-0.2-1-0.5-2.1-0.4-3.1c0.2-1.8,0.7-3.5,1.1-5.2
		c2.4,0.5,5.8,0.3,7.1,1.8c2.4,2.8,4.6,6.5,5.2,10.2c3.2,18.3,6,36.7,8.6,55.2C416.3,414.7,416.4,422.8,417,430.9z"/>
	<path class="st1" d="M567.5,506c-6.2-0.4-11.6-2.5-14.4-7.3c-7.3-12.6-15.4-25.1-20.2-38.6c-7-19.6,1.5-37,20.6-48.6
		c8.2-5,17-9.4,24.2-15.6c10.8-9.2,16.2-21.5,15-36.1c-0.7-8.5,0.1-16.5,7-22.8c5.8-5.2,13.1-6,19.2-1.2c7.5,5.9,11.2,13.7,9.1,23.2
		c-2.2,9.8-6.1,19.2-7.5,29c-1.8,12.8-1.7,25.9-2.5,38.9c-0.5,7-0.4,14.2-2.1,20.9c-1.7,6.7-4.9,13.1-8.4,19.1
		c-6.6,11.2-13.9,21.9-20.9,32.9c-0.8,1.3-1.6,2.6-3.4,3.6c3.6-10.1,7.3-20.3,10.9-30.4c2.9-8.3,5.9-16.6,8.5-24.9
		c0.9-2.7,0.8-5.7,1.3-9.2c-5.5,1.7-9.9,3.3-14.4,4.4c-8,2-15.7,0.6-23.1-2.8c-12.7-5.8-22.5,0.4-21.8,14.7c0.3,7,2.5,14.3,5.6,20.7
		c4.6,9.6,10.7,18.5,16.2,27.7C566.6,504.2,566.9,504.9,567.5,506z M605.3,432.1c1.9-23,8-45.8,1.5-69.7c-5,10.3-9.8,19.9-14.2,29.6
		c-8.1,17.6-21.6,29.1-39.8,35.4c-1.5,0.5-3,1.3-4.4,1.9c10,2.2,19.4,0.8,28.4-3c5.2-2.2,9.8-2.1,13.9,2.3
		C594.6,432.9,599.8,433.4,605.3,432.1z"/>
	<path class="st1" d="M571.4,520.1c-12.8,9.5-27.1,11.8-41.7,6.7c-10.4-3.6-20.2-8.9-29.9-14.2c-15.3-8.5-30.5-11.2-46.4-2
		c-3.8,2.2-7.9,4.6-11.9,0.3c-3.1-3.3-3.1-8.4,0.7-13c7.5-9.2,14.7-18.4,17.2-30.4c1.2-5.8,3.4-11.5,4.2-17.4
		c3.4-24.9,7.1-49.8,9.4-74.7c1.5-15.5-2.4-30.8-6.3-45.8c-0.5-2.1-0.6-4.4-0.9-6.6c0.5-0.3,1-0.7,1.5-1c2.5,2.2,5.3,4.2,7.3,6.7
		c8.4,10.7,14.8,22.6,15.2,36.4c0.9,28.2-0.9,56.3-7.5,83.8c-1.6,6.7-5.3,12.9-8.3,19.3c-2.1,4.5-4.7,8.7-6.6,13.2
		c-2.5,5.8-0.9,8.2,5.2,7.1c10.7-1.9,19,2.8,27.4,8.3c10.9,7.1,21.8,14.1,33.2,20.5c11,6.2,23,7,35.3,3.6
		C569.3,520.5,570.4,520.3,571.4,520.1z"/>
	<path class="st1" d="M278.2,329.4c0.2,15.6,3.4,28.6,12.2,40.2c-11.8,2-22.1,6-29.9,14.4c-4,4.3-7.9,9.1-10.6,14.3
		c-7.4,14-4.9,26,7.3,36.2c15.3,12.9,33.5,16.1,52.8,15.3c1.9-0.1,3.8-0.3,6,0.7c-5.6,1.2-11.1,2.7-16.8,3.6c-14,2.2-28,2-41.7-2.3
		c-24.3-7.5-35.1-26-28.7-50.6c6.8-26.5,21.8-48.1,41.6-66.6C272.2,333,274.6,331.9,278.2,329.4z"/>
	<path class="st1" d="M627.4,408c9.2-14.7,17.9-29.3,23.6-45.6c4.6-13.3,6.9-26.9,4.3-40.9c-2-10.5-7.2-19.1-15.9-25.2
		c-3-2.1-3.3-3.9-2.5-7.4c2.5-11.1,4.4-22.4,6.6-33.6c0.4-2.2,0.8-4.4,1.5-8.5c3.3,3.4,5.9,5.5,7.8,8.2
		c10.3,14.5,16.3,30.8,18.9,48.2c6,41.5-7.8,75.4-40.1,101.9C630.2,406.1,628.8,407,627.4,408z"/>
</g>
</svg>
