<?xml version="1.0" encoding="utf-8"?>
<!-- Generator: Adobe Illustrator 26.5.0, SVG Export Plug-In . SVG Version: 6.00 Build 0)  -->
<svg version="1.1" id="Capa_1" xmlns="http://www.w3.org/2000/svg" xmlns:xlink="http://www.w3.org/1999/xlink" x="0px" y="0px"
	 viewBox="0 0 450 380" style="enable-background:new 0 0 450 380;" xml:space="preserve">
<style type="text/css">
	.st0{fill:#0D0D17;}
	.st1{fill:#FFFFFF;}
	.st2{fill:#F83A27;}
	.st3{fill:#060202;}
	.st4{fill:#FBFBFA;}
	.st5{fill:#474848;}
	.st6{fill:#EFF2EF;}
	.st7{fill:#2C2D2B;}
	.st8{fill:#C2C3C3;}
	.st9{fill:#1C0808;}
	.st10{fill:#F74331;}
	.st11{fill:#727273;}
	.st12{fill:#898786;}
</style>
<rect class="st0" width="450" height="380"/>
<g>
	<g>
		<circle class="st1" cx="225" cy="190" r="123.3"/>
		<path class="st2" d="M225,315.7c-69.3,0-125.7-56.4-125.7-125.7c0-69.3,56.4-125.7,125.7-125.7c69.3,0,125.7,56.4,125.7,125.7
			C350.7,259.3,294.3,315.7,225,315.7z M225,69.1c-66.7,0-120.9,54.2-120.9,120.9c0,66.7,54.2,120.9,120.9,120.9
			c66.7,0,120.9-54.2,120.9-120.9C345.9,123.3,291.7,69.1,225,69.1z"/>
	</g>
	<g>
		<path class="st3" d="M213.5,92.8H238c0.7,0.5,2.3,0.3,3.3,1c1.1,0.8,1.4,1.7,2.1,2.8c0.1,0.2,1.1-0.1,1.8,0.3
			c0.1,0.4,0,1.1,0.3,1.2c1,0.3,1.2,1.1,1.7,2c0.6,1.1,1.3,2.2,1.9,3.3c0.8,2.6,2.4,7.1,2.8,9.7c0.6,4,2.4,7.9,0.5,11.4
			c0.4,0.7,0.7,1.4,1.2,2c-0.6,1.3-1.3,2.6-1.9,3.9c0.9,2.1,1,3.8,0.2,6c-0.2,0.5-0.5,1.1-0.7,1.6c0.5,1.5,0.1,4.3-0.1,5.9
			c-0.2,2.7-1.6,6.6-3.5,8.6c-0.1,1-0.1,2.8-0.8,3.4c-1.6,1.4-1.6,4.1-2.2,6.1c-0.4,1.3-1,2.9-1.2,4.2l0.1,0.1
			c0.7-0.3,2.2-0.4,2.7,0.1c0.1,0.7-0.4,0.7-0.3,0.9c0.3,1.3,2.3,4.1,3.1,4.9c1.4-2.9,3.5-10.2,7.4-8.3c0.7,0.4,1.5,0.9,1.7,1.9
			c-0.1,3.6-0.6,7.6-0.6,11.2c3-0.3,3.7-0.1,5.8,2c1,0.2,1.9,0.3,2.9,0.4c-3-4.1-4.1-6.5-6.2-11.2c-1.3-2.8-2.5-5.1-3.6-8.1
			c-2.7-7.4-2.9-14.8-1.9-22.5c0.6-4.2,3.1-7.6,6.5-10.1c2.5-1.8,5.6-3,8.7-2.4c5,1,7.5,5,10.2,8.7c6.7,9.2,10.5,18.6,8.4,30
			c-0.2,1.3-0.6,2.7-1,4c-0.2,0.6-1,2.4-1,2.8c0,1.6,1.2,3.5,1.5,5.2c0.4,2.2,0.4,4.1,0.6,6.2c0.2,2.2,0.6,4.3,0.7,6.5
			c0.4-0.3,0.9-0.5,1.1-1c-0.5-2.5-0.3-3.4-0.4-5.8c-0.1-1.7-0.6-2.8-0.6-4.8l0.3-0.9c0-0.5-0.1-1.3-0.2-1.8l-0.3-0.6
			c-0.3-2-0.8-4.4,0.5-6c3.1-3.6,5.1-1.3,5,2.5c0,1.3-0.1,2.6,0,3.9c0.5,2.1,1.4,4.4,1.4,6.5c0,3.6-0.4,7-0.4,10.6
			c1.3-0.5,2.4-1.3,3.5-1.7c0.3-0.7,1-2.4,1-3.1c0.4-3.1-0.1-3.4,1.3-6.3l0.4-0.6c0.4-0.6,0.7-1,1.4-1.2c0.5-0.2,1.1-0.2,1.6,0
			c0.5,0.6,0.3,6.8,0.2,7.9c-0.1,2.1-0.8,7.1-2,8.7c-0.9,1.2-2.1,2-3,3.3c5,4,9.6,8.7,11.6,15.1c2.2,7.1-3.3,15.1-8.4,19.6
			c0.1,0.8,0.3,2.9-0.3,3.5l-0.2,0.2c0.1,0,0.6,0.5,0.6,0.5c0.4,1,1,3.2,0.8,4.2l-0.2,0.2l-0.3-0.1c-0.8-2.7-1.1-4.3-2.6-6.8
			c-1.6,1-3.2,2.1-4.9,3c-0.3,1-0.7,3.2-0.9,3.7l-0.2,0.1c-0.5-0.5,0.2-2.7,0.4-3.6c-1.2,0.5-2.8,1.3-4.1,1.6
			c-0.2,0.7-0.3,1.4-0.8,1.9l-0.2,0c-0.2-0.5-0.1-0.9-0.1-1.4c-1,0.2-2.4,0.4-3.4,0.4c-0.5,0.1-0.9,0.1-1.4,0.3l0.1,0.1
			c1.1,0.1,1.7,0.4,2.7,0.7c-2.5,0.2-4.9-0.3-7.3-0.5c-1.4-0.1-1.2,0.2-2.4,0.5c-0.7-0.6-1-2.9-1.1-3.8c-2.3-2-3.4-4.1-4.3-6.9
			c-0.5-1.6-0.5-2.4,0.2-3.9c-1.6-1.1-2.8-2.3-3.6-4c-1.2-2.4-3-4.3-3.7-7c-0.2-0.7-0.6-1.7-0.9-2.4c-1.4-3.1-2.9-6.2-4.4-9.2
			c-0.8,0.8-1.5,1.5-2.3,2.3c-0.8,5-2.8,9.3-3.8,14.2c-0.3,1.8,0,4.1-0.3,5.9c-0.3,1.6-0.9,3.1-1.2,4.7c-0.2,1.1-0.4,2.1-0.6,3.2
			c0,0-0.4,0.5-0.4,0.5c-0.2,1.1-0.5,2.5-0.7,3.6c-0.3,1.4-0.6,2.8-1,4.1c-0.7,2.2-1.5,4.3-2.5,6.3c-3.3,6.6-7.3,13-12.7,18.2
			c-1.8,1.7-3.8,3.1-5.8,4.5c-1.4,0.9-2.8,1.9-4.2,2.7c-4.1,2.3-9.1,3.7-13.8,3.5c-4.6-0.1-10.2-2.2-13.2-5.7
			c-3.3-3.9-6.7-9.6-6.4-14.9c0.4-6.2,3.5-13,7-18c1.1-1.5,3-3.5,4.4-4.7c0.2-4.9-1.2-12-1.8-16.9c-0.8-6.6-0.6-11.9-0.3-18.5
			c-2.1,3.5-0.9,6.6-2,10.3c-1.1,3.7-2.7,7.3-5.1,10.4c-1.1,1.5-2.3,2.9-3.4,4.5c0.1,0.1,0.1,0.3,0.2,0.4c2.5,5.4-0.3,9.3-2.2,14.4
			c0.3,0.5,0.9,1.2,0.9,1.8l-0.2,0.2l-0.3-0.1c-0.2-0.4-0.3-0.6-0.6-0.8c-0.3,0.4-0.7,0.7-1.1,0.8c-0.1-0.5,0.5-1.6,0.8-2.1
			c-0.4-3.6-1.3-5-0.9-9c-6.3-1.9-10.4-1.8-14.2-7.5c-1.2-1.7-2.2-2.5-3.3-4.6c-0.3,0.7-0.6,1.2-0.8,2c-0.3,1-0.3,2-0.1,3
			c0.3,1.4,1.6,3.8,2.2,5.1c1.9,3.9,3.9,7.8,6.2,11.6c0.4,0.7,0.6,0.9,0.5,1.6l-0.2,0c-2-1.7-8-14.9-9.2-18
			c-1.2-2.9,0.9-5.7,2.6-7.6c1.1-1.3-0.6-3.8-0.6-5.3c0-4-0.2-6.9-1.3-10.8c-2.2,1.9-3.6,4.3-5.4,6.6c-0.6,0.8-1.7,1.7-2.7,1.7
			c-2.6,0.1-3-3.3-4.1-4.4c-0.9,1.5-0.3,4.7-0.7,6.5c-0.5,2-1.6,3.9-1.8,5.9c-0.2,2.4,0.3,5.5,0,7.9c-0.3,1.7-1.5,3.2-1.9,4.9
			c-0.5,2-0.1,4.1-0.4,6.1c-0.2,1.5-0.9,2.6-1.6,3.8c-0.1,0.1-0.4,2-0.5,2.3c-0.3,0.3-0.2,0.3-0.5,0.4l-0.1-0.2c-0.3-2.6,1.5-4,2-6
			c0.4-2,0-5,0.8-7.4c0.4-1,1.5-3.2,1.6-3.9c0.4-2.4-0.2-5.4,0-7.9c0.2-2.4,1.4-4.2,1.9-6.5c0.5-2.9-0.2-4.3,0.8-7.1
			c-0.9-1.6-2.1-3.9-2.7-5.6c-1.3-3.8-2.1-7.9-3-11.8c-0.2-1.2-0.6-2.2-0.9-3.4c-0.6-2.5,2.8-3.7,3.9-1.4c0.4,0.8,0.6,1.5,0.8,2.4
			c1.2,4.7,2,9.5,4.2,13.9c0.8-1.7,1.5-3.4,2.3-5.2c0.4-1,0.9-3.5,1.4-4.3c0.7-0.2,1.9-0.2,2.7-0.3c-2-3.2-2.1-6.4-2.9-9.9
			c-0.7-2.7-2.2-5.4-1.7-8.2c0.3-1.4,0.7-5,2.7-4.5c0.4,0.3,0.6,0.6,0.9,1c2.5,3.3,2.8,4.5,1.8,8.6c1.2,1.3,1.4,1.9,1.6,3.7
			c0.7,0.6,1.2,1,1.8,1.6c0-6.7,0.3-13.5,0.4-20.2c0-1.5,1-4.6,2.9-4.4c0.7,0.7,3,4.8,3.1,5.9c0.1,1.3-0.4,3.3-0.5,4.6
			c-0.1,0.7,0.4,2,0.4,2.7c0.1,3.4-0.9,4.5,0.6,7.8c-0.3-4,0-5,0.9-8.8c0.4-1.5,0.4-4,0.8-5.4c0.7-2.3,1.1-3.2,0.8-5.7
			c-0.1-0.8,0-4.4,0.6-5c1.2-1,3.7,0.6,4.3,1.7c0.7,1,0.6,2.1,0.6,3.3c0,2.7-0.1,5.1-0.8,7.8c-0.2,0.7-0.1,3-0.2,3.9
			c-0.1,1.7-0.8,5,0.2,6.3l0.2,0c0.9-1.2,1.1-5,1.3-6.6c0.5-3.3,1.1-6.1,2.2-9.2c5.6,2.8,2.8,7.8,3.4,12.6c0.1,0.5,0,1.1,0,1.6
			c2.5-1.5,5.7-1.7,8.3-0.2c1.9,1.1,1.5,1.9,3.7,1.2c-0.1-2.5-0.8-17.9,0.1-19.2c0.3-0.4,0.7-0.6,1.2-0.7c0.8-0.1,1.5,0.5,1.5,1.3
			c0.2,1.9,0.1,3.9,0.2,5.8c0.1,3.4,0.2,6.9,0.4,10.3c3.3-4.1,2-4.6,1.6-9c-0.3-3.7-0.5-7.5-0.9-11.2c-0.5-4.3-1.4-9.8-0.8-14
			l0.1-2.2c0-0.9,0-1.6,0-2.6c-0.5-1.2-0.5-1.7-0.5-3.1c-1.1-1.7-1.9-6.9-1.9-8.8c0.2-0.2,0.8-0.7,0.9-0.9c0-0.2-1-2.4-0.8-3.5
			c0.2-1.4,1.3-2.5,1.5-3.9l0-0.1c0.3-1.6-0.1-3.5,0.2-5.1c0.2-0.9,1.4-2,1.7-2.7c0.4-0.9,0.6-2.1,1-3
			C209.4,97.5,210.2,94.9,213.5,92.8z"/>
		<path class="st4" d="M213.5,92.8H238c0.7,0.5,2.3,0.3,3.3,1c1.1,0.8,1.4,1.7,2.1,2.8c0.1,0.2,1.1-0.1,1.8,0.3
			c0.1,0.4,0,1.1,0.3,1.2c1,0.3,1.2,1.1,1.7,2c0.6,1.1,1.3,2.2,1.9,3.3c0.8,2.6,2.4,7.1,2.8,9.7c0.6,4,2.4,7.9,0.5,11.4
			c0.4,0.7,0.7,1.4,1.2,2c-0.6,1.3-1.3,2.6-1.9,3.9c0.9,2.1,1,3.8,0.2,6c-0.2,0.5-0.5,1.1-0.7,1.6c0.5,1.5,0.1,4.3-0.1,5.9
			c-0.2,2.7-1.6,6.6-3.5,8.6l-0.4-0.2c-0.4-0.1-0.7-0.3-1.1-0.1c-0.8,1.9-0.3,3.1-0.7,5c-0.4,1.7-0.9,3.5-1.4,5.2
			c-0.6,2.3-1.5,3.1-1,5.5c-4.7,8.5-15.6,18.2-25.7,12.5c-0.2-0.1-0.4-0.2-0.6-0.4l5-4.8c4.1-0.7,7-3.2,9.4-6.5c1-1.4,1.7-3,2.7-4.3
			c1-1.3,2.6-2.5,3.8-3.6c0.7-0.6,2.3-1.8,2.1-2.8c-0.1-0.4-0.4-0.9-0.7-1.1c-0.2-0.1-0.6-0.3-0.9-0.2c-1.4,0.4-18.3,15.2-20.1,16.9
			c-2.6-1.4-3.5-3.2-4.9-5.7c-0.2-0.4-0.7-1.4-0.8-1.7l-0.3,0.2c0.8,2.7,3.1,6.3,5.5,7.7c-1.1,1-2.2,2-3.3,3
			c-1.8-1.9-2.1-3.4-3.2-5.6c-0.6-1.2-1.4-2.2-2.3-3.3c-0.2-2.3-0.9-5.2-0.9-7.4c-0.1-7.7-2.2-16.1-1.8-23.6c-0.1,0-0.2-0.1-0.3-0.2
			l0.1-2.2c0-0.9,0-1.6,0-2.6c-0.5-1.2-0.5-1.7-0.5-3.1c-1.1-1.7-1.9-6.9-1.9-8.8c0.2-0.2,0.8-0.7,0.9-0.9c0-0.2-1-2.4-0.8-3.5
			c0.2-1.4,1.3-2.5,1.5-3.9l0-0.1c0.3-1.6-0.1-3.5,0.2-5.1c0.2-0.9,1.4-2,1.7-2.7c0.4-0.9,0.6-2.1,1-3
			C209.4,97.5,210.2,94.9,213.5,92.8z"/>
		<path class="st3" d="M213.5,92.8c2.3-1,5.5-2.1,9.5-2.4c6.8-0.6,12.2,1.2,15,2.4c1.8-0.1,2.7,0.6,3.3,1c1.1,0.8,1.4,1.7,2.1,2.8
			c0.1,0.2,1.1-0.1,1.8,0.3c0.1,0.4,0,1.1,0.3,1.2c1,0.3,1.2,1.1,1.7,2c0.6,1.1,1.3,2.2,1.9,3.3c0.8,2.6,2.4,7.1,2.8,9.7
			c0.6,4,2.4,7.9,0.5,11.4c0.4,0.7,0.7,1.4,1.2,2c-0.6,1.3-1.3,2.6-1.9,3.9c0.9,2.1,1,3.8,0.2,6c-0.2,0.5-0.5,1.1-0.7,1.6
			c0.5,1.5,0.1,4.3-0.1,5.9c-0.2-0.2-0.2-0.8-0.3-1.2c-0.2-1.2-0.3-1.9-0.7-3c0.2-0.7,0.4-1.4,0.8-2.1c-0.5-0.7-1-1.7-1.9-1.8
			c-2.1,0.6-3.5,3.7-4.6,5l-0.1,0.1l0.6,1.6c-0.3,0.6-0.6,1.4-0.9,2l-0.7-2l0.6-2.3c-0.2-0.3-0.6-0.8-0.7-1.1
			c-0.4-3.7,0-7.8,0.3-11.6c-2.1-3.6-2.7-5.7-1.7-9.5c0.1-0.4-0.5-2.7-0.4-3.7c-1.3-1.6-2.7-5.8-4.1-6.4c-0.4,0-0.7,0.4-1,0.7
			c-1,0.2-0.9-1-2.4-0.3c-0.7-0.2-0.6-0.3-1.2-0.9c-0.8,0.2-0.6,0.9-1.3,1.1c-0.6,0.2-1.4-0.2-2.1-0.1c-3,0.6-3.9,1.6-6.8,0
			c-0.5,0.7-1.2,1.8-2.1,1.9c-1.7,0.3-1.8-1.8-2-2.9c-2.1,1.4-3.2,1.1-5-0.6l-2.9,1.4c-0.9,2-2.6,3.2-2.9,5.4
			c-0.4,2.8-0.3,5.5-0.1,8.3c0.1-0.2,0.2-0.3,0.4-0.5c0.7-1,2.3-2.3,3.4-2.8c1.9-0.9,3.9,1,5.4,2.1c-0.1,0.1-0.1,0.1-0.2,0.2
			c-0.7,0.4-0.8,2.2-1.4,2.6c-1.1,0.7-2.6-1.4-3.7-1.4c-0.7,0-2,1.2-2.5,1.7c-1.8,1.9-1.6,4.5-1.5,6.9l-0.8,1.2
			c0.1,1,0.1,2.4-0.1,3.4l-0.1,1.5c-0.1,0-0.2-0.1-0.3-0.2l0.1-2.2c0-0.9,0-1.6,0-2.6c-0.5-1.2-0.5-1.7-0.5-3.1
			c-1.1-1.7-1.9-6.9-1.9-8.8c0.2-0.2,0.8-0.7,0.9-0.9c0-0.2-1-2.4-0.8-3.5c0.2-1.4,1.3-2.5,1.5-3.9l0-0.1c0.3-1.6-0.1-3.5,0.2-5.1
			c0.2-0.9,1.4-2,1.7-2.7c0.4-0.9,0.6-2.1,1-3C209.4,97.5,210.2,94.9,213.5,92.8z"/>
		<path class="st5" d="M206.2,135.5c-0.1-1-0.2-2.4,0.1-3.4C206.3,133.1,206.4,134.6,206.2,135.5z"/>
		<path class="st5" d="M206,132.1c0.3,0.5,0.2,2,0,2.6C205.9,133.7,205.9,133.1,206,132.1z"/>
		<path class="st3" d="M250.7,142.7c0.1,0.4,0.2,1,0.3,1.2c-0.2,2.7-1.6,6.6-3.5,8.6l-0.4-0.2C249.7,148.9,250.5,147,250.7,142.7z"
			/>
		<path class="st5" d="M212.1,166.3c-0.2-0.5-0.2-0.6-0.3-1.1c0.3,0.2,0.4,0.6,0.6,0.9L212.1,166.3z"/>
		<path class="st3" d="M210.1,153c1.9-1.9,3.6-5.8,6.2-6.4c1.3-0.3,1.9,1.5,2.8,2.2c1.5,0.2,1.3-2,3.1-2.2c1.1-0.2,2.3,1.5,3,1.7
			c4.3,1.6,9,2.8,6.6,8.5c-0.3,0.7-0.4,2.5-1.4,2.6c-1-0.6-1.6-2.4-2.3-3.5c-2,1.6-1.9,2.7-2.9,3.9l-0.3,0.2
			c-0.3,1.8-2.2,1.9-3.4,2.3c-5.2,1.7-4.3,2.5-6.9-2.3c-0.1-0.2-1.2-1.1-1.5-1.4c-0.3,0.5-0.4,1-0.9,1.3
			C210.4,159.4,210,154.5,210.1,153z"/>
		<path class="st4" d="M223.1,154.9c1.1,1.2,1.6,1.4,3.2,1.8c-0.5,0.8-1,1.5-1.6,2.2l-0.2,0.2l-0.1,0.1c-2.9,1.6-5.3,1.5-8.4,0.7
			c-0.8-0.9-1.6-2-2.3-2.9c1.3-0.5,2.9-1.3,4.1-1.9c0.8,0.5,1.3,0.9,2.1,1.3C221.1,155.7,221.8,155.4,223.1,154.9z"/>
		<path class="st6" d="M224.5,159.2l0.2-0.2l0.6,0.7l-0.3,0.2L224.5,159.2z"/>
		<path class="st4" d="M219.3,150.5c2.1,0,1.1,0.6,2.4,1.5l0.2-0.1c0.1,0,0.2,0,0.3-0.1c0.5-0.1,0.8-0.1,1.3,0.1
			c1.9,0.6,3.3,2.1,4.2,3.8c-0.6,0-1.2,0.1-1.8-0.1c-1.2-0.3-2.3-1.5-3.4-1.4c-1,0.3-1.8,0.7-2.7,1.3c-0.5-0.4-1-0.9-1.7-1.1
			c-1.4-0.2-2.5,0.8-3.6,1.5c0.5-3.3,2.5-3.4,4.6-5.4L219.3,150.5z"/>
		<path class="st3" d="M227.1,116.9c0.1,0.7-0.5,1.8-0.8,2.4c0.1,0,0.3-0.1,0.4-0.1c0.1,0,0.2-0.1,0.4-0.1c0.7-0.2,1.5-0.1,2.2-0.1
			c2.4-0.3,4.1-1,6.4,0.3c1.9,1.1,2.6,2.8,3.2,4.8c-0.7-0.5-1.4-1-2.1-1.4c-0.3-0.2-0.5-0.6-0.7-0.9c-1.2,0-2.4,0.2-3.6,0.6
			c-1.5-0.5-2.8-1-4.4-1c-1.2,0.8-2,1.1-3.4,1.3c0.4-0.7,1.2-1.5,1.2-2.3c-0.2-0.5-0.5-0.6-0.9-0.9L227.1,116.9z"/>
		<path class="st3" d="M228.6,128.1c0.4,0,0.7,0,1.1,0c1.4,0,3.1,1.2,4,2.2c0.4,0.4,0.6,0.8,0.5,1.3c-0.1,0.1-0.2,0.2-0.3,0.3
			c-1.2,0.8-3,0.9-4.3,0.7c-1-0.1-2.2-0.2-3.1-0.7c-0.5-0.3-0.6-0.5-0.7-1.1c0,0,0-0.1,0-0.1c-0.4,0.1-0.7,0.8-1.1,1l0.2,0l-0.1,0.1
			l-0.2-0.1c0-0.3-0.1-0.4,0.1-0.7C225.5,129.6,227.2,128.5,228.6,128.1z"/>
		<path class="st4" d="M230.6,128.7c0.1,0.1,0.3,0.1,0.4,0.2c0.8,0.5,1.8,1.2,2,2.1c-0.1,0.5-0.2,0.5-0.5,0.8c-0.8,0.1-1.6,0-2.4,0
			C230.5,130.6,230.7,130,230.6,128.7z"/>
		<path class="st3" d="M212.6,128.7c0.9-0.1,1.8-0.1,2.6,0.3c0.7,0.3,1.5,0.9,1.8,1.7c0.1,0.4,0.1,0.5-0.1,0.9l-0.4,0.1
			c-0.9-0.4-1.3-1-1.8-1.8l-1.4,0c-0.5,0.5,0.3,1.3,0.2,1.9c0,0.5-0.3,1.1-0.5,1.5l0.1,0.2c0.4-0.2,0.9-0.5,1.3-0.5
			c0.3,0,0.3,0.1,0.5,0.3l-0.1,0.3c-0.3,0.4-0.7,0.6-1.2,0.7c-0.9,0.3-2.2,0.3-3-0.2c-0.8-0.4-1.4-1.3-1.6-2.1
			c-0.2-0.6-0.1-1.1,0.3-1.6C210.2,129.2,211.5,128.9,212.6,128.7z"/>
		<path class="st3" d="M245.9,141.6c0.3,0,0.6,0,0.8,0.2c1.1,0.5,1.5,2.4,1.8,3.4c-0.7,0.7-1.2,1.2-1.3,2.2l-0.1,0.3
			c-0.3,0.2-0.4,0.3-0.8,0.3c-0.3-0.7,0.1-2,0.1-2.8C246.6,143.8,246.3,142.9,245.9,141.6L245.9,141.6z"/>
		<path class="st3" d="M213.5,113.4c0.6-0.1,1,0.2,1.5,0.4c0.5,0.3,1.1,0.7,1.2,1.2l-0.2,0.2c-1.2,0.3-2.5-0.3-3.6-0.7
			c-1.3-0.1-1.7,0.7-2.7,0.8c-0.1-0.4,0.1-0.6,0.3-0.9C210.7,113.6,212.6,113.5,213.5,113.4z"/>
		<path class="st3" d="M213.4,143.3c0.3,0.2,0.6,0.4,0.9,0.4c0.2-1,0.9-1.6,2-1.3c1.4,0.3,2.2,1.3,3,2.4l-0.2,0.3
			c-0.5-0.3-0.9-0.9-1.4-1.4c-0.3,0-1.4,0.3-1.6,0.2c-0.6-0.1-0.7-0.3-1.4-0.3c-0.1,0.5,0.2,1.1,0.3,1.6c-0.3,0.3-0.1,0.2-0.6,0.2
			c-0.8-0.5-1-1.3-1.2-2.1L213.4,143.3z"/>
		<path class="st3" d="M228.9,112.9c0.9,0,2-0.2,2.8,0.1c-0.2,0.7-1.6,0.9-2.2,1.4c0,0-0.1,0.1-0.1,0.1c-0.6,0.1-1.3,0.2-1.9,0.2
			c-0.4,0-0.8-0.1-1.1-0.4l0.1-0.3C227.1,113.4,228,113.1,228.9,112.9z"/>
		<path class="st3" d="M224.9,137.5c1.3,1.4,1.9,2.9,2.3,4.8c0.5,2.8-1,2.6-3,2.5c-0.3-0.4-0.8-1.1-1.2-1.2c0-0.1,0.2-0.3,0.3-0.4
			c0.6,0.5,1.7,1.5,2.4,1.3C228.2,143.9,225.4,138.6,224.9,137.5z"/>
		<path class="st3" d="M247.4,138.4C247.5,138.4,247.5,138.5,247.4,138.4c1,0.9,1.8,3.7,1.9,4.9c-0.1-0.1-0.1-0.1-0.2-0.2
			C248,141.9,247.3,140,247.4,138.4z"/>
		<path class="st3" d="M222.7,129.1c-0.1,1.4-0.9,2.8-1.1,4.2c-0.2,1.2,0.3,2.7-0.1,3.8c-0.1-0.2-0.2-0.5-0.3-0.7
			C220.6,134.2,221.5,131,222.7,129.1z"/>
		<path class="st3" d="M235.5,131.7l0.2-0.4l0.2,0.1l0.2,0.6c0,0.4,0,0.5-0.2,0.9c-0.8,0.6-1.7,1.3-2.7,0.7l0-0.2
			C234.6,132.2,234.5,133.4,235.5,131.7z"/>
		<path class="st3" d="M220.7,143.8c0.7-1.7,1.3-1.3,2.6-0.5c-0.1,0.1-0.3,0.3-0.3,0.4c-0.7,0.4-0.9,0.4-1.8,0.5
			C220.9,144.1,220.9,144,220.7,143.8z"/>
		<path class="st7" d="M227.7,125.2c0.7,0,1.2,0,1.8,0.3c-0.7,0.3-1.9,0.1-2.8,0.4l-0.2,0.1c-0.4,0.3-0.9,0.5-1.3,0.7l-0.1-0.1
			C225.9,125.9,226.7,125.5,227.7,125.2z"/>
		<path class="st3" d="M225.1,133.4c0.1,0.1,0.1,0.1,0.2,0.2c0.4,0.5,0.8,1.1,1.3,1.5c0.7,0.5,1.5,0.4,2,1c0,0-0.1,0-0.1,0
			c-0.9,0-2-0.6-2.6-1.2C225.5,134.5,225.1,134,225.1,133.4z"/>
		<path class="st3" d="M239.9,161c0,0.1,0,0.1,0,0.2c0.1,1-0.9,2.5-1.5,3.2C238.3,163.5,239.4,161.9,239.9,161z"/>
		<path class="st3" d="M214.5,138.9c0.8-1.3,1.6-2.7,2.4-3.9c-0.7,2-0.8,2.6-2.3,4.2L214.5,138.9z"/>
		<path class="st5" d="M213.3,143.4c-0.8-1.4,0.4-3.5,1.2-4.6l0.1,0.3c-0.9,1.3-1.5,2.6-1.2,4.2L213.3,143.4z"/>
		<path class="st7" d="M235.2,135.3l0.1,0.2c0,0.1,0,0.2-0.1,0.3c-0.4,0.8-1.9,1.3-2.7,1.6c-0.1-0.1-0.1-0.2-0.1-0.3
			C233.5,136.7,234.3,136.3,235.2,135.3z"/>
		<path class="st3" d="M241.6,144c0,0,0,0.1,0,0.1c0,0.9-1.3,2.1-2,2.7C239.7,146.4,241.3,144.4,241.6,144z"/>
		<path class="st3" d="M219.3,144.8c0.7,0.1,1-0.5,1.4-1c0.2,0.3,0.2,0.3,0.6,0.4c-1.1,0.2-0.4,1.1-2.1,0.9L219.3,144.8z"/>
		<path class="st4" d="M302.1,180c0.7-0.4,1.7-0.6,2.6-0.8c0,4.8,0.2,9.2-1.1,13.9c-0.7,2.5-2.6,2.8-3.8,5l-4.8-3.8
			c0.3-0.7,0.5-1.1,1-1.8c0.7,0.5,3.4,3,3.6,3.1c0.4-0.7-2.2-2.8-2.8-3.3c1.1-0.5,2.2-1.3,3.2-1.9c0.8-3.2,1.4-6.4,1.9-9.7l-0.3-0.4
			l0.4-0.6L302.1,180z"/>
		<path class="st5" d="M301.9,180l0.2,0.1l-0.2,0.9l-0.3-0.4L301.9,180z"/>
		<path class="st4" d="M289.6,169.1c3.5-3.7,4.5-1.7,4.5,2.4c0,0.8,0,1.6-0.1,2.4c-0.4,0.5-0.8,1-1,1.6l0.2,0.3
			c0.5,0.1,0.3,0.1,0.8-0.1l0.3-0.4c0.6,2.2,1.1,4.4,1.3,6.7c-1.9-0.6-3-0.5-5,0c-0.7-2-0.9-3.4-1-5.5c0-0.5-0.1-1.3-0.2-1.8
			c0.5,0.2,0.5,0.3,0.9,0.2c0-0.5-0.4-0.9-0.8-1.3C289.6,172,289.6,170.5,289.6,169.1z"/>
		<path class="st4" d="M278.3,238.6c1.1,0.8,2,1.2,3.2,1.7c-0.6,0.5-1,0.1-1.9,0.3c-0.4,0.1-0.3,0.1-0.7-0.1
			C278.5,240.1,278.4,239.2,278.3,238.6z"/>
		<path class="st8" d="M281.5,240.3c2.4,0.5,3.1,0.6,5.5,0.5c-0.5,0.1-0.9,0.1-1.4,0.3l0.1,0.1c-1.2,0.1-4.2-0.6-6.2-0.6
			C280.5,240.3,280.8,240.7,281.5,240.3z"/>
		<path class="st4" d="M301.8,234.6c0.3-0.3,0.5-0.5,1-0.7l0.1,0.3c0,0.6,0.1,1.7-0.2,2.1L301.8,234.6z"/>
		<path class="st6" d="M302.9,234.2c0.2,0.8,0.1,2,0.3,2.5l-0.2,0.2l-0.3-0.7C302.9,235.9,302.8,234.9,302.9,234.2z"/>
		<path class="st2" d="M260.9,168.6c-4.5-8.8-7.2-16.2-6.3-26.3c0.3-4.5,0.6-8.4,4-11.9c6.7-6.8,13.3-6.4,19,1.4
			c6.3,8.6,11,16.3,10.7,27.3c-0.3,9.5-3.8,15.7-9.1,23.2c3.4,3.3,7.3,6.2,11,9.1c7.3,5.8,17.3,11.9,20.7,21.1
			c5,13.2-13.4,27.8-25.2,27.8c-3.2,0-6.2-1.2-8.5-3.5c-2.6-2.7-6.4-10.6,0.1-10.9c4.4,0.3,3.1,7.1,7.9,7.2
			c4.7,0.1,9.7-2.4,13.1-5.6c6.3-5.7,9.2-10.9,2.7-18.1c-6.3-7-13.8-11.3-21-17.1c-1.5-1.2-3.4-2.6-4.8-3.9
			c-1.3,1.8-3.2,3.8-4.6,5.5c-4.8,5.4-9.9,10.4-15.3,15.2c-0.7,7.9-2,15.9-3.1,23.7c-0.5,3.3-1.1,7.5-2.2,10.6
			c-2.8,8.1-7.6,15.9-13.3,22.3c-2.2,2.5-4.8,4.2-7.5,6c-5.4,3.9-11.7,6.6-18.5,5.9c-4.6-0.4-9.6-2.4-12.4-6.2
			c-3.4-4.5-6.1-9-5.4-15c0.8-6,3.8-12.4,7.4-17.2c1.1-1.5,2.8-3,4.2-4.2l0.4-0.2c2.1-1.6,4.1-3.6,6.4-4.9c5.5-3.1,11.4-5.4,17-8.6
			c4.9-2.8,8-5.5,12.2-9c0.5-0.4,0.9-0.8,1.4-1.1c0.2-0.3,1.6-1.4,1.9-1.6c0.7-0.7,1.4-1.3,2.2-1.9c0.7-0.6,2.1-2,2.9-2.3l0.2,0.1
			c-0.1,0.5-0.1,0.9-0.1,1.4l0.1,0.1c0.7-0.7,0.8-3.6,0.9-4.7c0.9-7.5,1.4-15,1.6-22.5c-0.3,0.6-0.5,1.2-0.8,1.8
			c-1.5,3.6-3.2,7-4.9,10.5l-0.5,1c-0.2,0.3-0.5,0.8-0.8,1c-0.6,0.9-1.3,1.7-2,2.5c-1.6,1.8-2.4,2.5-4.5,3.7c1.5,0.5,4.7,0.7,3.7,3
			c-0.5,1.1-1.7,0.7-2.6,0.5c-6.9-1.7-12.9-3.7-19.1-7.2l-0.3,0.2c-0.4,0-0.9-0.6-1.4-0.8c-0.7-0.3-1.4-0.8-2-1.3
			c-0.4-0.4-0.6-0.5-0.8-1.1c-0.3-0.4-1.1-0.9-1.5-1.2c-1.9-1.5-3-2.1-5.4-2.2c-0.2,0.5-0.4,1-0.6,1.5c0.4,4.4,1.7,8.7,2.6,13
			c0.2,0.9-0.5,1.6-1.3,1.8c-0.5,0.1-1,0-1.4-0.3c-1.1-0.8-2.8-12.2-3.2-14.3c-0.8,0.5-1.7,1.1-2.5,1.6c-0.1,0.2-0.3,0.6-0.3,0.7
			c0.4,0.8-0.7,3.6-0.9,4.5c-0.5-1.3-0.9-2-1.7-3.2c0-0.3-0.1-0.3-0.2-0.6c-7.2,2.1-10.5-3.1-12.1-9.2c-1.8-7,0.6-14.4,8.9-13.8
			c2.9,0.2,5.9,2.2,5.2,5.4c-0.1,0.6-0.6,1.1-1.1,1.4c-1.5,0.3-2-1.7-2.4-2.9c-0.6-0.4-1.1-0.5-1.8-0.6c-3.4-0.4-5.5,1.9-5.7,5.2
			c-0.2,3.3,1.4,10.4,5.6,10.6c2.7,0.1,6.5-2.9,8.4-4.7c-0.5-2.2-0.4-5.3-0.6-7.6c-0.8-7.8-0.9-15.5-0.7-23.3c0-0.8,0.5-1.6,1.4-1.4
			c0.5,0.4,0.7,1.2,0.7,1.8c0.3,7.3,0.2,14.6,1.2,21.9c0.3,2.1,0.3,4.4,0.7,6.5c4.5-4,8.8-8.2,13.3-12.2c5.7-5,11.8-10.1,17.7-14.9
			c0.2-0.2,0.7-0.1,1,0c0.3,0.3,0.4,0.3,0.4,0.8c-0.2,1-4.4,4.5-5.5,5.4c-6.9,6-13.6,12.2-20.1,18.5c-2,2-4,4.1-6,6.2
			c4.9-0.3,8.8,3.6,13.1,5.9l0.7-0.1l0.1,0.1l0.4,0.6c0.5,0.3,0.9,0.6,1.4,0.8l0.5-0.2c0.3,0.1,0.7,0.2,1,0.4
			c0.1,0.4,0.4,0.5,0.7,0.8l0.1,0c1.5-0.1,1.6,0.4,2.4,0.6c0.6,0.1,1.3,0.4,1.9,0.6l-0.6,0.4l1.6,0.5c0.3-0.1,0.4-0.2,0.7-0.3
			c-0.4-1.7-0.7-5.4-1-7.4c-0.6-3.5-1.6-5.4-2.8-8.7c5.3-2.6,10.1-6,13.5-10.9c0.8-1.2,1.6-2.8,2.7-3.7c0.2-0.2,0.3-0.1,0.5,0
			c0.1,0.5-0.7,3.4-0.8,4.3c-0.4,4.6-0.7,10-2.1,14.4c-0.6,1.9-2.8,4.5-3.8,6.6c-0.2,0.5-0.4,0.6-0.6,1.5c0,0.5,0,0.8,0.2,1.2
			c0.2,0,0.2,0,0.3-0.1l0-0.7c0.4-0.3,0.8-0.8,1.1-1.1l0.3,0.3c1.1-1.1,1.7-2.1,2.5-3.4l0-0.8c0-0.3,0.2-0.9,0.3-1.2
			c0.5-1.3,1-2.7,1.4-4.1c0.3-1.1,0.1-2.5,0.3-3.6c0.5-2.7,0.8-5.1,0.7-7.9c0.1,0.1,0.1,0.2,0.2,0.3c1.1,2,1.8,4.8,1.2,7.1l0.4,0.1
			c1.7-4.5,3.8-8.6,5.8-13c0.8-2,1.8-4.1,4.4-3.1c0.9,0.3,1.4,1.4,1.3,2.3c-0.4,3.4-0.6,6.9-0.7,10.3c-0.1,4.5-0.1,9.1-0.3,13.6
			c-0.1,2.2-0.2,5.7-0.7,7.8c3.4-3.5,6.7-6.9,10-10.5c0.8-0.9,3.4-4.2,4.1-4.6c-0.1-0.8-2.4-2.9-3.2-4c-1.2-1-3.8-5.9-4.3-7.4
			C262,171.1,261.3,169.6,260.9,168.6z"/>
		<path class="st4" d="M227.8,182.4c5.3-2.6,10.1-6,13.5-10.9c0.8-1.2,1.6-2.8,2.7-3.7c0.2-0.2,0.3-0.1,0.5,0
			c0.1,0.5-0.7,3.4-0.8,4.3c-0.4,4.6-0.7,10-2.1,14.4c-0.6,1.9-2.8,4.5-3.8,6.6c-0.4-2.8,2.5-10.6,3.2-13.6c0.3-1.1,2.9-4-1.1-4.5
			c-2.2-0.2-3.3,3.9-3.9,5.4c-1.6,5.4-4.8,13-2.5,18.6c-0.4-0.1-1.6-0.6-2-0.5c-0.4-1.7-0.7-5.4-1-7.4
			C230,187.5,229,185.7,227.8,182.4z"/>
		<path class="st9" d="M233.6,198.9c-2.3-5.6,0.9-13.1,2.5-18.6c0.5-1.6,1.7-5.6,3.9-5.4c4,0.5,1.3,3.4,1.1,4.5
			c-0.7,3.1-3.6,10.8-3.2,13.6c-0.2,0.5-0.4,0.6-0.6,1.5l0-0.2c-0.4-4,2.3-10.7,3.2-14.7c0.2-1,2.2-3.1,0.8-3.9
			c-3.1-2-4.2,3.5-4.9,5.4c-0.9,3.3-2.3,6.9-2.7,10.3c-0.3,2.8-1.1,7.6,2.6,8l0,0.2c-0.7,0.4-2.2-0.1-3-0.4
			c-0.8-0.2-1.5-0.5-2.3-0.7c0.3-0.1,0.4-0.2,0.7-0.3C231.9,198.4,233.1,198.8,233.6,198.9z"/>
		<path class="st6" d="M244.2,173.2c0.1,0.1,0.1,0.2,0.2,0.3c1.1,2,1.8,4.8,1.2,7.1c-0.4,0.7-1.3,3.1-1.6,4.1
			c-0.6,1.6-1.2,2.9-1.9,4.4l-0.2-0.3c0.5-1.3,1-2.7,1.4-4.1c0.3-1.1,0.1-2.5,0.3-3.6C244,178.3,244.3,176,244.2,173.2z"/>
		<path class="st4" d="M201.8,194.4c0.4,0.8-0.7,3.6-0.9,4.5c-0.5-1.3-0.9-2-1.7-3.2C199.8,195.5,201.2,194.9,201.8,194.4z"/>
		<path class="st9" d="M245.6,180.6l0.4,0.1c-1.5,3.8-2.3,6.6-4.4,10.1l0-0.8c0-0.3,0.2-0.9,0.3-1.2l0.2,0.3
			c0.7-1.6,1.3-2.8,1.9-4.4C244.3,183.7,245.1,181.3,245.6,180.6z"/>
		<path class="st8" d="M241.6,190c0-0.3,0.2-0.9,0.3-1.2l0.2,0.3C241.9,189.4,241.8,189.7,241.6,190z"/>
		<path class="st9" d="M215.4,193.8c1.5,0.9,3,1.9,4.5,3l-0.3,0.2c-0.4,0-0.9-0.6-1.4-0.8c-0.7-0.3-1.4-0.8-2-1.3
			C215.8,194.4,215.6,194.3,215.4,193.8z"/>
		<path class="st10" d="M266.8,179.4c1.7,0.6,0.7,1.5,3.4,2.6c0.1,0.4,0,0.7,0.2,1.2l-0.2,0.2l-0.2,0
			C269.9,182.6,267.6,180.6,266.8,179.4z"/>
		<path class="st9" d="M225.6,196.6c1.5-0.1,1.6,0.4,2.4,0.6c0.6,0.1,1.3,0.4,1.9,0.6l-0.6,0.4C228.2,197.8,226.6,197.1,225.6,196.6
			z"/>
		<path class="st9" d="M202.1,193.7c-0.1,0.2-0.3,0.6-0.3,0.7c-0.5,0.4-1.9,1-2.6,1.3c0-0.3-0.1-0.3-0.2-0.6
			C200.2,194.7,200.9,194.3,202.1,193.7z"/>
		<path class="st10" d="M242.4,196.7c0.2-1,0.2-0.6-0.2-1.6l0.1-0.1l0.7,0.2c0.6-0.7,0.6-0.8,1.4-1
			C243.8,195.1,243.1,196,242.4,196.7z"/>
		<path class="st10" d="M260.9,168.6c1.4,0.7,1.4,1.9,1.6,3.3C262,171.1,261.3,169.6,260.9,168.6z"/>
		<path class="st10" d="M243.7,209.6c0.7-0.7,1.4-1.3,2.2-1.9l0,0.3C245.1,209,244.9,209.3,243.7,209.6z"/>
		<path class="st9" d="M223.8,195.4c0.3,0.1,0.7,0.2,1,0.4c0.1,0.4,0.4,0.5,0.7,0.8c-0.9-0.2-1.4-0.5-2.2-1L223.8,195.4z"/>
		<path class="st3" d="M238.7,193.9l0.3,0.3l-1.4,1.5l0-0.7C238,194.8,238.4,194.3,238.7,193.9z"/>
		<path class="st2" d="M204.7,234.9c0.4,0.2,0.4,0.2,0.7,0.5l-0.2,0.2c-0.5-0.1-0.5-0.1-0.9-0.5L204.7,234.9z"/>
		<path class="st9" d="M221.4,194.1l0.1,0.1l0.4,0.6l-1.2-0.6L221.4,194.1z"/>
		<path class="st4" d="M212.5,237.8c2.5-2,4.5-3.2,7.4-4.5c6.5-2.9,13.1-6.2,18.9-10.4c3.1-2.3,6.1-5,9.1-7.5
			c-0.6,4.1-1.3,8.3-2,12.4c-0.5,2.7-1.1,6.2-1.8,8.9c-0.2,1.6-1.1,4.8-1.7,6.3c-2.4,6.5-6.7,13.2-12,18.5
			c-6.5,6.4-18.4,14-26.9,5.8c-2-2-4.2-6.5-3.9-9.3c0.3-2.6,1.1-5.1,2.3-7.4c2.4-6.1,5.3-8.3,10.1-12.5L212.5,237.8z"/>
		<path class="st3" d="M212.5,237.8c2.5-2,4.5-3.2,7.4-4.5c6.5-2.9,13.1-6.2,18.9-10.4c3.1-2.3,6.1-5,9.1-7.5
			c-0.6,4.1-1.3,8.3-2,12.4c-0.5,2.7-1.1,6.2-1.8,8.9c-0.1-0.8,0.2-1.2-0.1-2l-0.3,1.2c-0.2-0.2-0.2-0.9-0.4-1.2
			c-1-2.2-3.6-4.6,0.9-5.1c0.3-3.8,0.2-7.2,0.5-10.8c-0.6,0.1-0.5,0-0.8,0.3l0,0.3c-2.1,1.8-9.6,7.8-12,8.3c-0.5,0-1.4,0.5-1.6,0.9
			c-0.6,0.4-1.3,0.8-2,1.1l-0.2-0.1c-1.1,0.7-1.9,1.2-3.2,1.8c-2.9,1.7-7.7,3.2-10,5.2c-0.3,0.3-1.3,1-1.6,1.1
			c-0.3,0.2-0.4,0.2-0.7,0.2c0,0.2-0.1,0.2,0,0.3c-1.4,1.2-4.5,3.7-5.8,5.1c-3.2,3.8-5.9,9.4-6.7,14.3c-0.4,2.7,1.6,7,3.5,8.9
			c6.8,7.3,17.3,2.5,23.5-2.9c5.2-4.5,8-7.8,11.3-13.7c1.3-2.2,2.9-4.7,3.5-7.3l0.5,0.4c-2.4,6.5-6.7,13.2-12,18.5
			c-6.5,6.4-18.4,14-26.9,5.8c-2-2-4.2-6.5-3.9-9.3c0.3-2.6,1.1-5.1,2.3-7.4c2.4-6.1,5.3-8.3,10.1-12.5L212.5,237.8z"/>
		<path class="st4" d="M247.2,216.8c-1,6.1-1.9,11.8-3.1,17.9l-0.3,1.2c-0.2-0.2-0.2-0.9-0.4-1.2c-1-2.2-3.6-4.6,0.9-5.1
			c0.3-3.8,0.2-7.2,0.5-10.8C245.5,218.5,246.7,217.3,247.2,216.8z"/>
		<path class="st3" d="M230.4,228.6c0.2-0.4,1.2-0.9,1.6-0.9c-0.8,2-5.4,13.1-6.5,14.2l-0.2,0c0-0.1-0.1-0.2-0.1-0.3
			c0.6-1.6,2-3.9,2.6-5.4c-1.6-1.3-2.1-2.8-2.7-4.7c1.2-0.6,2-1.1,3.2-1.8l0.2,0.1C229.2,229.4,229.8,229,230.4,228.6z"/>
		<path class="st4" d="M230.4,228.6c0,0.9-0.2,1.4-1.1,1.5c-0.5-0.1-0.5-0.1-0.8-0.5C229.2,229.4,229.8,229,230.4,228.6z"/>
		<path class="st3" d="M244.1,219.4l0-0.3c0.3-0.3,0.2-0.2,0.8-0.3c-0.2,3.6-0.2,7.1-0.5,10.8c-4.6,0.5-1.9,2.9-0.9,5.1
			c0.1,0.3,0.1,1,0.4,1.2l0.3-1.2c0.2,0.7,0,1.2,0.1,2c-0.2,1.6-1.1,4.8-1.7,6.3l-0.5-0.4c1-3.1,2-5.7,0.1-8.7
			c-1.4-2.3-1.7-4.8,1.7-5C244,225.8,244.2,222.3,244.1,219.4z"/>
		<path class="st3" d="M212.8,238.2c-0.1-0.1,0-0.1,0-0.3c0.3,0,0.4,0,0.7-0.2l0,0.3c-0.1,0.8-0.2,3.2-0.8,3.7
			C212.3,240.9,212.7,239.2,212.8,238.2z"/>
		<path class="st6" d="M215.1,236.7c0,0.5,0.2,0.6-0.1,1l-0.2,0c-0.6,0.1-0.7,0.1-1.3,0.4l0-0.3
			C213.8,237.6,214.7,236.9,215.1,236.7z"/>
		<path class="st3" d="M267.3,132.5c0.8,0.1,1.3,0.2,2,0.7c4.3,2.9,10.5,14.5,11.4,19.6c0.4,1.9,0.4,3.9,0.4,5.8
			c-0.1,7.2-2.6,11.9-6.6,17.7c-0.1,0.3-0.3,0.4-0.5,0.6l-0.3-0.1c-1-1.2-2.1-2.3-2.9-3.6c-2.5-3.7-4.3-8.3-6.1-12.4
			c-2.6-5.8-3.5-11.7-3.2-18c0.1-1.8,0.2-3.6,0.9-5.3C263.4,135.2,265.2,133.5,267.3,132.5z"/>
		<path class="st4" d="M267.4,133.1c0.5,0.1,0.9,0.2,1.4,0.4c3.6,1.9,9.5,12.8,10.8,16.9c1.6,5,1.5,11.2-0.1,16.1
			c-0.5,1.6-1.3,3.1-2,4.5c-0.2-0.2-0.5-0.5-0.8-0.7c-0.5-0.3-1.4-0.3-1.9-0.1c-0.8,0.2-1.3,0.7-1.7,1.4c-0.1,1.1,0,2.3,0,3.4
			c-0.7-0.9-1.4-1.8-1.9-2.8c-1.4-2.4-2.5-4.9-3.6-7.4c-3.5-7.6-5.8-13.1-5.2-21.7c0.1-1.6,0.2-3.3,0.6-4.9
			C263.4,135.9,265.3,134.3,267.4,133.1z"/>
		<path class="st4" d="M275.1,170.9c0.5,0,0.8,0,1.2,0.2c0.2,0.2,0.3,0.3,0.3,0.5c0.2,1-1.5,3.1-2.1,3.9l-0.4,0.5l-0.3,0
			c-0.6-0.7-0.3-3.4-0.4-4.4L275.1,170.9z"/>
		<path class="st2" d="M245.4,186.5c0.2,0.1,0.3,0.2,0.5,0.3c0.2,0,0.4,0,0.6,0.1c0.1,0.3-0.1,0.8-0.2,1.1l0,0.1l-0.2,0.1
			C245.8,187.7,245.6,187.1,245.4,186.5z"/>
		<path class="st2" d="M212,238.1l-0.2-0.1l-0.1-0.3c0.2-0.5,0.1-0.4,0.4-0.6c0.4,0.2,0.2,0.2,0.4,0.7L212,238.1z"/>
		<path class="st2" d="M269.2,192.2l0.2,0.2c0,0.4,0,0.7-0.2,1c-0.2-0.1-0.3-0.3-0.5-0.4C268.7,192.6,268.9,192.5,269.2,192.2z"/>
		<path class="st10" d="M259.1,161.6c0.3,0.1,0.6,0.1,1,0.1l0.2,0.3l-0.4,0.3C259.5,162.3,259.3,161.9,259.1,161.6z"/>
		<path class="st2" d="M189.2,183.6c0.3,0.1,0.4,0.1,0.5,0.4l-0.3,0.5l-0.3,0C189,184.2,189.1,184,189.2,183.6z"/>
		<path class="st10" d="M233.2,266c0.2-0.1,0.1-0.1,0.4,0l-0.3,0.1l-0.3,0L233.2,266z"/>
		<path class="st10" d="M280.3,171.2l0.2,0l-0.2,0.3c-0.2,0-0.2,0-0.3-0.1L280.3,171.2z"/>
		<path class="st2" d="M244.3,217.2l0.5,0l0.1,0.2l-0.2,0.2l-0.2,0L244.3,217.2z"/>
		<path class="st4" d="M279.8,193c0.4,0.3,2.2,1.6,2.4,1.9c2.1,2.9,2.9,6.3,7.3,5.4l1.6,1.2c-1.2,1.5-1.4,2.2-2,3.9
			c0.4-0.5,0.9-1.1,1.3-1.7c0.4-0.7,0.8-1.2,1.3-1.8c0.6,0.5,1.1,0.8,1.7,1.3c1.6,1,4,3.1,5.2,4.5c-0.3,4.5-3.2,8.2-3.4,12.9
			c-0.1,2.4,0.7,4.6,0.9,7c-2.2,3.1-5,4-8.3,4.7c-7,1.5-4.9-4.7-9.3-6.8c-1.4-0.7-3.2,0.1-4.4,1.2c-3.2-2.2-2.6-2.8-4.6-5.6
			c-2.1-3-2.1-4.1-3.4-7.2c-1.4-3-3-6.8-4.6-9.7c1.7-1.7,3.8-3.7,5.4-5.4c1.1,2.5,2,4.9,3.9,7c2,2.2,3.8,4.4,3.8,7.5l0.3,0.3
			c0-2.8-0.4-3.9-1.8-6.3c1.5-1.5,2.4-2.9,3.6-4.6c1.6-0.2,3-0.6,4.7-0.7c0.6,2.5,0.7,9.3,0.1,12c-0.2,0.9-1.4,2.5-1.5,3.6l0.2,0
			c3.9-4.3,1.3-13.9,2.2-15.1c1.5-0.2,2.9,2.5,4.4,3.5c-3-5.7-5.1-4.7-10.7-4.1c0.2-1.9,0.4-3.9,0.5-5.7
			C277.5,195,278.6,193.9,279.8,193z"/>
		<path class="st11" d="M274.5,213.3l0.3,0.3l-0.1,0.3l-0.1-0.1L274.5,213.3z"/>
		<path class="st3" d="M293.3,223.5c0.2,0,0.2,0.1,0.4,0.2c-0.4,1.9-3.5,4-4.9,5.1l-0.1,0.1l-0.2-0.1c0.1-0.4,0.2-0.8,0.5-1.1
			C289.4,227.1,292.8,223.9,293.3,223.5z"/>
		<path class="st3" d="M265.6,202.7l0.1,0.2c-0.1,0.9-1.4,2.6-1.9,3.5c-0.1-0.2-0.1-0.5-0.1-0.7
			C263.8,204.4,264.6,203.4,265.6,202.7z"/>
		<path class="st3" d="M288.5,209.9c0,0.4-2.1,3.7-2.6,4.5l-0.1-0.4C286.3,212.4,287.5,211,288.5,209.9z"/>
		<path class="st4" d="M187.4,159.6c0.4,0.2,0.8,0.5,1.1,0.8c1.8,2,1.4,5.3,1.3,7.8c-0.4-0.1-0.8-0.1-1.2-0.1
			c-0.4,0-0.5,0.2-0.8,0.5l0.1,0.2c0.4,0.1,0.9,0.1,1.2,0.4c0.9,0.8,0.8,2.8,0.8,3.9l-0.5,0.4c-0.7,0.5-0.8,0.7-1.7,0.6l-0.3,0.2
			c0,0.2,0.1,0.3,0.2,0.4c0,0.1,0.1,0.1,0.1,0.1c-0.3,0.7-0.7,1.3-1,1.9c-1.8,3.7-0.8,8.6,0.5,12.3c0.5,1.3,1.1,2.5,1.6,3.7
			c0.5,1.5,0.6,3.1,1.1,4.6c0.4,1.1,1.2,3.5,2.3,4c0.4,0.2,0.6,0.1,1-0.1c1.2-1,0.8-3.7,0.9-5.2c1.2,0.1,2.4,0,3.6,0.4
			c1.4,0.5,2,1.7,2.6,3c-0.4,0.3-0.7,0.5-1.1,0.9l0,0.3l0.5,0.5c-0.1,1.1-0.4,2.2-0.5,3.3c-0.2,1.6-0.1,3.3-0.4,4.9
			c-0.6,3.3-2.8,7.4-4.7,10.2c-1.5,2.2-3.1,3.4-4.3,5.9c0.7,1,0.9,1.8,0.7,3c-0.1,0.6-0.2,1.2-0.7,1.6c-0.5,0.3-1,0.3-1.6,0.3
			c-1.1-0.2-2.2-0.6-3.2-0.9c-3.3-0.9-8.2-1.9-10.3-4.9c-1.2-2.3-3.5-3.8-4.5-6.3c0.8-0.8,1.3-1.3,1.5-2.5c0.3-1.9-0.7-3.5-0.9-5.3
			c-0.3-2.5,0-5-0.5-7.6c-0.2-1-0.8-2.2-0.7-3.1c0.5-0.1,1-0.2,1.5-0.3c1.1-0.2,1.7-0.5,2.4-1.5l0.1-0.2c0.7,0.8,1.4,1.4,2.4,1.7
			c1.6,0.5,2.9-0.1,4.3-0.9c0.2,0.2,0.4,0.3,0.6,0.4c0.3,0.1,0.3,0.1,0.6,0c0-0.2-0.1-0.4-0.1-0.6c0-0.2-0.1-0.5-0.1-0.8
			c0-0.3,0.1-0.6,0.4-0.8c0.9,1.3,1.4,3,2.2,4.4c1.3,2.5,4.6,6.2,7.2,7.1c0.8,0.3,1.5,0.3,2.3-0.1c0.8-0.4,1.4-1.1,1.7-1.9
			c0.2-0.7,0.2-1.9-0.3-2.5c-0.6-0.8-1.8-1.5-2.5-2.1c-1.9-1.6-3.9-4.2-4.8-6.5c-1.3-3.3-2-6.7-2.5-10.2c-0.2-1.8-0.3-3.6-0.3-5.4
			c0-1,0.1-2.4-0.1-3.4c-0.1-0.3-0.3-0.6-0.4-0.9c0.2-1.4,0.8-2.6,1-3.9c0.2-1,0.2-2.2,0.3-3.2C185.7,165.8,186.3,161.9,187.4,159.6
			z"/>
		<path class="st3" d="M184.4,217.1l0,0.2c-0.2,0.6-0.5,1.1-0.8,1.6c-1.6,1.9-4.1,2.8-6.4,3.1l0-0.2c0.6-0.9,2.5-0.8,3.4-1.3
			C182,219.6,183.2,218.3,184.4,217.1z"/>
		<path class="st3" d="M187.9,216.3c0.2,0.1,0.3,0.2,0.5,0.3c0,0.5-0.1,1.2,0.1,1.7c0.3,1.2,1.7,2.9,1.6,4.1c-1-0.9-1.6-2.1-1.9-3.4
			C187.9,218.3,187.5,217,187.9,216.3z"/>
		<path class="st11" d="M189,211.5c0,0.6-1.7,3.3-2.1,4.2c0,0,0-0.1,0-0.1C186.9,214.3,188.3,212.5,189,211.5z"/>
		<path class="st2" d="M179.3,159.6c0-1.1-0.2-7,0.2-7.5c0.4-0.2,0.4-0.1,0.8-0.1c4.2,0.5,2.8,4.7,3,7.7c0,0.6-0.1,2.5-0.5,2.9
			c-1.2-0.7-1.5-1.4-2.7-2l-0.2-0.1c1.5,2.9,3.2,2.7,2.5,6.8c-0.3,1.8-0.3,5.3-0.1,7.2l0.1,0.5c2.1,1.1,1.6,2.7,1.7,4.7
			c0.1,1.2-0.1,2.4,0,3.5c0,2.4,0.8,4.9,1.1,7.2c0.2,0.6,0.5,1.6,0.6,2.3c1.1,2.6,1.5,4.8,3.5,7.1c1.5,1.8,3,3,4.9,4.5
			c0.5,0.5,0.7,2.1,0.2,2.7c-1.1,1.7-2.7,1.6-4.1,0.5c-3.9-2.9-7.3-7.5-8.2-12.3c-1.7,4.2-6.4,6.4-8.4,0.8c-0.2-0.6-0.4-0.9-0.9-1.4
			l-0.1-0.1c-0.8-2.9-1.2-8.7-1.5-11.9l-0.1-0.1c0-0.4,0-0.5-0.3-0.9l-0.2,0c-0.5-0.4-0.6-0.9-0.6-1.5c-0.2-2.8-0.1-5.6,0-8.4
			c0.1-4.1-0.2-8.3,0.3-12.4c0.2-1.9,0.6-2.1,1.9-3.4c0.7,1.6,2,3,2.4,4.8c0.4,1.8,0,3.6-0.5,5.3c-0.5-0.4-0.9-0.7-1.5-0.8l-0.2,0.1
			c0.4,1,1.3,1.6,2.2,2.2c0,1.6,0.1,3.9-0.2,5.5c0,0.3-0.7,0.5-1,0.7l0,0.2c3.1,2,2.1,5.5,3.2,6.7l0.2,0c0.4-1.1-0.5-5.4-0.4-6.8
			c0.1-2.3,0.8-4.6,1.3-6.8C178.1,164.3,178,161.7,179.3,159.6z"/>
		<path class="st4" d="M179.3,159.6c0-1.1-0.2-7,0.2-7.5c0.4-0.2,0.4-0.1,0.8-0.1c4.2,0.5,2.8,4.7,3,7.7c0,0.6-0.1,2.5-0.5,2.9
			c-1.2-0.7-1.5-1.4-2.7-2l-0.2-0.1c1.5,2.9,3.2,2.7,2.5,6.8c-0.3,1.8-0.3,5.3-0.1,7.2c-2.1,0-3,1.5-3.3,3.4
			c-0.4,2.6-0.2,5.2-0.3,7.8c-0.1,1.7-0.4,4.1-0.4,5.8c-0.7-0.3-2.1-1.5-2.8-2c0.1-0.4-0.4-4.4-0.5-5c-0.1-0.9-0.1-2-0.1-3
			c-1.2-2.2-3.5-2.3-4.3,0.2l-0.2,0c-0.5-0.4-0.6-0.9-0.6-1.5c-0.2-2.8-0.1-5.6,0-8.4c0.1-4.1-0.2-8.3,0.3-12.4
			c0.2-1.9,0.6-2.1,1.9-3.4c0.7,1.6,2,3,2.4,4.8c0.4,1.8,0,3.6-0.5,5.3c-0.5-0.4-0.9-0.7-1.5-0.8l-0.2,0.1c0.4,1,1.3,1.6,2.2,2.2
			c0,1.6,0.1,3.9-0.2,5.5c0,0.3-0.7,0.5-1,0.7l0,0.2c3.1,2,2.1,5.5,3.2,6.7l0.2,0c0.4-1.1-0.5-5.4-0.4-6.8c0.1-2.3,0.8-4.6,1.3-6.8
			C178.1,164.3,178,161.7,179.3,159.6z"/>
		<path class="st9" d="M170.7,181.4c0.8-2.4,3-2.3,4.3-0.2c0,1,0,2.1,0.1,3c0,0.7,0.5,4.7,0.5,5c0.7,0.5,2.1,1.7,2.8,2
			c0.1,0.5,0.1,1.2,0.1,1.7c0,0.2-0.1,0.6-0.1,0.8l0,0.3c-0.4,0.8-0.5,0.9-1.2,1.4c-3-4.3-2.2-13.6-3.1-14.7c-0.3-0.3-0.6-0.5-1-0.5
			c-0.5,0-1,0.2-1.4,0.6c-0.5,0.5-0.4,1.1-0.4,1.7l-0.1-0.1C170.9,181.9,170.9,181.8,170.7,181.4z"/>
		<path class="st4" d="M175.5,189.3c0.7,0.5,2.1,1.7,2.8,2c0.1,0.5,0.1,1.2,0.1,1.7c0,0.2-0.1,0.6-0.1,0.8l-0.3-0.1
			c-0.2,0.4-0.2,0.5-0.5,0.8c-1.1,0.1-1.6-2.8-1.7-3.7C175.4,190.3,175.5,189.9,175.5,189.3z"/>
		<path class="st3" d="M175.5,189.3c0.7,0.5,2.1,1.7,2.8,2c0.1,0.5,0.1,1.2,0.1,1.7c0,0.2-0.1,0.6-0.1,0.8l-0.3-0.1
			c0.1-1.6-0.9-2.1-2.1-2.9C175.4,190.3,175.5,189.9,175.5,189.3z"/>
		<path class="st3" d="M182.3,174.3l0.1,0.5c-4.2-0.1-3,6.7-3.1,9.3c-0.1,2.9-0.2,6-0.9,8.8c0-0.5,0-1.2-0.1-1.7
			c0-1.6,0.3-4,0.4-5.8c0.1-2.6-0.1-5.3,0.3-7.8C179.3,175.8,180.2,174.4,182.3,174.3z"/>
		<path class="st10" d="M178.2,194c0.3,0.7-0.3,1.5-0.9,1.9l-0.2,0c-0.1-0.3-0.1-0.2-0.1-0.4C177.8,194.9,177.8,194.8,178.2,194z"/>
		<path class="st10" d="M185.8,192.6c-0.9-0.2-0.7-1.6-0.6-2.3C185.3,191,185.6,192,185.8,192.6z"/>
		<path class="st4" d="M208.9,190.9c0.2,0,0.4,0,0.6,0c0.8,0.1,1.9,0.3,2.5,1c0.6,0.8,0.4,4.6,0.5,5.8c0.1,1.7,0.6,3.4,0.7,5.2
			c0.3,4.3,0.1,8.6,0.1,12.9c0,4.1,0.2,8.5-0.4,12.7c-3.2,1.7-6,3.9-8.7,6.3c0-4.5-0.7-9-1.4-13.4c-1.2-7.3-1.4-20,0-27.2
			c0.5-0.4,1-0.7,1.4-1c0.4,2.2,0.8,4.5,1.2,6.7c0.3,1.8,0.6,3.7,1.1,5.5c0.2,0.7,0.5,1.4,1.2,1.8c0.5,0.3,1.3,0.3,1.9,0.1
			c0.9-0.3,1.2-1.1,1.5-1.9C210.5,201.5,207.9,194.3,208.9,190.9z"/>
		<path class="st4" d="M212.9,193.3l0.1-0.5c0.6-0.1,1.4,0.8,1.8,1.2c2.6,4.9,2.8,10.4,4.1,15.7c0.6,2.4,1.8,4.8,2.6,7.1
			c0.7,2,1.1,4.6,1.4,6.7c-3.1,1.4-6.2,2.9-9.2,4.4c0.2-5.5,0.3-11,0.3-16.6c0-4.7,0.1-8.9-0.7-13.5
			C213,196.4,213.2,194.8,212.9,193.3z"/>
		<path class="st6" d="M212.9,193.3l0.1-0.5c0.6-0.1,1.4,0.8,1.8,1.2C213.7,194,214.2,193.5,212.9,193.3z"/>
		<path class="st4" d="M250.2,183.9l0.7-1.7c0,0.6-0.1,1.8-0.2,2.3c-0.4,6.4-0.7,13.4-1.8,19.7c-0.9,0.8-2.6,2.3-3.3,3.1
			c-0.2,0.5-0.5,0.6-1,0.9c-1.4,0.6-8.3,6.8-10.2,8.3c1.6-4,3.4-8,3.7-12.3c1.8,0.5,5,0.7,3.8-2.6c-0.3-0.9-1.8-1.2-2.7-1.5
			c2.9-2.2,4.1-3.8,6.3-6.6l0-0.1c-0.1-0.1-0.3-0.2-0.4-0.4l0.5-1l0.6,0.1C247.7,189.5,249,186.7,250.2,183.9z"/>
		<path class="st4" d="M250.2,183.9l0.7-1.7c0,0.6-0.1,1.8-0.2,2.3c-0.4,6.4-0.7,13.4-1.8,19.7c-0.9,0.8-2.6,2.3-3.3,3.1
			c-0.2,0.5-0.5,0.6-1,0.9c0.6-3.9,0.4-7.7,0.8-11.6c0.1-1,0.1-2,0.2-2.9l0-0.1c-0.1-0.1-0.3-0.2-0.4-0.4l0.5-1l0.6,0.1
			C247.7,189.5,249,186.7,250.2,183.9z"/>
		<path class="st3" d="M245.7,192.2l0.6,0.1c0.1,4-0.8,8.4-0.6,12.4c0,0.8-0.1,1.8-0.1,2.6c-0.2,0.5-0.5,0.6-1,0.9
			c0.6-3.9,0.4-7.7,0.8-11.6c0.1-1,0.1-2,0.2-2.9l0-0.1c-0.1-0.1-0.3-0.2-0.4-0.4L245.7,192.2z"/>
		<path class="st2" d="M151.1,180.1c0.2,0,0.3,0,0.5,0c0.7,0.1,1.2,0.3,1.6,1c0.6,1.3,0.8,3.2,1.2,4.6c1.4,5.9,2.8,12,6.7,16.8
			c2.6-2.8,3.9-6.7,8.2-7.7c0.8-0.2,2.3-0.3,3.1,0.2c0.5,0.3,0.8,0.9,0.9,1.5c0.1,0.6,0,1.4-0.4,1.9c-0.3,0.4-0.8,0.6-1.3,0.6
			c0,0-0.1,0-0.1,0c-4.4,0-6,5.6-8.7,8.1c-0.5,0.5-1.2,0.9-1.9,0.8c-0.6-0.1-1.3-0.4-1.7-0.9c-0.5-0.6-0.8-1.6-1.2-2.4
			c-4.3-7.1-5-11.7-6.8-19.5c-0.2-1-1.1-2.6-0.9-3.6C150.1,180.7,150.6,180.4,151.1,180.1z"/>
		<path class="st4" d="M200.4,179.1l0.1-0.1c1.9-1.6,0.4-2.6,1.3-4.1l0.3-0.1c0.9,0.7,0.6,2.4,0.7,3.5c0.3,2.7,0.3,5.5,0.6,8.2
			c-0.3,0.3-0.7,0.7-1,0.9l0,0.2c-0.5,0.1-0.3,0-0.6,0.3c-1.7,1.2-4.2,3-6.3,2.9l-0.1,0.1c-0.3-0.1-0.4-0.1-0.6-0.3
			c-3.8-2.2-5-8.8-3.6-12.7c1.4-0.8,3.7-2.3,5.4-1.8c1.3,0.4,0.7,1.2,1,2c0.1,0.3,0.8,0.6,1.1,1.1
			C199.2,179,199.9,178.9,200.4,179.1z"/>
		<path class="st4" d="M200.4,179.1l0.1-0.1c1.9-1.6,0.4-2.6,1.3-4.1l0.3-0.1c0.9,0.7,0.6,2.4,0.7,3.5c0.3,2.7,0.3,5.5,0.6,8.2
			c-0.3,0.3-0.7,0.7-1,0.9c-0.6-0.9-1.1-1.3-1.9-1.9C202.4,183,203.8,181,200.4,179.1z"/>
		<path class="st4" d="M195.5,190.8c1-3.2,3.2-7.3,6.3-2.9C200.1,189.1,197.7,190.9,195.5,190.8z"/>
		<path class="st3" d="M198.7,179.3c0.5-0.3,1.2-0.4,1.7-0.2c3.3,1.9,1.9,4,0.1,6.4c0.8,0.6,1.4,1,1.9,1.9l0,0.2
			c-0.5,0.1-0.3,0-0.6,0.3c-3.2-4.4-5.3-0.3-6.3,2.9l-0.1,0.1c-0.3-0.1-0.4-0.1-0.6-0.3c0.7-2.5,1.9-5.8,5.1-5.4
			c0.5-0.8,1.9-2.8,1.9-3.7C201.9,180.6,199.4,180.1,198.7,179.3z"/>
		<path class="st4" d="M162.4,165.4l0.5,0.2c0.9,1,2,2.7,2.4,4c0.7,1.8,0,3.5-0.7,5.2c0.4,0.2,0.7,0.4,1,0.6
			c1.3,1.3,0.4,1.9,0.5,3.3c0,0.4,1.7,0.8,2.1,1.1c0.7,0.6,2,2.6,2.3,3.5c0.5,1.4,0.5,5.1,0.8,6.8c0.2,1.4,0.5,2.7,0.7,4.1
			c-1-0.2-1.8-0.1-2.8,0.2c-0.1-0.6-0.4-4.8-0.6-4.9c-0.4-0.2-0.7,0-1.1-0.4c-1.1-1.2-2.5-3.1-3.1-4.5c-0.9-2.2-1-4.6-1.5-6.9
			c-0.4-1.6-1.1-3.2-1.5-4.8c-0.2-1-0.3-2-0.3-2.9C160.9,168.3,161.2,166.5,162.4,165.4z"/>
		<path class="st4" d="M285.8,172.2c2,3.1,1.8,7.1,2.2,10.6c0.2,2,0.6,4,0.7,6l1,0.8l1.5-1.8c-0.8-1.7-0.6-3.5-0.6-5.2
			c1.8-0.2,3.3-0.5,5,0c0,1.5-0.3,3.1-0.5,4.6c-0.1,0.1-0.3,0.1-0.4,0.2l-0.1,0c0,1.1,0.5,2.4,0.7,3.5c-0.3-0.3-0.7-0.6-1-0.9
			c-0.5-0.4-1.5-1.1-2.2-1l-0.1,0.2c0.2,0.5,0.3,0.7,0.7,1c0.8,0.6,1.6,1.3,2.4,2l-0.8,1.5c-3.9-3-7.8-6-11.6-9.1
			c0-2,0.1-3.5-0.8-5.3l2,0.1c0.3,0.5,0.6,1.3,1.2,1.4l0.1-0.2c-0.1-0.4-0.2-0.6-0.4-0.9c-0.7-1-1.5-1.1-2.6-1.2
			C283.5,176.5,284.7,174.4,285.8,172.2z"/>
		<path class="st3" d="M293.2,186.4c0.3,0,0.8,0.1,1,0.4c0.2,0.2,0.2,0.3,0.2,0.6c-0.4,0-0.8,0-1.2-0.2
			C293.1,186.8,293.1,186.8,293.2,186.4z"/>
		<path class="st4" d="M275.2,189.3l0.2,0.2c0.3,1,0.2,1.7,0.1,2.7c0.4,0.6,0.7,1.3,1,2c-0.4,2.2-0.6,4.4-0.7,6.6
			c-0.1,1.9-0.6,3.9-2.2,5.1c-0.4,0.3-0.8,0.5-1.3,0.4c-0.8-0.1-1.3-1.2-1.7-1.8c0.2-0.5,0.5-1.3,0.3-1.8c-0.2-0.5-1.2-0.4-1.7-0.6
			c-0.8-1-1.3-2.6-1.9-3.7C269.9,195.4,272.7,192.4,275.2,189.3z"/>
		<path class="st4" d="M258,177.6c2.6-0.2,3.4,0.7,5.3,2.3c3.3,0.1,3.9,0.9,6.1,3.2c-1.8,2.3-3.7,4.4-5.7,6.6l-1.8,2
			c-0.8-1-1.9-1.6-3-2.2c0.9-1.1,2.8-3,2.9-4.4c0-0.4-0.1-0.7-0.3-1.1c-0.6-1-3.2-3.3-4.2-4.4c0-0.4-0.1-1,0-1.5
			C257.5,177.8,257.7,177.8,258,177.6z"/>
		<path class="st4" d="M216.3,180.3c2.4,1,2.2,2.1,5.3,2.1c-0.5,2.6-1.5,7.6-2.4,10l-0.2,0.1l-0.6-0.4l-4.4-2.7
			c-0.9-1.8-1.4-3.2-1.6-5.2C213.6,182.9,215,181.6,216.3,180.3z"/>
		<path class="st4" d="M165.6,188.2c0.1,0,0,0,0.1,0.1c0.6,0.8,1.2,1.5,2,2l0.6,4.1c-3.3,1.6-5.1,3.9-7,6.9l-0.2,0.2
			c-0.8-0.4-1.7-2.6-2.1-3.4c1.4-3.1,2.7-6.1,3.4-9.5C163.4,188.3,164.5,188.3,165.6,188.2z"/>
		<path class="st4" d="M298.3,211.3c0.3,0.3,0.4,1.1,0.5,1.6c1.5,4.9,0.7,7.4,1.3,12c-0.4,0.5-1.4,1.8-2,1.9c-0.3,0.1-0.4-0.2-0.7,0
			c0,0.2,0,0.4,0,0.6c0,0.1,0,0.1,0,0.2c-0.2,0.2-0.5,0.3-0.7,0.5l-0.2-0.1c0.1-1.7-0.5-3.6-0.7-5.3
			C295.2,218.9,296.9,214.7,298.3,211.3z"/>
		<path class="st4" d="M208.4,168.3c0.3,0.4,0.6,0.8,0.7,1.3c0.3,0.9,0.4,2,0.6,3c0.5,2.5,1.2,4.8,1.4,7.3c-0.9,0.9-1.9,1.8-2.9,2.7
			l-1,0.9c-0.5-3.7-0.8-7.4-1.2-11.1C207.1,171.1,207.9,169.9,208.4,168.3z"/>
		<path class="st4" d="M225.9,200.5c0.7,0.3,1.8,0.5,2.4,1.1c0.6,0.6,0.4,1.7,0.3,2.5c-0.6,0.3-1.2,0.5-1.9,0.8c0,0.7,0,1.5-0.1,2.2
			c-0.1,0.8-1.5,5.1-2,5.7c-0.3,0.1-0.6,0.2-0.9,0.1c-0.6-0.2-1-0.7-1.3-1.3c-0.4-0.9-0.8-2.9-0.2-3.8c0.3-0.4,0.8-0.9,0.9-1.4
			c0.2-1,0-2.1,0.6-3.1c0.6-1,1.8-1.4,2.2-2.6C225.9,200.6,225.9,200.6,225.9,200.5z"/>
		<path class="st4" d="M257.4,180.5c1.6,1,3.2,3.3,4.2,4.9c-1.2,1.3-2.3,2.7-3.3,4.2c1.1,0.8,2.2,1.6,3.3,2.5l-0.9,0.9
			c-1.2,1.3-2.5,2.6-3.8,3.8C257.2,191.3,257.4,185.9,257.4,180.5z"/>
		<path class="st4" d="M299,208.3c1.8,1.2,4.6,5.5,5,7.6c0.5,2.5-0.6,4.5-1.9,6.6c-0.4,0.7-0.9,1.3-1.3,1.9
			c-0.2-2.6,0.2-5.2-0.2-7.8c-0.2-1.8-1-3.5-1.3-5.2C298.9,210.3,299,209.3,299,208.3z"/>
		<path class="st4" d="M233.9,203.2c1.2,0.2,2.4,0.6,3.6,0.9c-0.1,2.9-1.2,6.4-2.4,9l-0.7,1.2c-0.5-1.5-0.9-3-1.3-4.5
			C232.4,206.9,232.3,205.8,233.9,203.2z"/>
		<path class="st4" d="M245.2,167.7c1.2,1.2,2.1,3.7,3.6,5.2c-0.6,1.3-1.2,2.7-1.8,4l-0.6,1.6c-0.1-2.1-0.5-4-1.6-5.9
			C244.9,171,245,169.4,245.2,167.7z"/>
		<path class="st4" d="M232.6,165.2c0,0.5-0.5,1.3-0.8,1.7c-2,3.4-5.4,6.6-9.2,7.6c0-0.1,0-0.2,0-0.3
			C223,173.7,231.5,166.2,232.6,165.2z"/>
		<path class="st4" d="M217.7,200.5c-0.3-2-1.2-4-1.4-5.6c0.7,0.5,1.3,1,2,1.3c-0.1,0.3-0.1,0.7-0.2,1c0.5,1,1.9,0.8,2.8,1.2
			c1.2,0.6,1,2.7-0.3,2.9C219.4,201.5,218.6,201,217.7,200.5z"/>
		<path class="st4" d="M187.6,232.1c1.9-1.1,2.8-1.5,3.9-3.4c-0.2,3.7-1.2,5.5-2.7,8.8c-0.1,0.3,0,0.2-0.2,0.4
			c-0.2-0.3-0.1-0.6-0.1-0.9C188.1,235,187.8,234.2,187.6,232.1z"/>
		<path class="st8" d="M188.5,237l0.3,0.5c-0.1,0.3,0,0.2-0.2,0.4C188.5,237.6,188.5,237.4,188.5,237z"/>
		<path class="st4" d="M190,193.5c1.1,1,2.1,1.7,3.4,2.3c0,1.6,0.2,3-0.4,4.5l-0.4,0.1c-0.3-0.1-0.5-0.3-0.7-0.6
			C190.7,198.4,189.7,195.5,190,193.5z"/>
		<path class="st4" d="M228.9,213.1c0.1,0,0.2,0,0.3,0c0.6,0,0.9,0.1,1.2,0.6c0.5,0.6,0.7,1.5,0.6,2.3c-0.1,0.9-0.3,1.6-1.1,2.3
			c-0.4,0-0.7,0.1-1.1-0.2c-0.8-0.6-0.9-2.4-1-3.4C228.2,214.1,228.5,213.6,228.9,213.1z"/>
		<path class="st4" d="M255.6,209.5c0.8-0.7,1.5-1.4,2.3-2.1c-0.7,4-1.3,5.7-2.7,9.6c-0.2-0.3-0.2-0.8-0.3-1.2
			C255.2,213.7,255.5,211.5,255.6,209.5z"/>
		<path class="st4" d="M210.1,170.9l0.1-0.2c0.4,0.3,0.4,0.4,0.6,0.8c1.1,2.5,1.4,3.6,3.1,5.8c-0.7,0.6-1.4,1.3-2.1,2
			C211.6,177.1,210.6,173.4,210.1,170.9z"/>
		<path class="st12" d="M210.1,170.9l0.1-0.2c0.4,0.3,0.4,0.4,0.6,0.8L210.1,170.9z"/>
		<path class="st4" d="M276.1,190c1,0.8,2,1.7,3,2.5l-1,0.7l-1.1,0.9C276.3,192.6,276,191.7,276.1,190z"/>
		<path class="st4" d="M281,180.3c0.3,0.3,0.7,0.6,1.1,0.8c0,0.8,0.3,2.3-0.1,2.9l-0.3-0.1c-0.7-0.6-1.2-1.3-1.7-2L281,180.3z"/>
		<path class="st4" d="M228,197.2c0.3-0.8,0.6-2.1,1.7-1.7c0.8,0.3,1.3,1.7,1.2,2.5c-0.3,0.1-0.7-0.1-1-0.2
			C229.3,197.6,228.7,197.3,228,197.2z"/>
		<path class="st4" d="M226.1,187.3l0.3,0.2c0.2,0.5,0.3,0.9,0.4,1.5c0.1,1-0.2,1.7-0.9,2.4l-0.3-0.1c-0.2-0.4-0.3-0.8-0.4-1.2
			C225.1,188.9,225.4,188.1,226.1,187.3z"/>
		<path class="st4" d="M283.8,196.1c1.8,0.9,3.4,2.5,5,3.6c-0.5,0-1.1,0-1.6-0.2C285.5,199.1,284.7,197.6,283.8,196.1z"/>
		<path class="st4" d="M210.7,185.9c0.3-0.3,0.5-0.6,0.8-0.6c0.1,0.4,0.1,0.5,0.1,1c0.1,0.6,0.1,1.4,0.2,2.1
			c-1.1-0.4-1.5-0.5-2.6-0.6C209.7,187.1,210.3,186.5,210.7,185.9z"/>
		<path class="st6" d="M210.7,185.9c0.3-0.3,0.5-0.6,0.8-0.6c0.1,0.4,0.1,0.5,0.1,1c-0.4,0.2-0.2,0.2-0.6,0.2L210.7,185.9z"/>
		<path class="st4" d="M221.4,194.1c0.4-1.1,1.4-2.6,2.7-2.7l0.3,0.2c0.3,1.2-1.8,2.3-2.8,2.6L221.4,194.1z"/>
		<path class="st4" d="M237.7,195c0.5-1.6,2.4-4.4,3.4-5.9c-0.6,2.5-0.6,2.9-2.3,4.8C238.4,194.3,238,194.8,237.7,195z"/>
		<path class="st4" d="M222.1,183.6c0.1,0,0.1,0.1,0.2,0.1c0.8,0.5,1.6,1.4,1.8,2.3c-0.7-0.2-1.5-0.3-1.9-0.9
			C221.9,184.6,222,184.2,222.1,183.6z"/>
		<path class="st6" d="M254.1,223.5c0,2.6,0,3.5-0.9,6c0.1-2,0.5-4.1,0.6-6L254.1,223.5z"/>
		<path class="st4" d="M231.9,202.5c0.4,0.1,0.7,0.2,1,0.5c0.1,0.5-0.2,0.8-0.4,1.2l-0.2,0.3C232,203.9,231.9,203.1,231.9,202.5z"/>
		<path class="st4" d="M223.8,195.4c0.3-0.7,0.1-0.7,0.7-1.1l0.3,0c0.3,0.5,0.2,0.8,0,1.4C224.5,195.7,224.1,195.5,223.8,195.4z"/>
		<path class="st6" d="M254.9,215.8c0,0.4,0.1,0.9,0.3,1.2c-0.1,0.6-0.5,1.6-0.7,2.2L254.9,215.8z"/>
		<path class="st6" d="M243.9,166.8c0.3,0,0.6-0.1,0.9-0.1c0.3,0,0.5,0,0.7,0.2l-0.4,0.1c-0.4,0.1-0.9,0.3-1.4,0.2L243.9,166.8z"/>
		<path class="st4" d="M269.6,202.8c0.2,0,0.4,0.1,0.6,0.2c0.2,0.2,0.2,0.6,0.2,0.8c-0.1,0-0.1,0-0.2-0.1
			C269.8,203.5,269.7,203.1,269.6,202.8z"/>
		<path class="st6" d="M229.1,201.7c0.3,0.1,0.6,0.2,0.9,0.3l0,0.2l-0.2,0.2C229.4,202.2,229.3,202,229.1,201.7z"/>
		<path class="st12" d="M253.8,223.6c0.1-0.5,0-0.7,0.3-1.2c0.2,0.4,0,0.8,0,1.2L253.8,223.6z"/>
		<path class="st5" d="M289.2,174l0.3,0.6c0.1,0.5,0.2,1.3,0.2,1.8l-0.3,0.9C289.3,176,289.3,175.2,289.2,174z"/>
		<path class="st3" d="M309.4,233.8c0.6,0,1.3,0.1,1.8,0.4c0.9,0.4,1.5,1.2,1.8,2.1c0.4,1.2,0.3,2.5-0.3,3.6c-0.6,1.2-1.5,1.7-2.8,2
			c-0.5,0-0.9-0.1-1.4-0.3c-0.9-0.4-1.6-1.2-1.9-2.2c-0.4-1.1-0.4-2.4,0.2-3.5C307.3,234.8,308.2,234.2,309.4,233.8z"/>
		<path class="st4" d="M309,234.5c0.4-0.1,0.9-0.1,1.3,0c0.8,0.2,1.5,0.7,1.9,1.4c0.5,0.9,0.6,1.9,0.3,2.9c-0.3,1.2-0.9,1.8-1.9,2.4
			c-0.4,0.1-0.9,0.1-1.3,0c-0.8-0.2-1.5-0.7-1.8-1.4c-0.5-0.9-0.6-2-0.3-2.9C307.4,235.7,308,235.1,309,234.5z"/>
		<path class="st3" d="M308.3,235.6c0.7,0,2.2-0.2,2.8,0.3c0.4,0.4-0.3,1.4-0.3,1.9c0,0.6,0.7,1.3,0.7,2c-0.3,0.3-0.5,0.2-0.9,0.2
			c-0.2-0.5-0.3-1-0.6-1.5c-0.3-0.2-0.3-0.2-0.6-0.2c-0.2,0.4-0.1,1-0.1,1.5c-0.2,0.3-0.2,0.4-0.6,0.5c0,0-0.1-0.1-0.1-0.1
			C308,239.3,308.3,236.6,308.3,235.6z"/>
		<path class="st4" d="M309.2,236.2c0.3,0.1,0.5,0.1,0.8,0.2c0.3,0.4,0.3,0.5,0.3,1c-0.3,0.1-0.6,0.1-0.9,0
			C309.1,237,309.2,236.6,309.2,236.2z"/>
		<path class="st3" d="M183.4,239.5c0.2,0,0.4,0,0.5,0c0.3,0.1,0.5,0.2,0.7,0.4c0.2,0.3,0.2,0.6,0.1,0.9c-0.1,0.4-0.4,0.8-0.8,1
			l-0.2-0.1l-0.1-0.3c0.2-0.4,0.3-0.6,0.2-1c-0.9,0-0.4,0.9-1,1.3l-0.3-0.1l-0.1-0.3C182.6,240.7,182.8,240.2,183.4,239.5z"/>
		<path class="st3" d="M181.3,237.1c0.7,0.1,1.3,0.2,1.9,0.5l0,0.3c-0.5,0.1-1.1,0.3-1.6,0.1C181.4,237.6,181.4,237.5,181.3,237.1z"
			/>
	</g>
</g>
</svg>
