<svg xmlns="http://www.w3.org/2000/svg" width="1300" height="1560" viewBox="0 0 1300 1560">
<defs><path id="g" d="M 452.2622762712764,497.6 L 423.1622762712765,474.5 C 413.8622762712765,467.20000000000005 410.2622762712764,460.79999999999995 412.3622762712765,455.29999999999995 C 414.7622762712766,449.0 420.6622762712765,447.69999999999993 429.96227627127644,451.29999999999995 C 439.2622762712764,454.9 445.3622762712765,461.69999999999993 448.1622762712765,471.79999999999995 L 520.7622762712764,476.9 C 513.2622762712764,438.29999999999995 490.1622762712765,411.59999999999997 451.2622762712764,396.79999999999995 C 439.06227627127635,392.09999999999997 427.56227627127635,388.9 416.6622762712765,386.9 C 427.3622762712765,380.9 435.96227627127644,372.79999999999995 442.46227627127644,362.59999999999997 L 400.06227627127635,331.49999999999994 C 392.56227627127635,344.09999999999997 384.2622762712764,348.59999999999997 375.2622762712764,345.19999999999993 C 363.3622762712764,340.49999999999994 362.3622762712764,325.0999999999999 372.2622762712764,299.0999999999999 C 382.2622762712764,273.0999999999999 393.1622762712765,262.3999999999999 405.2622762712764,266.7999999999999 C 414.06227627127635,270.1999999999999 417.1622762712765,279.0999999999999 414.56227627127635,293.5999999999999 L 466.8622762712763,298.69999999999993 C 469.66227627127626,281.99999999999994 467.2622762712764,267.0999999999999 459.7622762712764,253.89999999999992 L 507.8622762712763,272.2999999999999 L 505.66227627127626,299.3999999999999 L 584.7622762712762,329.69999999999993 L 596.8622762712761,103.29999999999993 L 509.462276271276,69.79999999999993 L 390.5622762712759,217.29999999999995 C 387.5622762712759,217.59999999999997 384.6622762712759,218.09999999999997 381.5622762712759,218.89999999999998 L 447.76227627127594,46.099999999999966 L 328.2622762712764,0.0 L 201.2622762712764,331.4 C 189.16227627127637,363.0 172.7622762712764,374.79999999999995 151.96227627127644,366.79999999999995 C 138.36227627127641,361.59999999999997 131.7622762712764,345.69999999999993 131.96227627127644,319.19999999999993 C 131.7622762712764,308.5999999999999 132.96227627127644,297.49999999999994 135.7622762712764,285.99999999999994 L 4.2622762712763915,283.0 C -12.237723728723608,401.3 19.16227627127637,475.70000000000005 98.56227627127635,506.1 C 148.7622762712764,525.3000000000001 193.16227627127637,522.4 231.8622762712763,497.20000000000005 C 270.4622762712763,472.0 300.2622762712763,432.1 321.2622762712763,377.30000000000007 L 325.66227627127626,365.80000000000007 C 333.16227627127626,376.30000000000007 343.4622762712762,384.1000000000001 356.4622762712762,389.1000000000001 C 358.26227627127616,389.80000000000007 359.9622762712762,390.4000000000001 361.76227627127616,390.9000000000001 C 346.26227627127616,397.80000000000007 334.76227627127616,411.0000000000001 327.3622762712762,430.30000000000007 C 317.66227627127614,455.70000000000005 331.66227627127614,483.30000000000007 369.4622762712762,513.2 L 393.4622762712762,532.6 C 401.26227627127616,538.7 403.8622762712763,545.1 401.26227627127616,551.9 C 398.66227627127626,558.6999999999999 391.4622762712762,559.9 379.8622762712762,555.4 C 361.06227627127623,548.1999999999999 351.26227627127616,535.9 350.56227627127623,518.6 L 281.16227627127626,520.3000000000001 C 288.7622762712763,563.2 317.16227627127626,594.1 366.56227627127623,613.0000000000001 C 395.5622762712761,624.1000000000001 421.0622762712761,627.0000000000001 442.8622762712763,621.6000000000001 C 464.66227627127626,616.2000000000002 480.3622762712763,601.1000000000001 489.8622762712763,576.2000000000002 C 499.3622762712763,551.4 486.8622762712763,525.2 452.2622762712764,497.6 M 519.4622762712764,150.2 L 512.7622762712764,215.5 L 482.96227627127644,204.10000000000002 L 519.4622762712764,150.2"/></defs>
<g fill="none" stroke-miterlimit="10" vector-effect="non-scaling-stroke">
<use href="#g" transform="translate(-1014.00,-1310.40) rotate(-15.36) scale(0.4977) translate(-298.43,-312.12)" stroke="#162F4F" stroke-width="2" stroke-opacity="1"/>
<use href="#g" transform="translate(-1014.00,249.60) rotate(-15.36) scale(0.4977) translate(-298.43,-312.12)" stroke="#162F4F" stroke-width="2" stroke-opacity="1"/>
<use href="#g" transform="translate(-1014.00,1809.60) rotate(-15.36) scale(0.4977) translate(-298.43,-312.12)" stroke="#162F4F" stroke-width="2" stroke-opacity="1"/>
<use href="#g" transform="translate(286.00,-1310.40) rotate(-15.36) scale(0.4977) translate(-298.43,-312.12)" stroke="#162F4F" stroke-width="2" stroke-opacity="1"/>
<use href="#g" transform="translate(286.00,249.60) rotate(-15.36) scale(0.4977) translate(-298.43,-312.12)" stroke="#162F4F" stroke-width="2" stroke-opacity="1"/>
<use href="#g" transform="translate(286.00,1809.60) rotate(-15.36) scale(0.4977) translate(-298.43,-312.12)" stroke="#162F4F" stroke-width="2" stroke-opacity="1"/>
<use href="#g" transform="translate(1586.00,-1310.40) rotate(-15.36) scale(0.4977) translate(-298.43,-312.12)" stroke="#162F4F" stroke-width="2" stroke-opacity="1"/>
<use href="#g" transform="translate(1586.00,249.60) rotate(-15.36) scale(0.4977) translate(-298.43,-312.12)" stroke="#162F4F" stroke-width="2" stroke-opacity="1"/>
<use href="#g" transform="translate(1586.00,1809.60) rotate(-15.36) scale(0.4977) translate(-298.43,-312.12)" stroke="#162F4F" stroke-width="2" stroke-opacity="1"/>
<use href="#g" transform="translate(-338.00,-1092.00) rotate(-18.81) scale(0.5762) translate(-298.43,-312.12)" stroke="#E4DDD0" stroke-width="1.6" stroke-opacity="0.72"/>
<use href="#g" transform="translate(-338.00,468.00) rotate(-18.81) scale(0.5762) translate(-298.43,-312.12)" stroke="#E4DDD0" stroke-width="1.6" stroke-opacity="0.72"/>
<use href="#g" transform="translate(-338.00,2028.00) rotate(-18.81) scale(0.5762) translate(-298.43,-312.12)" stroke="#E4DDD0" stroke-width="1.6" stroke-opacity="0.72"/>
<use href="#g" transform="translate(962.00,-1092.00) rotate(-18.81) scale(0.5762) translate(-298.43,-312.12)" stroke="#E4DDD0" stroke-width="1.6" stroke-opacity="0.72"/>
<use href="#g" transform="translate(962.00,468.00) rotate(-18.81) scale(0.5762) translate(-298.43,-312.12)" stroke="#E4DDD0" stroke-width="1.6" stroke-opacity="0.72"/>
<use href="#g" transform="translate(962.00,2028.00) rotate(-18.81) scale(0.5762) translate(-298.43,-312.12)" stroke="#E4DDD0" stroke-width="1.6" stroke-opacity="0.72"/>
<use href="#g" transform="translate(2262.00,-1092.00) rotate(-18.81) scale(0.5762) translate(-298.43,-312.12)" stroke="#E4DDD0" stroke-width="1.6" stroke-opacity="0.72"/>
<use href="#g" transform="translate(2262.00,468.00) rotate(-18.81) scale(0.5762) translate(-298.43,-312.12)" stroke="#E4DDD0" stroke-width="1.6" stroke-opacity="0.72"/>
<use href="#g" transform="translate(2262.00,2028.00) rotate(-18.81) scale(0.5762) translate(-298.43,-312.12)" stroke="#E4DDD0" stroke-width="1.6" stroke-opacity="0.72"/>
<use href="#g" transform="translate(-780.00,-702.00) rotate(-5.91) scale(0.5486) translate(-298.43,-312.12)" stroke="#162F4F" stroke-width="2" stroke-opacity="1"/>
<use href="#g" transform="translate(-780.00,858.00) rotate(-5.91) scale(0.5486) translate(-298.43,-312.12)" stroke="#162F4F" stroke-width="2" stroke-opacity="1"/>
<use href="#g" transform="translate(-780.00,2418.00) rotate(-5.91) scale(0.5486) translate(-298.43,-312.12)" stroke="#162F4F" stroke-width="2" stroke-opacity="1"/>
<use href="#g" transform="translate(520.00,-702.00) rotate(-5.91) scale(0.5486) translate(-298.43,-312.12)" stroke="#162F4F" stroke-width="2" stroke-opacity="1"/>
<use href="#g" transform="translate(520.00,858.00) rotate(-5.91) scale(0.5486) translate(-298.43,-312.12)" stroke="#162F4F" stroke-width="2" stroke-opacity="1"/>
<use href="#g" transform="translate(520.00,2418.00) rotate(-5.91) scale(0.5486) translate(-298.43,-312.12)" stroke="#162F4F" stroke-width="2" stroke-opacity="1"/>
<use href="#g" transform="translate(1820.00,-702.00) rotate(-5.91) scale(0.5486) translate(-298.43,-312.12)" stroke="#162F4F" stroke-width="2" stroke-opacity="1"/>
<use href="#g" transform="translate(1820.00,858.00) rotate(-5.91) scale(0.5486) translate(-298.43,-312.12)" stroke="#162F4F" stroke-width="2" stroke-opacity="1"/>
<use href="#g" transform="translate(1820.00,2418.00) rotate(-5.91) scale(0.5486) translate(-298.43,-312.12)" stroke="#162F4F" stroke-width="2" stroke-opacity="1"/>
<use href="#g" transform="translate(-130.00,-530.40) rotate(0.33) scale(0.4339) translate(-298.43,-312.12)" stroke="#162F4F" stroke-width="2" stroke-opacity="1"/>
<use href="#g" transform="translate(-130.00,1029.60) rotate(0.33) scale(0.4339) translate(-298.43,-312.12)" stroke="#162F4F" stroke-width="2" stroke-opacity="1"/>
<use href="#g" transform="translate(-130.00,2589.60) rotate(0.33) scale(0.4339) translate(-298.43,-312.12)" stroke="#162F4F" stroke-width="2" stroke-opacity="1"/>
<use href="#g" transform="translate(1170.00,-530.40) rotate(0.33) scale(0.4339) translate(-298.43,-312.12)" stroke="#162F4F" stroke-width="2" stroke-opacity="1"/>
<use href="#g" transform="translate(1170.00,1029.60) rotate(0.33) scale(0.4339) translate(-298.43,-312.12)" stroke="#162F4F" stroke-width="2" stroke-opacity="1"/>
<use href="#g" transform="translate(1170.00,2589.60) rotate(0.33) scale(0.4339) translate(-298.43,-312.12)" stroke="#162F4F" stroke-width="2" stroke-opacity="1"/>
<use href="#g" transform="translate(2470.00,-530.40) rotate(0.33) scale(0.4339) translate(-298.43,-312.12)" stroke="#162F4F" stroke-width="2" stroke-opacity="1"/>
<use href="#g" transform="translate(2470.00,1029.60) rotate(0.33) scale(0.4339) translate(-298.43,-312.12)" stroke="#162F4F" stroke-width="2" stroke-opacity="1"/>
<use href="#g" transform="translate(2470.00,2589.60) rotate(0.33) scale(0.4339) translate(-298.43,-312.12)" stroke="#162F4F" stroke-width="2" stroke-opacity="1"/>
<use href="#g" transform="translate(-1144.00,-312.00) rotate(-2.92) scale(0.4290) translate(-298.43,-312.12)" stroke="#E4DDD0" stroke-width="1.6" stroke-opacity="0.72"/>
<use href="#g" transform="translate(-1144.00,1248.00) rotate(-2.92) scale(0.4290) translate(-298.43,-312.12)" stroke="#E4DDD0" stroke-width="1.6" stroke-opacity="0.72"/>
<use href="#g" transform="translate(-1144.00,2808.00) rotate(-2.92) scale(0.4290) translate(-298.43,-312.12)" stroke="#E4DDD0" stroke-width="1.6" stroke-opacity="0.72"/>
<use href="#g" transform="translate(156.00,-312.00) rotate(-2.92) scale(0.4290) translate(-298.43,-312.12)" stroke="#E4DDD0" stroke-width="1.6" stroke-opacity="0.72"/>
<use href="#g" transform="translate(156.00,1248.00) rotate(-2.92) scale(0.4290) translate(-298.43,-312.12)" stroke="#E4DDD0" stroke-width="1.6" stroke-opacity="0.72"/>
<use href="#g" transform="translate(156.00,2808.00) rotate(-2.92) scale(0.4290) translate(-298.43,-312.12)" stroke="#E4DDD0" stroke-width="1.6" stroke-opacity="0.72"/>
<use href="#g" transform="translate(1456.00,-312.00) rotate(-2.92) scale(0.4290) translate(-298.43,-312.12)" stroke="#E4DDD0" stroke-width="1.6" stroke-opacity="0.72"/>
<use href="#g" transform="translate(1456.00,1248.00) rotate(-2.92) scale(0.4290) translate(-298.43,-312.12)" stroke="#E4DDD0" stroke-width="1.6" stroke-opacity="0.72"/>
<use href="#g" transform="translate(1456.00,2808.00) rotate(-2.92) scale(0.4290) translate(-298.43,-312.12)" stroke="#E4DDD0" stroke-width="1.6" stroke-opacity="0.72"/>
<use href="#g" transform="translate(-494.00,-156.00) rotate(-18.01) scale(0.4368) translate(-298.43,-312.12)" stroke="#162F4F" stroke-width="2" stroke-opacity="1"/>
<use href="#g" transform="translate(-494.00,1404.00) rotate(-18.01) scale(0.4368) translate(-298.43,-312.12)" stroke="#162F4F" stroke-width="2" stroke-opacity="1"/>
<use href="#g" transform="translate(-494.00,2964.00) rotate(-18.01) scale(0.4368) translate(-298.43,-312.12)" stroke="#162F4F" stroke-width="2" stroke-opacity="1"/>
<use href="#g" transform="translate(806.00,-156.00) rotate(-18.01) scale(0.4368) translate(-298.43,-312.12)" stroke="#162F4F" stroke-width="2" stroke-opacity="1"/>
<use href="#g" transform="translate(806.00,1404.00) rotate(-18.01) scale(0.4368) translate(-298.43,-312.12)" stroke="#162F4F" stroke-width="2" stroke-opacity="1"/>
<use href="#g" transform="translate(806.00,2964.00) rotate(-18.01) scale(0.4368) translate(-298.43,-312.12)" stroke="#162F4F" stroke-width="2" stroke-opacity="1"/>
<use href="#g" transform="translate(2106.00,-156.00) rotate(-18.01) scale(0.4368) translate(-298.43,-312.12)" stroke="#162F4F" stroke-width="2" stroke-opacity="1"/>
<use href="#g" transform="translate(2106.00,1404.00) rotate(-18.01) scale(0.4368) translate(-298.43,-312.12)" stroke="#162F4F" stroke-width="2" stroke-opacity="1"/>
<use href="#g" transform="translate(2106.00,2964.00) rotate(-18.01) scale(0.4368) translate(-298.43,-312.12)" stroke="#162F4F" stroke-width="2" stroke-opacity="1"/>
</g>
</svg>