<?xml version="1.0" encoding="UTF-8"?>
<svg id="Capa_2" data-name="Capa 2" xmlns="http://www.w3.org/2000/svg" viewBox="0 0 823.27 823.27">
  <defs>
    <style>
      .cls-1 {
        fill: #fbfbfa;
      }

      .cls-2 {
        fill: #fff;
      }

      .cls-3 {
        fill: #eff2ef;
      }

      .cls-4 {
        fill: #2c2d2b;
      }

      .cls-5 {
        fill: #f83a27;
      }

      .cls-6 {
        fill: #898786;
      }

      .cls-7 {
        fill: #c2c3c3;
      }

      .cls-8 {
        fill: #474848;
      }

      .cls-9 {
        fill: #727273;
      }

      .cls-10 {
        fill: #f74331;
      }

      .cls-11 {
        fill: #1c0808;
      }

      .cls-12 {
        fill: #060202;
      }
    </style>
  </defs>
  <g id="Capa_1-2" data-name="Capa 1">
    <g>
      <g>
        <circle class="cls-2" cx="411.63" cy="411.63" r="403.75"/>
        <path class="cls-5" d="M411.63,823.27C184.66,823.27,0,638.61,0,411.63S184.66,0,411.63,0s411.64,184.66,411.64,411.63-184.66,411.64-411.64,411.64Zm0-807.5C193.36,15.77,15.77,193.35,15.77,411.63s177.58,395.86,395.86,395.86,395.86-177.58,395.86-395.86S629.91,15.77,411.63,15.77Z"/>
      </g>
      <g>
        <path class="cls-12" d="M374.1,93.4h80.22c2.37,1.59,7.64,1.03,10.94,3.24,3.69,2.48,4.58,5.53,6.9,9.2,.35,.53,3.52-.39,5.77,.88,.17,1.17,.01,3.72,.95,4.06,3.19,1.14,4.05,3.74,5.69,6.62,2.01,3.53,4.33,7.27,6.25,10.89,2.62,8.62,7.85,23.4,9.12,31.9,1.95,13.03,7.77,25.84,1.62,37.38,1.21,2.19,2.38,4.43,3.82,6.47-2.02,4.18-4.17,8.48-6.12,12.68,2.94,6.78,3.33,12.53,.58,19.61-.7,1.77-1.5,3.5-2.39,5.18,1.48,5,.38,14.12-.44,19.31-.6,8.93-5.35,21.73-11.49,28.06-.28,3.24-.22,9.07-2.61,11.23-5.24,4.72-5.14,13.57-7.11,20.12-1.28,4.24-3.36,9.51-3.84,13.87l.45,.29c2.28-.88,7.11-1.27,8.99,.46,.28,2.3-1.2,2.26-1.06,2.8,1.12,4.24,7.65,13.48,10.02,16.2,4.57-9.34,11.44-33.45,24.2-27.21,2.43,1.19,4.91,3.01,5.44,6.18-.33,11.93-2.05,24.73-1.94,36.65,9.77-1.13,12.21-.39,18.94,6.65,3.18,.51,6.36,.96,9.56,1.33-9.74-13.48-13.27-21.44-20.25-36.74-4.23-9.27-8.19-16.75-11.83-26.63-8.92-24.2-9.62-48.33-6.09-73.61,1.91-13.65,10.26-25.04,21.17-33.02,8.1-5.93,18.31-9.8,28.48-7.73,16.29,3.32,24.46,16.34,33.24,28.46,21.81,30.08,34.46,60.75,27.66,98.32-.79,4.39-1.93,8.74-3.11,13.07-.51,1.87-3.31,7.99-3.3,9.25,.05,5.13,3.92,11.6,5,17.05,1.38,7.05,1.21,13.49,1.96,20.44,.79,7.36,2.01,13.92,2.39,21.37,1.34-.9,3.07-1.77,3.72-3.14-1.48-8.07-.98-11.08-1.41-18.92-.3-5.43-2.12-9.3-1.89-15.78l.99-2.81c0-1.52-.37-4.24-.54-5.86l-.88-1.87c-.88-6.39-2.7-14.57,1.58-19.56,10.01-11.67,16.68-4.22,16.38,8.24-.1,4.1-.31,8.66-.08,12.76,1.52,6.84,4.71,14.31,4.69,21.43-.02,11.64-1.29,23-1.26,34.72,4.27-1.65,7.71-4.11,11.53-5.57,.86-2.25,3.12-8.02,3.39-10.14,1.31-10.27-.19-11.09,4.26-20.51l1.2-1.9c1.22-2.1,2.16-3.37,4.62-4.08,1.72-.51,3.56-.53,5.3-.05,1.79,1.96,.97,22.35,.8,25.95-.32,6.71-2.54,23.19-6.59,28.34-3.02,3.84-6.99,6.59-9.72,10.72,16.48,13.25,31.53,28.62,37.93,49.35,7.13,23.14-10.81,49.33-27.41,64.24,.25,2.75,1.04,9.41-.86,11.45l-.75,.81c.18,.14,2.12,1.7,2.12,1.7,1.27,3.19,3.39,10.61,2.46,13.74l-.7,.53-.9-.24c-2.74-8.95-3.63-14.05-8.45-22.31-5.35,3.41-10.62,6.81-16.13,9.97-1.01,3.2-2.34,10.59-3.01,12.23l-.64,.25c-1.54-1.68,.68-8.83,1.18-11.7-3.94,1.74-9.29,4.25-13.41,5.27-.68,2.34-1.1,4.58-2.71,6.37l-.75-.03c-.8-1.67-.42-2.85-.18-4.74-3.35,.52-7.72,1.33-11.02,1.45-1.63,.23-2.87,.37-4.47,.82l.29,.39c3.53,.41,5.59,1.21,8.93,2.34-8.12,.54-15.94-1.09-24.02-1.7-4.48-.34-4.06,.66-7.95,1.75-2.2-1.95-3.17-9.42-3.74-12.47-7.41-6.48-11.02-13.31-14.01-22.53-1.73-5.31-1.7-8,.78-12.83-5.23-3.56-9.09-7.44-11.87-13.21-3.79-7.87-9.78-14.23-12.14-22.78-.65-2.36-2.06-5.71-3.1-7.97-4.69-10.12-9.52-20.18-14.47-30.17-2.53,2.49-5.03,5.01-7.51,7.56-2.5,16.31-9.32,30.37-12.31,46.47-1.12,6.04,.11,13.3-1.12,19.39-1.03,5.11-2.95,10.14-3.94,15.27-.67,3.49-1.19,7.03-1.84,10.53,0,0-1.42,1.65-1.42,1.65-.73,3.66-1.5,8.26-2.26,11.81-.96,4.53-1.92,9.12-3.34,13.53-2.29,7.12-4.99,14.05-8.3,20.77-10.7,21.72-23.79,42.66-41.44,59.44-5.83,5.54-12.39,10.2-19.04,14.69-4.59,3.09-9.04,6.32-13.88,9-13.36,7.52-29.8,12.06-45.16,11.56-14.91-.47-33.32-7.05-43.16-18.56-10.97-12.84-21.89-31.3-20.86-48.75,1.39-20.19,11.56-42.52,23.08-58.96,3.46-4.95,9.94-11.37,14.34-15.31,.68-15.95-4.01-39.24-5.85-55.23-2.49-21.64-2.03-39.02-.89-60.58-6.9,11.44-2.91,21.75-6.55,33.79-3.64,12.04-8.91,24.01-16.61,34.01-3.72,4.84-7.69,9.58-11.21,14.57,.22,.46,.44,.92,.65,1.39,8.05,17.67-1.06,30.45-7.32,47.25,1.12,1.8,2.84,4.03,2.82,5.96l-.81,.58-1.06-.28c-.69-1.19-.91-1.8-1.97-2.64-1.05,1.18-2.18,2.44-3.71,2.66-.34-1.54,1.76-5.3,2.54-7-1.23-11.92-4.16-16.27-2.93-29.46-20.53-6.24-34.04-6-46.65-24.53-3.83-5.63-7.19-8.33-10.95-15.05-1.08,2.21-1.98,4.05-2.6,6.44-.88,3.25-.95,6.67-.18,9.96,1.1,4.55,5.1,12.32,7.33,16.86,6.3,12.85,12.68,25.66,20.2,37.84,1.41,2.28,2.08,2.89,1.47,5.26l-.79,.11c-6.59-5.62-26.04-48.9-30.28-58.99-4.02-9.58,3.07-18.62,8.55-25.03,3.7-4.33-1.92-12.55-1.87-17.47,.11-13.21-.61-22.56-4.27-35.49-7.06,6.31-11.95,14.21-17.65,21.62-2.04,2.65-5.42,5.55-8.88,5.62-8.61,.17-9.66-10.76-13.58-14.42-2.98,4.77-.89,15.26-2.3,21.36-1.52,6.55-5.31,12.87-5.84,19.25-.66,8,.99,17.94-.13,25.82-1.07,5.65-4.76,10.58-6.17,16.18-1.68,6.64-.43,13.27-1.46,20.08-.74,4.85-2.93,8.36-5.33,12.55-.21,.36-1.29,6.61-1.53,7.69-.94,1.09-.55,.94-1.75,1.3l-.38-.6c-.85-8.58,5.01-13.1,6.45-19.71,1.41-6.47-.15-16.53,2.55-24.17,1.16-3.29,4.86-10.57,5.24-12.89,1.25-7.77-.69-17.69,.08-25.72,.56-7.71,4.73-13.69,6.15-21.18,1.79-9.46-.75-14.04,2.65-23.41-3-5.11-6.75-12.7-8.71-18.29-4.33-12.39-6.74-25.81-9.72-38.61-.73-3.82-2.11-7.34-2.97-11.14-1.88-8.24,9.31-12.18,12.83-4.55,1.19,2.59,1.87,4.98,2.58,7.76,3.98,15.47,6.67,31.12,13.62,45.62,2.52-5.64,5.06-11.23,7.4-16.96,1.33-3.25,2.94-11.55,4.62-14.03,2.25-.78,6.29-.8,8.79-.93-6.63-10.53-6.77-20.85-9.5-32.31-2.24-8.72-7.29-17.54-5.52-26.82,.85-4.47,2.14-16.24,8.92-14.89,1.37,1,2.07,1.93,3.06,3.27,8.03,10.76,9.14,14.88,5.89,28.2,3.86,4.33,4.6,6.27,5.2,12.06,2.38,1.92,3.79,3.18,5.94,5.36-.03-21.93,1.04-44.19,1.46-66.12,.09-4.87,3.33-14.9,9.49-14.35,2.29,2.16,9.68,15.67,10.02,19.24,.39,4.22-1.3,10.65-1.75,15.03-.24,2.3,1.29,6.5,1.38,8.88,.42,11.25-3.08,14.89,1.87,25.65-1.01-13.19,.14-16.21,2.97-28.72,1.32-4.87,1.29-13.17,2.71-17.62,2.45-7.65,3.59-10.4,2.69-18.7-.3-2.77-.02-14.48,1.98-16.29,3.77-3.42,11.97,1.84,14.14,5.54,2.35,3.16,2.07,7.02,2.07,10.76-.01,8.97-.29,16.79-2.7,25.49-.68,2.44-.42,9.89-.59,12.84-.33,5.48-2.48,16.27,.64,20.77h.77c3.08-3.98,3.54-16.5,4.36-21.49,1.77-10.72,3.53-19.98,7.27-30.17,18.33,9.16,9.1,25.54,11.3,41.22,.22,1.54,.1,3.52,.06,5.08,8.32-4.8,18.81-5.47,27.3-.66,6.26,3.54,5.01,6.37,12.11,3.94-.47-8.2-2.66-58.69,.46-62.91,.92-1.23,2.32-2.02,3.85-2.16,2.55-.23,4.84,1.79,5.04,4.3,.5,6.29,.49,12.72,.63,19.03,.2,11.22,.6,22.44,1.21,33.65,10.71-13.3,6.53-15.17,5.36-29.6-.99-12.24-1.5-24.49-2.82-36.83-1.5-13.97-4.66-32.09-2.74-45.83l.21-7.17c-.08-3.09-.07-5.32,.14-8.4-1.75-4.05-1.74-5.53-1.67-10-3.76-5.56-6.38-22.47-6.23-28.93,.51-.52,2.68-2.32,2.84-2.86,.14-.5-3.13-8-2.58-11.6,.72-4.68,4.18-8.16,5.04-12.66l.06-.34c1.01-5.35-.35-11.4,.75-16.71,.61-2.94,4.5-6.43,5.55-8.9,1.24-2.9,2.02-6.9,3.12-9.88,4.27-11.59,7.06-20.17,17.92-26.85Z"/>
        <path class="cls-1" d="M374.1,93.4h80.22c2.37,1.59,7.64,1.03,10.94,3.24,3.69,2.48,4.58,5.53,6.9,9.2,.35,.53,3.52-.39,5.77,.88,.17,1.17,.01,3.72,.95,4.06,3.19,1.14,4.05,3.74,5.69,6.62,2.01,3.53,4.33,7.27,6.25,10.89,2.62,8.62,7.85,23.4,9.12,31.9,1.95,13.03,7.77,25.84,1.62,37.38,1.21,2.19,2.38,4.43,3.82,6.47-2.02,4.18-4.17,8.48-6.12,12.68,2.94,6.78,3.33,12.53,.58,19.61-.7,1.77-1.5,3.5-2.39,5.18,1.48,5,.38,14.12-.44,19.31-.6,8.93-5.35,21.73-11.49,28.06l-1.25-.71c-1.44-.37-2.4-.91-3.51-.41-2.71,6.25-1.07,10.2-2.41,16.31-1.22,5.55-2.98,11.51-4.43,17.03-1.98,7.52-5.02,10.22-3.19,18.14-15.31,27.8-51.14,59.72-84.31,40.78-.64-.37-1.28-.75-1.91-1.15l16.35-15.67c13.55-2.19,22.83-10.35,30.63-21.15,3.25-4.51,5.55-9.75,8.85-14.14,3.25-4.32,8.57-8.16,12.6-11.79,2.3-2.07,7.51-5.89,7.03-9.33-.2-1.44-1.15-2.83-2.39-3.57-.75-.44-2-.9-2.88-.66-4.49,1.22-59.97,49.62-65.86,55.26-8.56-4.59-11.55-10.49-15.98-18.82-.61-1.15-2.37-4.55-2.69-5.63l-.82,.57c2.55,8.86,10.07,20.54,18.05,25.23-3.63,3.27-7.22,6.58-10.77,9.94-5.85-6.24-6.76-11.11-10.57-18.4-2.06-3.93-4.65-7.24-7.39-10.7-.62-7.56-2.79-16.91-2.88-24.28-.34-25.26-7.04-52.64-5.84-77.42-.2-.06-.76-.46-.97-.6l.21-7.17c-.08-3.09-.07-5.32,.14-8.4-1.75-4.05-1.74-5.53-1.67-10-3.76-5.56-6.38-22.47-6.23-28.93,.51-.52,2.68-2.32,2.84-2.86,.14-.5-3.13-8-2.58-11.6,.72-4.68,4.18-8.16,5.04-12.66l.06-.34c1.01-5.35-.35-11.4,.75-16.71,.61-2.94,4.5-6.43,5.55-8.9,1.24-2.9,2.02-6.9,3.12-9.88,4.27-11.59,7.06-20.17,17.92-26.85Z"/>
        <path class="cls-12" d="M374.1,93.4c7.39-3.2,17.94-6.74,30.94-7.91,22.34-2.02,40.05,3.98,49.27,7.91,6.03-.19,8.9,1.87,10.94,3.24,3.69,2.48,4.58,5.53,6.9,9.2,.35,.53,3.52-.39,5.77,.88,.17,1.17,.01,3.72,.95,4.06,3.19,1.14,4.05,3.74,5.69,6.62,2.01,3.53,4.33,7.27,6.25,10.89,2.62,8.62,7.85,23.4,9.12,31.9,1.95,13.03,7.77,25.84,1.62,37.38,1.21,2.19,2.38,4.43,3.82,6.47-2.02,4.18-4.17,8.48-6.12,12.68,2.94,6.78,3.33,12.53,.58,19.61-.7,1.77-1.5,3.5-2.39,5.18,1.48,5,.38,14.12-.44,19.31-.55-.74-.59-2.49-1.08-3.91-.58-3.82-.89-6.2-2.37-9.77,.73-2.24,1.42-4.72,2.61-6.72-1.63-2.37-3.18-5.58-6.21-5.86-6.78,1.81-11.35,12.01-15.12,16.23l-.43,.47,1.89,5.08c-1.04,1.92-2.09,4.52-2.99,6.56l-2.34-6.6,1.92-7.65c-.75-.89-2.02-2.6-2.15-3.74-1.44-12.22-.07-25.7,.93-37.95-6.79-11.93-8.81-18.7-5.5-31.12,.32-1.19-1.63-8.78-1.3-12.12-4.15-5.37-8.95-18.87-13.55-20.9-1.31,.14-2.29,1.44-3.29,2.43-3.28,.7-2.98-3.21-7.97-.97-2.17-.54-2-.96-3.84-2.82-2.47,.79-1.84,2.79-4.32,3.72-2.11,.79-4.45-.7-6.73-.28-9.96,1.83-12.87,5.29-22.43,.02-1.53,2.32-4.06,5.84-6.88,6.35-5.47,1-5.96-6.05-6.52-9.4-7.01,4.66-10.49,3.61-16.21-2.12l-9.59,4.54c-2.86,6.6-8.42,10.48-9.4,17.75-1.23,9.1-.87,18.04-.48,27.17,.37-.58,.76-1.14,1.17-1.69,2.36-3.2,7.58-7.58,11.15-9.21,6.31-2.88,12.93,3.36,17.68,6.92-.24,.24-.48,.47-.72,.71-2.38,1.45-2.54,7.16-4.67,8.59-3.48,2.33-8.61-4.64-12.24-4.69-2.4,.08-6.62,4.04-8.15,5.65-6.02,6.34-5.18,14.59-4.83,22.69l-2.69,4.01c.19,3.2,.37,7.97-.24,11.08l-.19,5.03c-.2-.06-.76-.46-.97-.6l.21-7.17c-.08-3.09-.07-5.32,.14-8.4-1.75-4.05-1.74-5.53-1.67-10-3.76-5.56-6.38-22.47-6.23-28.93,.51-.52,2.68-2.32,2.84-2.86,.14-.5-3.13-8-2.58-11.6,.72-4.68,4.18-8.16,5.04-12.66l.06-.34c1.01-5.35-.35-11.4,.75-16.71,.61-2.94,4.5-6.43,5.55-8.9,1.24-2.9,2.02-6.9,3.12-9.88,4.27-11.59,7.06-20.17,17.92-26.85Z"/>
        <path class="cls-8" d="M350.13,233.27c-.27-3.33-.66-7.89,.24-11.08,.19,3.2,.37,7.97-.24,11.08Z"/>
        <path class="cls-8" d="M349.31,222.13c1.07,1.7,.55,6.52-.14,8.4-.08-3.09-.07-5.32,.14-8.4Z"/>
        <path class="cls-12" d="M495.93,256.91c.49,1.42,.53,3.16,1.08,3.91-.6,8.93-5.35,21.73-11.49,28.06l-1.25-.71c8.4-10.95,10.72-17.37,11.66-31.26Z"/>
        <path class="cls-8" d="M369.34,333.93c-.69-1.58-.76-1.93-1.03-3.64,.99,.57,1.28,1.83,1.85,3.07l-.82,.57Z"/>
        <path class="cls-12" d="M362.85,290.46c6.21-6.36,11.86-18.99,20.33-21.01,4.29-1.02,6.26,4.84,9.14,7.07,4.77,.81,4.26-6.39,10.31-7.16,3.53-.72,7.54,4.77,9.96,5.66,14.17,5.2,29.54,9.02,21.77,27.91-1,2.44-1.45,8.05-4.73,8.38-3.16-1.82-5.19-7.83-7.59-11.58-6.41,5.21-6.07,8.8-9.42,12.69l-1,.58c-1.04,5.88-7.22,6.27-11.08,7.51-17.18,5.49-14.06,8.2-22.53-7.6-.39-.73-3.86-3.74-5-4.72-.91,1.74-1.42,3.34-3.1,4.1-5.94-.93-7.4-16.91-7.05-21.84Z"/>
        <path class="cls-1" d="M405.28,296.86c3.53,3.99,5.36,4.6,10.45,5.85-1.63,2.49-3.33,4.94-5.08,7.34l-.7,.77-.34,.2c-9.56,5.31-17.32,5-27.42,2.19-2.59-2.95-5.16-6.47-7.57-9.61,4.15-1.52,9.38-4.34,13.5-6.34,2.59,1.74,4.11,2.8,6.91,4.11,3.8-2.03,6.25-2.97,10.26-4.5Z"/>
        <path class="cls-3" d="M409.95,310.82l.7-.77,1.96,2.38-1,.58-1.66-2.19Z"/>
        <path class="cls-1" d="M393.04,282.27c6.97-.13,3.46,2.05,7.73,4.91l.76-.21c.32-.08,.65-.15,.97-.25,1.6-.49,2.61-.29,4.17,.23,6.19,2.07,10.9,6.75,13.81,12.47-1.85,.06-3.95,.24-5.76-.19-3.86-.91-7.55-4.9-11.2-4.64-3.29,.93-5.92,2.28-8.73,4.22-1.7-1.45-3.33-3.09-5.63-3.46-4.45-.72-8.31,2.57-11.72,4.96,1.68-10.88,8.07-11.08,15.13-17.61l.47-.44Z"/>
        <path class="cls-12" d="M418.61,172.17c.41,2.21-1.62,5.87-2.48,7.99,.47-.15,.94-.28,1.41-.43,.4-.13,.79-.27,1.19-.38,2.35-.69,4.86-.18,7.27-.43,7.83-.83,13.43-3.31,20.96,.89,6.34,3.53,8.66,9.22,10.47,15.85-2.19-1.74-4.43-3.27-6.81-4.74-1.02-.64-1.67-1.97-2.34-2.97-4.06,.13-7.89,.71-11.8,1.82-4.78-1.63-9.27-3.26-14.38-3.37-3.82,2.63-6.62,3.52-11.2,4.3,1.45-2.14,3.81-4.87,3.84-7.51-.65-1.66-1.51-1.95-2.95-2.91l6.82-8.1Z"/>
        <path class="cls-12" d="M423.43,208.91c1.19-.07,2.4-.15,3.6-.11,4.58,.13,10.23,4.02,13.24,7.27,1.27,1.38,1.87,2.5,1.79,4.36-.33,.44-.61,.81-1.06,1.14-3.81,2.76-9.69,3.04-14.04,2.14-3.25-.34-7.17-.63-10.03-2.37-1.51-.92-1.84-1.79-2.22-3.48-.04-.15-.07-.31-.1-.47-1.34,.2-2.15,2.66-3.75,3.42l.69-.04-.33,.18-.59-.48c-.13-.97-.21-1.33,.25-2.24,2.25-4.41,8.02-7.85,12.55-9.32Z"/>
        <path class="cls-1" d="M429.81,211c.45,.23,.89,.47,1.33,.72,2.64,1.53,5.85,3.79,6.67,6.86-.29,1.52-.56,1.54-1.7,2.5-2.71,.32-5.3,.11-8-.11,1.53-3.71,2.11-5.96,1.7-9.97Z"/>
        <path class="cls-12" d="M371.01,210.86c2.98-.21,5.81-.21,8.63,.92,2.4,.96,5.05,2.87,5.89,5.41,.41,1.25,.29,1.71-.31,2.82l-1.19,.19c-3.04-1.15-4.25-3.33-5.96-5.92l-4.44,.14c-1.54,1.76,.85,4.22,.74,6.34-.08,1.55-1.03,3.53-1.58,5.01l.37,.71c1.23-.58,2.96-1.65,4.3-1.77,.93-.08,1.12,.25,1.75,.83l-.25,.83c-1.13,1.18-2.35,1.96-3.9,2.45-2.84,.89-7.16,.9-9.78-.65-2.46-1.45-4.44-4.21-5.16-6.95-.5-1.87-.23-3.73,.85-5.35,2.21-3.32,6.41-4.28,10.06-5Z"/>
        <path class="cls-12" d="M480.03,253.04c.99,0,1.82,.05,2.73,.5,3.47,1.68,4.85,7.74,6.05,11.13-2.2,2.33-3.98,3.93-4.24,7.28l-.24,.98c-1.01,.79-1.17,1.01-2.48,1.12-.95-2.19,.36-6.62,.41-9.11,.09-4.49-.99-7.45-2.16-11.62l-.07-.27Z"/>
        <path class="cls-12" d="M374.14,160.76c1.96-.2,3.21,.5,4.91,1.45,1.65,.92,3.51,2.18,4.04,4.08l-.66,.66c-3.97,.97-8.19-.97-11.92-2.22-4.39-.3-5.41,2.17-8.84,2.61-.23-1.18,.3-1.98,.99-2.97,2.06-2.91,8.29-3.11,11.47-3.6Z"/>
        <path class="cls-12" d="M373.78,258.88c1.11,.68,1.89,1.46,2.9,1.26,.71-3.35,2.79-5.23,6.51-4.33,4.5,1.08,7.12,4.38,9.8,7.94l-.68,.88c-1.79-1.13-3.06-2.84-4.46-4.45-1.12,.15-4.5,.87-5.17,.81-1.87-.16-2.29-.84-4.63-.89-.39,1.59,.54,3.7,1.07,5.39-1.07,.92-.47,.73-1.8,.69-2.53-1.63-3.2-4.3-4.04-7.02l.52-.28Z"/>
        <path class="cls-12" d="M424.53,159.26c2.81-.16,6.52-.77,9.11,.41-.75,2.42-5.3,2.81-7.31,4.42-.12,.1-.24,.2-.36,.3-2.07,.23-4.21,.55-6.29,.55-1.42,0-2.67-.31-3.67-1.34l.26-.95c2.35-1.99,5.33-2.67,8.26-3.39Z"/>
        <path class="cls-12" d="M411.17,239.86c4.13,4.68,6.28,9.47,7.4,15.63,1.68,9.17-3.14,8.51-9.76,8.3-1.01-1.21-2.53-3.51-3.77-3.79,.14-.32,.77-.9,1.05-1.19,1.96,1.55,5.73,4.86,7.99,4.23,7.91-2.2-1.03-19.61-2.9-23.19Z"/>
        <path class="cls-12" d="M485.04,242.74c.11,.08,.22,.15,.32,.24,2.89,2.71,5.43,11.78,5.77,15.68-.34-.2-.47-.25-.76-.58-3.49-3.96-5.56-10.16-5.32-15.34Z"/>
        <path class="cls-12" d="M403.98,212.2c-.36,4.52-2.88,9.3-3.57,13.91-.58,3.87,1.13,8.92-.27,12.46-.34-.73-.66-1.48-.86-2.26-1.92-7.44,.74-17.75,4.7-24.11Z"/>
        <path class="cls-12" d="M446.18,220.58l.72-1.35,.49,.24,.56,1.95c-.11,1.37-.12,1.53-.56,2.81-2.69,1.98-5.49,4.1-8.93,2.23l.03-.75c4.63-3.19,4.32,.7,7.7-5.15Z"/>
        <path class="cls-12" d="M397.42,260.31c2.4-5.55,4.31-4.39,8.67-1.5-.28,.29-.91,.87-1.05,1.19-2.45,1.28-2.97,1.32-5.73,1.72-1.08-.39-1.12-.57-1.88-1.41Z"/>
        <path class="cls-4" d="M420.53,199.59c2.23-.06,3.9-.06,5.97,.85-2.25,1.11-6.26,.3-9.09,1.34l-.52,.2c-1.43,.9-2.79,1.73-4.36,2.36l-.43-.31c2.63-2.33,5.07-3.48,8.43-4.44Z"/>
        <path class="cls-12" d="M411.83,226.25c.45,.36,.32,.21,.63,.62,1.23,1.61,2.63,3.65,4.29,4.82,2.2,1.56,4.93,1.15,6.55,3.41-.1,0-.2,.02-.29,.02-2.89,.14-6.46-1.96-8.49-3.91-1.35-1.3-2.66-3.03-2.69-4.96Z"/>
        <path class="cls-12" d="M460.39,316.78c.03,.2,.07,.4,.1,.6,.39,3.28-2.84,8.14-4.77,10.62-.45-3.14,3.13-8.38,4.68-11.22Z"/>
        <path class="cls-12" d="M377.17,244.17c2.73-4.18,5.15-8.91,7.79-12.78-2.32,6.48-2.74,8.57-7.42,13.63l-.38-.85Z"/>
        <path class="cls-8" d="M373.26,259.16c-2.7-4.59,1.18-11.34,3.91-14.99l.38,.85c-3.09,4.32-5.01,8.45-3.77,13.87l-.52,.28Z"/>
        <path class="cls-4" d="M444.91,232.6l.33,.65c-.12,.42-.15,.6-.34,.97-1.4,2.76-6.23,4.31-8.98,5.11-.18-.24-.25-.57-.34-.86,3.83-1.39,6.66-2.7,9.34-5.87Z"/>
        <path class="cls-12" d="M466.11,260.9c.03,.15,.09,.29,.08,.44-.08,3.08-4.21,7.02-6.46,8.8-.1-1.32,5.33-7.74,6.38-9.24Z"/>
        <path class="cls-12" d="M392.98,263.75c2.38,.25,3.27-1.7,4.44-3.44,.77,.84,.8,1.02,1.88,1.41-3.54,.55-1.4,3.65-7,2.91l.68-.88Z"/>
        <path class="cls-1" d="M664.06,378.99c2.42-1.43,5.64-2.05,8.43-2.54,.02,15.63,.7,30.26-3.56,45.56-2.25,8.09-8.47,9.25-12.44,16.42l-15.66-12.36c1.06-2.4,1.73-3.52,3.14-5.76,2.2,1.48,11.26,9.88,11.79,10.02,1.38-2.35-7.28-9.17-9.15-10.71,3.45-1.57,7.2-4.11,10.44-6.16,2.47-10.48,4.59-21.03,6.36-31.65l-1.05-1.15,1.2-1.9,.5,.24Z"/>
        <path class="cls-8" d="M663.56,378.75l.5,.24-.65,2.81-1.05-1.15,1.2-1.9Z"/>
        <path class="cls-1" d="M623.23,343.04c11.37-12.14,14.82-5.58,14.66,7.96-.04,2.65-.11,5.3-.2,7.95-1.31,1.74-2.62,3.17-3.24,5.23l.53,.85c1.6,.31,.96,.32,2.59-.37l1.02-1.41c2,7.16,3.45,14.47,4.37,21.85-6.29-1.94-9.93-1.65-16.39,.07-2.22-6.71-3.03-11.04-3.29-18.16,0-1.52-.37-4.24-.54-5.86,1.66,.59,1.62,.9,2.97,.51-.16-1.7-1.37-2.89-2.55-4.28-.06-4.78-.18-9.56,.06-14.33Z"/>
        <path class="cls-1" d="M586.03,570.63c3.5,2.56,6.58,4.03,10.6,5.54-2.13,1.5-3.4,.29-6.27,1.08-1.19,.17-1.12,.21-2.24-.19-1.28-1.49-1.66-4.42-2.08-6.44Z"/>
        <path class="cls-7" d="M596.63,576.18c7.75,1.79,10.11,1.88,18.11,1.78-1.63,.23-2.87,.37-4.47,.82l.29,.39c-3.8,.21-13.7-1.93-20.2-1.91,2.87-.79,4.14,.41,6.27-1.08Z"/>
        <path class="cls-1" d="M663.13,557.55c1.07-.95,1.76-1.74,3.11-2.18l.34,1.06c-.12,2.1,.23,5.47-.68,6.82l-2.77-5.7Z"/>
        <path class="cls-3" d="M666.59,556.43c.51,2.64,.43,6.55,1.04,8.23l-.75,.81-.96-2.22c.92-1.35,.56-4.72,.68-6.82Z"/>
        <path class="cls-5" d="M529.14,341.72c-14.64-28.71-23.45-53.18-20.52-86.14,.94-14.88,1.98-27.61,13.01-38.81,22.08-22.4,43.46-20.94,62.07,4.45,20.55,28.05,35.87,53.33,34.87,89.35-.86,31.05-12.6,51.37-29.87,75.9,11.21,10.77,23.88,20.37,35.91,29.89,23.99,19,56.54,39.07,67.84,68.98,16.36,43.31-43.77,90.89-82.62,91.13-10.43,.06-20.43-4.09-27.75-11.51-8.65-8.76-20.94-34.68,.26-35.7,14.35,.98,10.21,23.15,25.79,23.57,15.42,.42,31.82-7.96,43.05-18.2,20.58-18.76,30.16-35.71,8.97-59.32-20.61-22.96-45.09-36.9-68.86-55.97-4.98-4.01-11.12-8.47-15.63-12.84-4.27,5.81-10.4,12.57-15.22,17.99-15.67,17.54-32.37,34.14-50.02,49.69-2.44,25.71-6.44,52.16-10.14,77.69-1.56,10.78-3.75,24.55-7.29,34.77-9.17,26.45-25.03,52.11-43.62,72.94-7.16,8.02-15.87,13.83-24.71,19.76-17.71,12.73-38.37,21.49-60.58,19.47-15.01-1.4-31.37-7.99-40.75-20.3-11.21-14.72-20.1-29.63-17.62-48.99,2.5-19.55,12.5-40.71,24.38-56.32,3.72-4.89,9.21-9.91,13.72-13.87l1.23-.81c6.77-5.27,13.47-11.85,21.06-16.16,18.05-10.27,37.47-17.8,55.57-28.07,15.91-9.03,26.33-17.92,40.11-29.54,1.52-1.33,3-2.46,4.59-3.7,.64-.93,5.34-4.53,6.38-5.24,2.45-2.21,4.6-4.17,7.25-6.16,2.2-2.01,6.9-6.68,9.42-7.51l.54,.45c-.2,1.58-.33,3.03-.46,4.61l.47,.42c2.31-2.35,2.54-11.76,2.96-15.44,2.8-24.52,4.57-49.14,5.32-73.8-.96,1.88-1.8,3.98-2.59,5.95-4.77,11.83-10.31,23.08-16.13,34.43l-1.71,3.38c-.79,1.12-1.69,2.55-2.69,3.44-1.93,2.87-4.1,5.58-6.5,8.08-5.28,5.74-7.92,8.12-14.85,12.07,4.99,1.57,15.45,2.32,12.23,9.94-1.52,3.59-5.61,2.4-8.6,1.68-22.69-5.45-42.13-11.97-62.41-23.59l-.99,.58c-1.18-.07-3.06-1.82-4.51-2.47-2.44-1.05-4.52-2.75-6.65-4.34-1.3-1.35-1.87-1.77-2.57-3.53-1.06-1.32-3.55-2.95-4.93-4.07-6.18-5.01-9.86-6.74-17.61-7.16-.67,1.61-1.42,3.25-2.13,4.85,1.37,14.46,5.62,28.49,8.37,42.67,.57,2.94-1.51,5.32-4.37,5.96-1.6,.34-3.26-.04-4.55-1.03-3.45-2.65-9.24-39.93-10.48-46.69-2.69,1.65-5.41,3.47-8.06,5.2-.23,.52-.89,1.88-.98,2.35,1.15,2.5-2.17,11.68-3.06,14.8-1.73-4.16-3-6.59-5.51-10.43-.02-.83-.26-1.08-.63-1.88-23.64,6.86-34.35-10.29-39.55-30.1-6.03-23.01,1.85-47,29.2-45.34,9.47,.57,19.18,7.15,17.07,17.59-.35,1.86-1.96,3.5-3.45,4.59-4.96,1-6.55-5.61-7.93-9.38-1.85-1.39-3.62-1.66-5.85-1.91-11.24-1.28-18.01,6.08-18.54,17.13-.52,10.89,4.62,33.95,18.4,34.68,8.76,.46,21.15-9.61,27.41-15.37-1.65-7.3-1.25-17.28-2-24.87-2.5-25.39-2.88-50.86-2.29-76.35,.06-2.5,1.78-5.13,4.53-4.51,1.58,1.39,2.35,3.94,2.43,6,.93,23.96,.81,47.8,3.83,71.66,.88,7,.99,14.24,2.44,21.19,14.87-13,28.7-26.73,43.69-40.04,18.51-16.45,38.8-33.16,58.05-48.89,.71-.58,2.31-.18,3.12,.11,1.11,1.07,1.15,1.11,1.41,2.67-.53,3.27-14.5,14.66-17.98,17.71-22.49,19.63-44.44,39.87-65.82,60.71-6.63,6.53-12.98,13.58-19.65,20.23,15.96-.88,28.85,11.69,42.84,19.33l2.16-.21,.46,.32,1.19,1.83c1.56,.92,3.07,1.81,4.68,2.65l1.56-.59c1.01,.36,2.3,.77,3.22,1.27,.43,1.32,1.15,1.62,2.33,2.5l.33,.1c4.82-.35,5.26,1.42,7.86,1.9,2.09,.27,4.2,1.21,6.18,1.97l-2.08,1.2,5.28,1.79c.92-.19,1.41-.5,2.27-.89-1.42-5.71-2.14-17.53-3.32-24.25-2.01-11.47-5.11-17.52-9.04-28.36,17.28-8.41,33.2-19.64,44.16-35.63,2.71-3.96,5.16-9.21,8.81-12.15,.65-.52,.95-.22,1.65,0,.46,1.58-2.29,11.18-2.51,13.94-1.21,15.07-2.34,32.89-6.81,47.29-1.95,6.27-9.26,14.72-12.6,21.65-.51,1.76-1.39,2-2.06,5.06,.03,1.55-.1,2.59,.61,3.95,.82-.16,.55,.05,1.03-.44v-2.15c1.16-.93,2.52-2.52,3.56-3.65l1.01,.98c3.54-3.76,5.5-6.97,8.32-11.28l-.1-2.58c.08-1.1,.57-2.79,.85-3.9,1.66-4.27,3.34-8.9,4.47-13.35,.98-3.68,.21-8.33,.88-11.94,1.66-8.98,2.63-16.63,2.45-25.83,.2,.33,.4,.66,.59,1,3.7,6.64,5.97,15.69,3.88,23.17l1.43,.32c5.61-14.64,12.33-28.22,18.97-42.52,2.76-6.67,5.87-13.33,14.56-10.21,2.83,1.02,4.71,4.6,4.4,7.49-1.2,11.18-1.86,22.47-2.14,33.72-.37,14.83-.32,29.73-.97,44.56-.31,7.26-.73,18.55-2.18,25.56,11.1-11.49,21.93-22.5,32.62-34.45,2.66-2.97,11.27-13.76,13.35-15.17-.27-2.57-8-9.35-10.61-13.13-3.88-3.15-12.45-19.2-14.16-24.36-1.52-2.73-3.73-7.84-5.12-10.83Z"/>
        <path class="cls-1" d="M420.82,386.61c17.28-8.41,33.2-19.64,44.16-35.63,2.71-3.96,5.16-9.21,8.81-12.15,.65-.52,.95-.22,1.65,0,.46,1.58-2.29,11.18-2.51,13.94-1.21,15.07-2.34,32.89-6.81,47.29-1.95,6.27-9.26,14.72-12.6,21.65-1.21-9.19,8.06-34.61,10.47-44.68,.87-3.63,9.49-13.17-3.5-14.7-7.14-.52-10.94,12.63-12.63,17.71-5.17,17.84-15.59,42.56-8.15,60.8-1.43-.45-5.31-1.85-6.53-1.63-1.42-5.71-2.14-17.53-3.32-24.25-2.01-11.47-5.11-17.52-9.04-28.36Z"/>
        <path class="cls-11" d="M439.7,440.84c-7.44-18.24,2.97-42.96,8.15-60.8,1.69-5.08,5.49-18.23,12.63-17.71,12.99,1.53,4.36,11.07,3.5,14.7-2.41,10.07-11.67,35.49-10.47,44.68-.51,1.76-1.39,2-2.06,5.06l-.06-.59c-1.15-13.13,7.43-35.03,10.48-48.09,.75-3.21,7.04-10.03,2.72-12.79-10.19-6.51-13.82,11.36-16.06,17.74-3.09,10.78-7.56,22.7-8.92,33.79-1.12,9.15-3.46,24.84,8.57,26.12l-.08,.71c-2.43,1.29-7.07-.37-9.69-1.17-2.51-.78-5.01-1.57-7.51-2.38,.92-.19,1.41-.5,2.27-.89,1.22-.22,5.09,1.18,6.53,1.63Z"/>
        <path class="cls-3" d="M474.52,356.58c.2,.33,.4,.66,.59,1,3.7,6.64,5.97,15.69,3.88,23.17-1.39,2.4-4.15,10.29-5.35,13.48-1.98,5.3-3.92,9.38-6.16,14.49l-.76-1.02c1.66-4.27,3.34-8.9,4.47-13.35,.98-3.68,.21-8.33,.88-11.94,1.66-8.98,2.63-16.63,2.45-25.83Z"/>
        <path class="cls-1" d="M335.55,426.08c1.15,2.5-2.17,11.68-3.06,14.8-1.73-4.16-3-6.59-5.51-10.43,2.24-.95,6.81-2.9,8.58-4.37Z"/>
        <path class="cls-11" d="M478.98,380.75l1.43,.32c-4.91,12.42-7.64,21.45-14.44,33.12l-.1-2.58c.08-1.1,.57-2.79,.85-3.9l.76,1.02c2.24-5.11,4.17-9.2,6.16-14.49,1.19-3.19,3.96-11.08,5.35-13.48Z"/>
        <path class="cls-7" d="M465.87,411.6c.08-1.1,.57-2.79,.85-3.9l.76,1.02c-.5,.96-.99,2-1.61,2.88Z"/>
        <path class="cls-11" d="M380.31,424c5.05,3.04,9.96,6.3,14.72,9.77l-.99,.58c-1.18-.07-3.06-1.82-4.51-2.47-2.44-1.05-4.52-2.75-6.65-4.34-1.3-1.35-1.87-1.77-2.57-3.53Z"/>
        <path class="cls-10" d="M548.42,376.91c5.44,2.11,2.35,5,11.09,8.39,.47,1.18,.11,2.29,.74,3.98l-.64,.73-.58,.03c-.27-2.57-8-9.35-10.61-13.13Z"/>
        <path class="cls-11" d="M413.67,433.26c4.82-.35,5.26,1.42,7.86,1.9,2.09,.27,4.2,1.21,6.18,1.97l-2.08,1.2c-3.39-1.2-8.82-3.4-11.97-5.06Z"/>
        <path class="cls-11" d="M336.53,423.73c-.23,.52-.89,1.88-.98,2.35-1.77,1.47-6.34,3.42-8.58,4.37-.02-.83-.26-1.08-.63-1.88,3.96-1.65,6.42-2.81,10.19-4.85Z"/>
        <path class="cls-10" d="M468.65,433.67c.7-3.18,.65-2.04-.75-5.3l.37-.32,2.35,.67c1.95-2.37,1.95-2.59,4.53-3.11-1.93,2.87-4.1,5.58-6.5,8.08Z"/>
        <path class="cls-10" d="M529.14,341.72c4.74,2.3,4.64,6.27,5.12,10.83-1.52-2.73-3.73-7.84-5.12-10.83Z"/>
        <path class="cls-10" d="M472.77,475.85c2.45-2.21,4.6-4.17,7.25-6.16l.1,1.02c-2.61,3.15-3.29,4.16-7.35,5.14Z"/>
        <path class="cls-11" d="M407.78,429.4c1.01,.36,2.3,.77,3.22,1.27,.43,1.32,1.15,1.62,2.33,2.5-2.87-.77-4.49-1.76-7.11-3.17l1.56-.59Z"/>
        <path class="cls-12" d="M456.65,424.48l1.01,.98-4.57,4.82v-2.15c1.16-.93,2.52-2.52,3.56-3.65Z"/>
        <path class="cls-5" d="M345.06,558.57c1.35,.55,1.45,.55,2.2,1.73l-.51,.57c-1.51-.17-1.68-.47-2.92-1.49l1.23-.81Z"/>
        <path class="cls-11" d="M399.89,425.18l.46,.32,1.19,1.83-3.81-1.94,2.16-.21Z"/>
        <path class="cls-1" d="M370.86,568.03c8.31-6.51,14.72-10.52,24.31-14.83,21.29-9.58,42.87-20.37,61.87-34.04,10.25-7.38,20.04-16.48,29.93-24.45-1.98,13.55-4.14,27.07-6.48,40.57-1.55,8.92-3.44,20.44-5.82,29.11-.8,5.24-3.68,15.77-5.53,20.78-7.99,21.3-21.83,43.24-39.4,60.54-21.33,21.01-60.21,45.83-88,18.89-6.67-6.47-13.83-21.31-12.88-30.46,.87-8.39,3.52-16.64,7.4-24.19,7.81-20.12,17.37-27.32,32.95-40.88l1.65-1.02Z"/>
        <path class="cls-12" d="M370.86,568.03c8.31-6.51,14.72-10.52,24.31-14.83,21.29-9.58,42.87-20.37,61.87-34.04,10.25-7.38,20.04-16.48,29.93-24.45-1.98,13.55-4.14,27.07-6.48,40.57-1.55,8.92-3.44,20.44-5.82,29.11-.29-2.52,.51-4.06-.22-6.46l-.94,3.94c-.78-.58-.68-2.82-1.15-3.85-3.24-7.14-11.92-15.18,2.98-16.7,.91-12.29,.8-23.7,1.57-35.51-2.01,.21-1.74-.15-2.78,.98v1.07c-6.78,5.81-31.55,25.4-39.31,27.29-1.51,.09-4.74,1.67-5.4,2.94-2.06,1.28-4.16,2.71-6.43,3.51l-.63-.27c-3.66,2.41-6.36,3.98-10.36,5.92-9.54,5.67-25.07,10.48-32.81,17.17-1.15,.82-4.22,3.14-5.32,3.6-.87,.6-1.24,.51-2.29,.55-.14,.75-.25,.51,.02,.97-4.72,3.95-14.87,12.08-18.83,16.58-10.51,12.43-19.43,30.91-21.86,46.87-1.36,8.93,5.38,22.84,11.35,29.17,22.43,23.79,56.57,8.04,76.97-9.55,17.05-14.69,26.2-25.51,36.88-44.92,4.14-7.27,9.46-15.46,11.45-23.96l1.58,1.46c-7.99,21.3-21.83,43.24-39.4,60.54-21.33,21.01-60.21,45.83-88,18.89-6.67-6.47-13.83-21.31-12.88-30.46,.87-8.39,3.52-16.64,7.4-24.19,7.81-20.12,17.37-27.32,32.95-40.88l1.65-1.02Z"/>
        <path class="cls-1" d="M484.49,499.41c-3.28,19.95-6.08,38.67-10.04,58.5l-.94,3.94c-.78-.58-.68-2.82-1.15-3.85-3.24-7.14-11.92-15.18,2.98-16.7,.91-12.29,.8-23.7,1.57-35.51,1.83-.85,5.66-4.8,7.58-6.38Z"/>
        <path class="cls-12" d="M429.43,538.06c.66-1.27,3.88-2.84,5.4-2.94-2.56,6.71-17.54,42.85-21.33,46.37h-.79c-.11-.36-.22-.72-.33-1.08,2.1-5.18,6.4-12.79,8.46-17.67-5.39-4.15-6.76-9.15-8.83-15.53,4.01-1.94,6.71-3.51,10.36-5.92l.63,.27c2.27-.8,4.37-2.23,6.43-3.51Z"/>
        <path class="cls-1" d="M429.43,538.06c-.02,3.11-.64,4.53-3.75,5-1.48-.45-1.6-.44-2.68-1.49,2.27-.8,4.37-2.23,6.43-3.51Z"/>
        <path class="cls-12" d="M474.12,507.84v-1.07c1.05-1.13,.78-.77,2.79-.98-.77,11.82-.66,23.23-1.57,35.51-14.91,1.52-6.22,9.56-2.98,16.7,.47,1.03,.37,3.27,1.15,3.85l.94-3.94c.73,2.4-.07,3.94,.22,6.46-.8,5.24-3.68,15.77-5.53,20.78l-1.58-1.46c3.33-10.26,6.59-18.73,.42-28.65-4.6-7.39-5.62-15.85,5.72-16.28,.06-9.95,.79-21.22,.41-30.93Z"/>
        <path class="cls-12" d="M371.61,569.51c-.27-.46-.16-.23-.02-.97,1.05-.04,1.42,.04,2.29-.55l.15,1.09c-.25,2.52-.71,10.52-2.48,12.04-1.43-2.97-.14-8.35,.06-11.61Z"/>
        <path class="cls-3" d="M379.2,564.39c.14,1.79,.49,2.03-.41,3.14l-.53,.08c-2.02,.32-2.43,.4-4.22,1.46l-.15-1.09c1.1-.46,4.17-2.77,5.32-3.6Z"/>
        <path class="cls-12" d="M550.3,223.43c2.57,.22,4.33,.76,6.48,2.2,13.95,9.38,34.36,47.55,37.49,64.2,1.17,6.28,1.41,12.7,1.32,19.08-.35,23.49-8.51,38.89-21.55,57.95-.48,.82-.9,1.28-1.6,1.89l-.92-.29c-3.36-3.82-6.71-7.6-9.53-11.85-8.13-12.27-13.95-27.3-19.98-40.75-8.49-18.95-11.62-38.27-10.33-58.96,.36-5.81,.69-11.9,2.83-17.37,2.81-7.17,8.82-12.98,15.79-16.09Z"/>
        <path class="cls-1" d="M550.47,225.38c1.54,.26,3.03,.52,4.43,1.25,11.8,6.16,31.13,41.96,35.31,55.18,5.13,16.23,4.76,36.64-.47,52.81-1.69,5.22-4.11,10.01-6.64,14.87-.75-.76-1.56-1.63-2.49-2.16-1.71-.97-4.43-1.02-6.27-.44-2.49,.79-4.29,2.32-5.42,4.66-.32,3.69-.14,7.47-.12,11.18-2.25-2.99-4.45-5.98-6.34-9.23-4.48-7.7-8.14-16.15-11.88-24.23-11.52-24.92-18.96-42.73-17.15-70.93,.34-5.26,.5-10.83,1.87-15.93,2.12-7.92,8.28-13.12,15.15-17.02Z"/>
        <path class="cls-1" d="M575.83,349.01c1.51-.1,2.55-.03,3.96,.5,.53,.57,.98,.85,1.11,1.65,.52,3.32-5.05,10.02-6.86,12.72l-1.16,1.74-1.03,.07c-2.02-2.22-1.12-10.98-1.2-14.25l5.18-2.41Z"/>
        <path class="cls-5" d="M478.51,400.22c.63,.47,.98,.8,1.79,.87,.67,.06,1.23,.13,1.9,.26,.37,1.13-.34,2.52-.71,3.6v.43s-.65,.47-.65,.47c-1.08-1.61-1.73-3.79-2.34-5.63Z"/>
        <path class="cls-5" d="M369.21,569.05l-.8-.47-.2-1.05c.59-1.52,.21-1.22,1.36-1.81,1.17,.71,.8,.52,1.29,2.31l-1.65,1.02Z"/>
        <path class="cls-5" d="M556.39,418.91l.58,.54c.08,1.43-.01,2.15-.81,3.35-.65-.39-1.03-.85-1.53-1.41,.24-1.23,.89-1.6,1.76-2.47Z"/>
        <path class="cls-10" d="M523.16,318.72c1.03,.2,2.11,.27,3.16,.39l.7,1.02-1.32,1.01c-1.23-.25-1.79-1.44-2.54-2.42Z"/>
        <path class="cls-5" d="M294.4,390.71c.93,.42,1.29,.4,1.72,1.36l-.95,1.62-.88,.03c-.65-1.16-.21-1.75,.11-3.01Z"/>
        <path class="cls-10" d="M438.58,660.46c.74-.17,.35-.18,1.15,.09l-.96,.47-1.03-.13,.84-.43Z"/>
        <path class="cls-10" d="M592.6,350.22l.63-.14-.54,.86c-.56,.03-.63-.07-1.11-.32l1.02-.41Z"/>
        <path class="cls-5" d="M474.93,500.62l1.8,.06,.39,.52-.5,.65-.76,.06-.93-1.29Z"/>
        <path class="cls-1" d="M591.08,421.49c1.31,.97,7.17,5.13,7.87,6.12,6.72,9.54,9.59,20.77,23.77,17.84l5.12,3.9c-3.91,4.93-4.57,7.05-6.64,12.85,1.4-1.6,2.92-3.71,4.23-5.43,1.23-2.13,2.66-4.04,4.1-6.03,2.09,1.49,3.69,2.53,5.46,4.41,5.23,3.32,12.97,10.08,17.08,14.7-1.05,14.79-10.41,26.69-11.12,42.23-.36,7.92,2.38,15.21,2.98,22.78-7.05,10.06-16.28,13.21-27.25,15.53-23,4.87-16.14-15.55-30.32-22.41-4.7-2.27-10.37,.31-14.38,3.85-10.52-7.19-8.6-9.18-15.07-18.48-6.92-9.95-6.79-13.45-11.27-23.47-4.43-9.91-9.97-22.2-15.03-31.74,5.64-5.61,12.39-12.05,17.69-17.83,3.68,8.18,6.49,16,12.75,22.9,6.45,7.1,12.39,14.43,12.58,24.58l.93,.91c.12-9.06-1.19-12.92-5.88-20.48,4.95-4.81,7.88-9.54,11.73-15.17,5.3-.62,9.83-1.81,15.47-2.26,2.08,8.04,2.37,30.49,.25,39.15-.73,2.98-4.51,8.13-4.76,11.83l.64-.08c12.78-14.24,4.36-45.49,7.2-49.46,4.86-.62,9.56,8.05,14.56,11.59-9.79-18.71-16.7-15.38-34.97-13.36,.64-6.13,1.45-12.66,1.58-18.79,3.27-3.69,6.86-7.09,10.71-10.16Z"/>
        <path class="cls-9" d="M573.64,487.78l.93,.91-.31,1.08-.44-.27-.18-1.72Z"/>
        <path class="cls-12" d="M635.29,521.2c.64,.15,.75,.23,1.25,.67-1.22,6.21-11.31,12.99-16.16,16.6l-.22,.18-.55-.29c.17-1.45,.82-2.61,1.7-3.75,1.05-1.35,12.34-12.06,13.98-13.41Z"/>
        <path class="cls-12" d="M544.54,453.14l.18,.62c-.33,2.97-4.66,8.58-6.31,11.34-.23-.77-.32-1.54-.24-2.34,.4-4.05,3.27-7.28,6.37-9.62Z"/>
        <path class="cls-12" d="M619.59,476.65c-.04,1.41-7.04,12.1-8.42,14.68l-.21-1.15c1.49-5.08,5.18-9.63,8.64-13.53Z"/>
        <path class="cls-1" d="M288.61,311.95c1.3,.67,2.62,1.68,3.61,2.77,5.79,6.44,4.61,17.46,4.23,25.45-1.29-.17-2.78-.48-4.07-.42-1.34,.07-1.79,.57-2.62,1.47l.2,.74c1.23,.24,3.06,.44,4.04,1.26,2.96,2.47,2.48,9.3,2.63,12.83l-1.68,1.29c-2.22,1.7-2.69,2.29-5.49,1.92l-.83,.67c.12,.6,.29,.92,.67,1.39,.13,.16,.27,.33,.41,.49-.97,2.19-2.31,4.2-3.37,6.34-5.97,12.07-2.78,28.3,1.77,40.38,1.56,4.13,3.69,8.06,5.16,12.21,1.71,4.81,1.84,10.18,3.54,15.09,1.28,3.71,3.89,11.48,7.67,13.08,1.19,.51,2.09,.29,3.23-.21,3.79-3.42,2.59-12.21,2.95-16.99,3.86,.17,8-.06,11.68,1.26,4.62,1.66,6.62,5.52,8.56,9.69-1.27,.86-2.39,1.73-3.49,2.81v.9s1.79,1.56,1.79,1.56c-.48,3.65-1.4,7.22-1.76,10.88-.52,5.33-.43,10.91-1.46,16.16-2.09,10.65-9.08,24.33-15.26,33.28-4.89,7.08-9.99,11.05-13.98,19.17,2.18,3.14,2.83,5.96,2.43,9.78-.2,1.9-.81,3.9-2.42,5.08-1.51,1.1-3.4,1.08-5.17,.82-3.58-.52-7.13-2.05-10.61-3.03-10.91-3.07-26.75-6.25-33.84-15.94-4.09-7.55-11.45-12.33-14.64-20.47,2.48-2.51,4.25-4.42,4.75-8.04,.84-6.08-2.3-11.36-3.01-17.27-.99-8.23-.14-16.48-1.49-24.74-.51-3.15-2.62-7.1-2.33-10.09,1.64-.28,3.27-.58,4.9-.9,3.7-.74,5.66-1.58,7.78-4.83l.32-.5c2.21,2.58,4.55,4.6,7.85,5.59,5.15,1.56,9.62-.38,14.1-2.82,.58,.51,1.16,1.04,1.87,1.36,.84,.38,.98,.45,1.83,.14-.11-.68-.21-1.36-.31-2.05-.12-.79-.31-1.67-.25-2.47,.09-1.13,.36-1.81,1.22-2.48,3.01,4.2,4.66,9.81,7.11,14.4,4.33,8.09,14.96,20.14,23.58,23.37,2.57,.96,4.93,1.04,7.45-.2,2.52-1.24,4.75-3.63,5.57-6.33,.65-2.14,.54-6.14-.86-8.02-1.93-2.6-5.76-4.77-8.31-6.86-6.31-5.16-12.86-13.82-15.86-21.37-4.24-10.66-6.68-21.95-8.21-33.29-.8-5.92-.89-11.82-.92-17.79-.02-3.37,.42-7.79-.37-11.05-.25-1.05-.86-2.06-1.39-3,.69-4.49,2.57-8.47,3.41-12.86,.66-3.44,.69-7.06,1.13-10.54,1.08-8.63,2.81-21.38,6.58-29.09Z"/>
        <path class="cls-12" d="M278.6,500.49l.11,.53c-.61,1.93-1.48,3.71-2.76,5.29-5.1,6.3-13.32,9.18-21.1,10.03l-.12-.66c2.01-2.8,8.08-2.53,11.28-4.3,4.84-2.68,8.69-7.03,12.58-10.9Z"/>
        <path class="cls-12" d="M290.08,497.72c.66,.26,.99,.55,1.49,1.06,0,1.76-.17,3.92,.28,5.62,1.09,4.09,5.52,9.55,5.27,13.5-3.16-3.01-5.15-6.89-6.36-11.05-.7-2.39-1.93-6.87-.67-9.12Z"/>
        <path class="cls-9" d="M293.86,481.96c.16,2.06-5.55,10.84-6.78,13.76-.03-.14-.07-.29-.08-.43-.26-4.23,4.47-10,6.86-13.32Z"/>
        <path class="cls-5" d="M261.94,312.06c-.04-3.74-.56-22.78,.55-24.71,1.2-.54,1.43-.46,2.75-.3,13.78,1.71,9.28,15.4,9.85,25.1,.11,1.87-.25,8.3-1.69,9.34-3.83-2.33-4.97-4.55-8.87-6.69l-.54-.29c4.75,9.53,10.48,8.89,8.18,22.35-1.03,6-1.05,17.31-.35,23.51l.39,1.52c6.73,3.57,5.15,8.88,5.45,15.48,.17,3.83-.21,7.75,.04,11.59,.13,7.98,2.66,15.92,3.52,23.73,.58,2.1,1.58,5.34,1.93,7.38,3.77,8.43,5.05,15.66,11.39,23.3,4.97,5.99,9.97,9.82,15.89,14.72,1.79,1.48,2.19,7,.63,8.89-3.56,5.5-8.82,5.14-13.58,1.66-12.9-9.43-23.74-24.49-26.97-40.3-5.73,13.76-20.94,21.04-27.42,2.57-.74-2.12-1.42-3.11-2.94-4.63l-.38-.38c-2.77-9.57-3.9-28.43-4.84-39.01l-.32-.44c-.07-1.47,.04-1.79-.84-2.84l-.56,.04c-1.48-1.42-1.83-3.02-1.98-5-.7-9.1-.17-18.43-.07-27.56,.22-13.54-.76-27.11,1.02-40.58,.81-6.14,1.88-6.99,6.28-11.09,2.21,5.26,6.44,9.89,7.82,15.61,1.42,5.89,.09,11.64-1.62,17.28-1.54-1.15-2.98-2.45-4.86-2.78l-.65,.48c1.4,3.41,4.38,5.14,7.31,7.28,.11,5.16,.41,12.82-.5,17.94-.16,.91-2.28,1.66-3.35,2.2l-.1,.77c10.22,6.47,6.88,18.02,10.38,21.95l.8-.06c1.15-3.47-1.55-17.76-1.38-22.28,.48-7.59,2.76-14.9,4.23-22.41,1.55-7.93,1.27-16.37,5.43-23.35Z"/>
        <path class="cls-1" d="M261.94,312.06c-.04-3.74-.56-22.78,.55-24.71,1.2-.54,1.43-.46,2.75-.3,13.78,1.71,9.28,15.4,9.85,25.1,.11,1.87-.25,8.3-1.69,9.34-3.83-2.33-4.97-4.55-8.87-6.69l-.54-.29c4.75,9.53,10.48,8.89,8.18,22.35-1.03,6-1.05,17.31-.35,23.51-6.88,.12-9.69,4.83-10.75,11.06-1.43,8.37-.58,17.11-1.04,25.56-.2,5.68-1.45,13.53-1.34,18.88-2.32-1.04-7-4.8-9.23-6.48,.21-1.2-1.36-14.25-1.51-16.46-.21-3.07-.26-6.56-.24-9.87-3.95-7.13-11.38-7.38-13.93,.56l-.56,.04c-1.48-1.42-1.83-3.02-1.98-5-.7-9.1-.17-18.43-.07-27.56,.22-13.54-.76-27.11,1.02-40.58,.81-6.14,1.88-6.99,6.28-11.09,2.21,5.26,6.44,9.89,7.82,15.61,1.42,5.89,.09,11.64-1.62,17.28-1.54-1.15-2.98-2.45-4.86-2.78l-.65,.48c1.4,3.41,4.38,5.14,7.31,7.28,.11,5.16,.41,12.82-.5,17.94-.16,.91-2.28,1.66-3.35,2.2l-.1,.77c10.22,6.47,6.88,18.02,10.38,21.95l.8-.06c1.15-3.47-1.55-17.76-1.38-22.28,.48-7.59,2.76-14.9,4.23-22.41,1.55-7.93,1.27-16.37,5.43-23.35Z"/>
        <path class="cls-11" d="M233.75,383.62c2.55-7.94,9.98-7.69,13.93-.56-.02,3.31,.04,6.79,.24,9.87,.15,2.22,1.73,15.26,1.51,16.46,2.23,1.68,6.91,5.44,9.23,6.48,.38,1.63,.21,3.77,.36,5.5-.12,.74-.26,1.85-.47,2.54l-.04,.85c-1.42,2.49-1.54,2.99-3.92,4.66-9.84-13.94-7.18-44.6-10.22-48.23-.82-.98-2.12-1.51-3.38-1.59-1.79-.12-3.39,.56-4.62,1.85-1.48,1.56-1.45,3.45-1.47,5.45l-.32-.44c-.07-1.47,.04-1.79-.84-2.84Z"/>
        <path class="cls-1" d="M249.43,409.39c2.23,1.68,6.91,5.44,9.23,6.48,.38,1.63,.21,3.77,.36,5.5-.12,.74-.26,1.85-.47,2.54l-1.07-.44c-.57,1.4-.62,1.53-1.53,2.71-3.55,.3-5.33-9.22-5.44-12.06-1.31-1.45-1.05-2.72-1.08-4.74Z"/>
        <path class="cls-12" d="M249.43,409.39c2.23,1.68,6.91,5.44,9.23,6.48,.38,1.63,.21,3.77,.36,5.5-.12,.74-.26,1.85-.47,2.54l-1.07-.44c.3-5.28-2.94-6.76-6.97-9.35-1.31-1.45-1.05-2.72-1.08-4.74Z"/>
        <path class="cls-12" d="M271.8,360.37l.39,1.52c-13.65-.28-9.79,22.04-10.23,30.61-.48,9.4-.81,19.71-2.94,28.87-.15-1.73,.02-3.87-.36-5.5-.11-5.35,1.14-13.21,1.34-18.88,.46-8.45-.38-17.2,1.04-25.56,1.06-6.23,3.87-10.94,10.75-11.06Z"/>
        <path class="cls-10" d="M258.52,424.76c.95,2.23-1.02,5.05-2.96,6.21l-.78-.11c-.25-.88-.27-.59-.18-1.45,2.38-1.66,2.5-2.16,3.92-4.66Z"/>
        <path class="cls-10" d="M283.12,420.07c-2.93-.62-2.41-5.26-1.93-7.38,.58,2.1,1.58,5.34,1.93,7.38Z"/>
        <path class="cls-1" d="M358.92,414.66c.67,.01,1.34,.04,2.01,.08,2.66,.19,6.36,.94,8.1,3.11,2.09,2.62,1.29,14.9,1.57,18.85,.41,5.67,1.96,11.21,2.33,16.89,.93,14.05,.32,28.14,.23,42.21-.09,13.57,.54,27.98-1.3,41.43-10.55,5.56-19.72,12.83-28.6,20.73-.11-14.67-2.45-29.38-4.71-43.84-3.89-23.89-4.72-65.52,.11-89.15,1.52-1.21,3.16-2.3,4.74-3.43,1.15,7.3,2.65,14.58,4,21.84,1.11,5.98,1.99,12.26,3.75,18.09,.7,2.31,1.61,4.69,3.91,5.82,1.78,.88,4.24,1.07,6.11,.37,2.8-1.05,3.85-3.54,4.94-6.07-2-12.17-10.35-35.81-7.2-46.93Z"/>
        <path class="cls-1" d="M372.04,422.58l.32-1.77c1.98-.41,4.46,2.59,5.93,4,8.42,15.95,9.31,34.13,13.47,51.28,1.87,7.74,5.91,15.73,8.36,23.27,2.16,6.64,3.5,14.93,4.66,21.83-10.16,4.71-20.25,9.56-30.27,14.56,.7-18.07,1.01-36.15,.93-54.23,.04-15.29,.4-29.26-2.32-44.34-.82-4.54-.13-9.87-1.07-14.58Z"/>
        <path class="cls-3" d="M372.04,422.58l.32-1.77c1.98-.41,4.46,2.59,5.93,4-3.67-.15-1.9-1.74-6.25-2.23Z"/>
        <path class="cls-1" d="M494.18,391.81l2.28-5.62c-.12,1.88-.26,5.79-.53,7.5-1.17,20.9-2.37,43.92-5.85,64.58-2.8,2.49-8.67,7.48-10.87,10.06-.82,1.61-1.68,1.91-3.25,2.84-4.67,2.09-27.06,22.41-33.28,27.33,5.13-13.07,11.1-26.07,12.27-40.11,6.04,1.68,16.44,2.43,12.49-8.43-1.1-3.03-5.87-4.02-8.94-4.8,9.49-7.11,13.55-12.5,20.64-21.65l.11-.21c-.47-.41-.91-.77-1.4-1.16l1.71-3.38,1.85,.2c4.41-8.98,8.67-18.04,12.77-27.17Z"/>
        <path class="cls-1" d="M494.18,391.81l2.28-5.62c-.12,1.88-.26,5.79-.53,7.5-1.17,20.9-2.37,43.92-5.85,64.58-2.8,2.49-8.67,7.48-10.87,10.06-.82,1.61-1.68,1.91-3.25,2.84,1.92-12.66,1.37-25.32,2.49-38.04,.28-3.19,.47-6.43,.69-9.63l.11-.21c-.47-.41-.91-.77-1.4-1.16l1.71-3.38,1.85,.2c4.41-8.98,8.67-18.04,12.77-27.17Z"/>
        <path class="cls-12" d="M479.55,418.78l1.85,.2c.28,13.13-2.52,27.39-1.96,40.73,.11,2.74-.41,5.96-.25,8.63-.82,1.61-1.68,1.91-3.25,2.84,1.92-12.66,1.37-25.32,2.49-38.04,.28-3.19,.47-6.43,.69-9.63l.11-.21c-.47-.41-.91-.77-1.4-1.16l1.71-3.38Z"/>
        <path class="cls-5" d="M169.55,379.07c.54-.05,1.06-.1,1.59-.06,2.27,.17,4.06,1.1,5.08,3.17,2.12,4.28,2.7,10.46,3.84,15.17,4.68,19.29,9.2,39.14,21.87,55.02,8.65-9.27,12.92-21.86,26.96-25.15,2.7-.63,7.69-1.11,10.06,.49,1.54,1.05,2.51,3.01,2.81,4.82,.34,2.07,.05,4.52-1.34,6.17-1.11,1.32-2.59,1.82-4.26,1.93-.13,0-.25,.01-.38,.02-14.5-.12-19.49,18.28-28.46,26.53-1.68,1.55-3.87,2.97-6.26,2.73-2.04-.21-4.38-1.34-5.67-2.93-1.69-2.09-2.63-5.35-4.09-7.74-14.12-23.11-16.3-38.47-22.28-63.98-.78-3.31-3.5-8.5-2.99-11.78,.34-2.19,1.86-3.2,3.53-4.38Z"/>
        <path class="cls-1" d="M331.23,375.91l.41-.35c6.14-5.3,1.19-8.6,4.31-13.39l.94-.4c2.93,2.28,2,7.94,2.37,11.57,.9,8.8,.95,17.92,1.92,26.7-.93,.85-2.44,2.13-3.14,3.11l-.12,.54c-1.61,.29-.95-.07-2.07,1.09-5.61,3.78-13.68,9.92-20.71,9.44l-.32,.33c-1.09-.31-1.34-.17-1.92-.89-12.6-7.07-16.49-28.83-11.64-41.6,4.63-2.56,12.25-7.46,17.55-5.78,4.16,1.32,2.16,4.05,3.33,6.64,.4,.89,2.72,2,3.51,3.65,1.56-.95,3.88-1.42,5.59-.67Z"/>
        <path class="cls-1" d="M331.23,375.91l.41-.35c6.14-5.3,1.19-8.6,4.31-13.39l.94-.4c2.93,2.28,2,7.94,2.37,11.57,.9,8.8,.95,17.92,1.92,26.7-.93,.85-2.44,2.13-3.14,3.11-1.93-2.88-3.6-4.14-6.37-6.15,5.88-8.13,10.48-14.8-.43-21.09Z"/>
        <path class="cls-1" d="M315.14,414.22c3.38-10.43,10.34-23.77,20.71-9.44-5.61,3.78-13.68,9.92-20.71,9.44Z"/>
        <path class="cls-12" d="M325.65,376.58c1.56-.95,3.88-1.42,5.59-.67,10.91,6.29,6.31,12.97,.43,21.09,2.77,2.01,4.44,3.27,6.37,6.15l-.12,.54c-1.61,.29-.95-.07-2.07,1.09-10.37-14.33-17.33-.99-20.71,9.44l-.32,.33c-1.09-.31-1.34-.17-1.92-.89,2.42-8.24,6.38-18.84,16.73-17.54,1.73-2.54,6.09-9.12,6.14-12.09,.06-3.34-7.81-4.73-10.13-7.46Z"/>
        <path class="cls-1" d="M206.56,331.21l1.48,.5c3.07,3.32,6.42,8.9,8.01,13.14,2.22,5.93,.04,11.51-2.45,16.95,1.17,.56,2.43,1.19,3.36,2.11,4.4,4.36,1.35,6.24,1.66,10.64,.09,1.22,5.7,2.5,6.98,3.58,2.23,1.87,6.44,8.49,7.45,11.34,1.58,4.47,1.77,16.63,2.48,22.12,.57,4.46,1.76,8.98,2.16,13.42-3.36-.49-6.04-.41-9.33,.52-.31-1.9-1.4-15.67-2.07-16.04-1.21-.66-2.39,.12-3.65-1.17-3.74-3.82-8.15-10-10.25-14.88-3.03-7.06-3.12-15.19-5-22.6-1.36-5.36-3.74-10.47-4.89-15.87-.68-3.17-.96-6.41-.85-9.65,.17-4.87,1.23-10.66,4.92-14.13Z"/>
        <path class="cls-1" d="M610.66,353.34c6.66,10.18,5.78,23.15,7.06,34.65,.72,6.57,2.03,13.02,2.2,19.64l3.3,2.73,5.03-5.9c-2.52-5.46-2.09-11.32-1.86-17.17,5.84-.73,10.65-1.66,16.37,.14,.02,4.92-.91,10.29-1.58,15.18-.42,.21-.85,.41-1.29,.59l-.4,.16c.1,3.61,1.71,7.7,2.14,11.44-1.09-1.02-2.17-2.07-3.39-2.94-1.72-1.23-4.94-3.6-7.14-3.24l-.19,.82c.56,1.48,.91,2.43,2.29,3.29,2.77,2.05,5.25,4.24,7.75,6.59l-2.6,4.93c-12.86-9.71-25.39-19.74-37.95-29.84,.16-6.39,.47-11.59-2.62-17.4l6.64,.32c1,1.77,1.92,4.1,3.98,4.7l.4-.74c-.26-1.16-.71-2-1.44-2.95-2.42-3.11-4.83-3.61-8.5-4.06,4.32-6.81,8.16-13.77,11.79-20.97Z"/>
        <path class="cls-12" d="M635.03,400c1.04,.12,2.5,.42,3.26,1.18,.75,.74,.7,1.01,.73,2.05-1.47-.06-2.65-.06-3.99-.75-.57-1.23-.42-1.25,0-2.47Z"/>
        <path class="cls-1" d="M575.85,409.22l.74,.68c1.12,3.15,.73,5.59,.17,8.79,1.26,2.13,2.3,4.34,3.36,6.57-1.26,7.19-1.84,14.26-2.4,21.53-.47,6.21-2.08,12.7-7.21,16.84-1.26,1.01-2.66,1.75-4.32,1.46-2.65-.48-4.27-3.85-5.57-5.89,.63-1.66,1.72-4.22,.9-5.93-.81-1.69-4.02-1.37-5.7-1.87-2.71-3.15-4.37-8.4-6.07-12.22,8.78-9.83,17.98-19.56,26.1-29.95Z"/>
        <path class="cls-1" d="M519.64,371.12c8.54-.54,11.15,2.29,17.35,7.44,10.72,.47,12.72,2.99,20.08,10.51-5.98,7.38-12.24,14.44-18.63,21.46l-5.83,6.57c-2.69-3.25-6.25-5.22-9.83-7.35,2.86-3.55,9.24-9.81,9.57-14.39,.09-1.22-.31-2.45-.95-3.48-1.97-3.2-10.53-10.79-13.76-14.34-.03-1.47-.26-3.39,.15-4.79,.33-1.13,.89-1.17,1.84-1.63Z"/>
        <path class="cls-1" d="M383.24,380.01c7.8,3.4,7.05,6.77,17.49,7.01-1.8,8.5-5,24.86-7.99,32.68l-.72,.27-2.07-1.23-14.52-8.89c-3.04-5.78-4.52-10.58-5.14-17.04,4.1-4.46,8.61-8.59,12.96-12.81Z"/>
        <path class="cls-1" d="M217.15,405.86c.29,.15,.13,.04,.42,.42,1.89,2.53,3.77,4.83,6.56,6.39l1.86,13.28c-10.68,5.38-16.54,12.8-23.03,22.51l-.79,.56c-2.73-1.27-5.59-8.59-6.99-11.28,4.62-10.28,8.88-20.03,11.21-31.11,3.56-.4,7.17-.54,10.75-.77Z"/>
        <path class="cls-1" d="M651.81,481.42c.87,1.11,1.35,3.75,1.79,5.17,4.94,16.02,2.16,24.3,4.18,39.33-1.37,1.55-4.59,5.96-6.53,6.35-.87,.17-1.18-.52-2.38-.08,.03,.67,.03,1.18-.13,1.84-.04,.17-.09,.34-.14,.51-.76,.56-1.56,1.07-2.34,1.59l-.69-.2c.27-5.71-1.54-11.63-2.35-17.29-1.75-12.28,3.83-26.08,8.58-37.21Z"/>
        <path class="cls-1" d="M357.36,340.61c.87,1.3,1.8,2.64,2.33,4.13,1.06,2.99,1.32,6.67,1.96,9.8,1.64,8.04,3.82,15.84,4.56,24.04-3.07,3.01-6.3,5.88-9.46,8.8l-3.39,2.89c-1.74-12.03-2.52-24.26-3.9-36.34,3.51-4.05,6.32-8.15,7.89-13.32Z"/>
        <path class="cls-1" d="M414.57,446.17c2.35,.85,6.05,1.73,7.74,3.59,1.9,2.1,1.18,5.59,1.01,8.2-1.94,1.11-4.09,1.8-6.18,2.56-.06,2.4,0,4.97-.39,7.33-.44,2.61-5.03,16.63-6.48,18.51-1.03,.36-1.92,.6-2.99,.22-1.99-.72-3.32-2.45-4.18-4.31-1.43-3.07-2.69-9.59-.71-12.59,.93-1.42,2.75-2.85,3.1-4.54,.71-3.44-.16-6.96,1.82-10.1,2.02-3.2,5.89-4.7,7.13-8.42,.05-.15,.09-.3,.14-.45Z"/>
        <path class="cls-1" d="M517.65,380.41c5.35,3.31,10.61,10.71,13.81,16.06-3.78,4.4-7.4,8.93-10.86,13.59,3.64,2.68,7.32,5.33,10.77,8.26l-2.99,3.01c-3.91,4.3-8.03,8.39-12.34,12.28,1.05-17.71,1.59-35.46,1.61-53.2Z"/>
        <path class="cls-1" d="M653.79,471.49c5.94,4.01,14.99,18.03,16.36,24.82,1.68,8.31-1.96,14.8-6.34,21.49-1.25,2.13-2.97,4.17-4.42,6.18-.56-8.44,.49-17.1-.62-25.45-.77-5.83-3.25-11.34-4.36-17.12-.63-3.24-.57-6.62-.61-9.91Z"/>
        <path class="cls-1" d="M440.76,454.92c3.93,.82,7.86,2.04,11.75,3.08-.28,9.39-3.85,20.92-7.9,29.4l-2.32,3.78c-1.76-4.82-3.08-9.86-4.27-14.84-2.28-9.49-2.39-13.01,2.76-21.41Z"/>
        <path class="cls-1" d="M477.81,338.65c3.99,3.83,6.71,12,11.75,17.1-2.03,4.34-3.98,8.71-5.86,13.12l-1.89,5.2c-.23-6.93-1.62-13.2-5.2-19.17,.05-5.48,.58-10.8,1.19-16.25Z"/>
        <path class="cls-1" d="M436.64,330.57c-.11,1.72-1.7,4.14-2.55,5.62-6.39,11.1-17.72,21.51-30.13,24.89,.02-.3-.06-.62,.07-.89,1.01-2.07,28.93-26.42,32.61-29.62Z"/>
        <path class="cls-1" d="M387.59,445.9c-1.13-6.67-3.8-13.04-4.71-18.38,2.13,1.59,4.21,3.3,6.65,4.34-.3,1.02-.41,2.13-.55,3.2,1.56,3.26,6.17,2.48,9.24,3.97,3.77,1.84,3.3,8.88-1.04,9.6-3.74,.61-6.52-.83-9.59-2.74Z"/>
        <path class="cls-1" d="M289.31,549.42c6.13-3.72,9.03-4.97,12.82-11.09-.73,11.97-3.81,18.14-8.81,28.79-.25,.93-.14,.6-.76,1.41-.6-.95-.37-1.84-.3-3-1.51-6.6-2.51-9.22-2.95-16.11Z"/>
        <path class="cls-7" d="M292.26,565.53l1.06,1.59c-.25,.93-.14,.6-.76,1.41-.6-.95-.37-1.84-.3-3Z"/>
        <path class="cls-1" d="M296.95,423.25c3.58,3.28,6.78,5.6,11.29,7.45,.11,5.1,.61,9.96-1.33,14.79l-1.37,.49c-1.07-.39-1.64-1.04-2.31-1.94-3.74-5.02-7.22-14.52-6.28-20.78Z"/>
        <path class="cls-1" d="M424.53,487.34c.35,0,.69,0,1.04,0,1.82,.04,2.85,.47,4.06,1.87,1.8,2.09,2.32,4.93,2.11,7.61-.24,2.98-1.15,5.37-3.45,7.38-1.26,.09-2.43,.2-3.5-.58-2.73-2-2.94-7.94-3.43-11.07,.83-2.11,1.69-3.51,3.17-5.21Z"/>
        <path class="cls-1" d="M511.94,475.39c2.49-2.22,4.96-4.47,7.39-6.75-2.16,13.23-4.21,18.77-8.78,31.34-.73-1.02-.75-2.63-.91-3.94,.83-6.73,1.86-13.93,2.29-20.65Z"/>
        <path class="cls-1" d="M362.86,349.24l.26-.53c1.2,.86,1.29,1.3,1.98,2.67,3.55,8.22,4.51,11.86,10.19,19.02-2.35,2.06-4.68,4.26-6.98,6.39-.48-7.46-3.87-19.53-5.45-27.55Z"/>
        <path class="cls-6" d="M362.86,349.24l.26-.53c1.2,.86,1.29,1.3,1.98,2.67l-2.24-2.14Z"/>
        <path class="cls-1" d="M578.95,411.63c3.3,2.69,6.58,5.42,9.83,8.18l-3.23,2.43-3.66,3.01c-2.24-4.95-3.17-8.12-2.95-13.62Z"/>
        <path class="cls-1" d="M594.96,380.03c1.12,.98,2.28,1.89,3.48,2.77,.12,2.48,.86,7.43-.38,9.5l-.93-.43c-2.15-2.03-3.87-4.13-5.59-6.53l3.42-5.31Z"/>
        <path class="cls-1" d="M421.53,435.16c.92-2.46,2.06-6.8,5.55-5.55,2.62,.93,4.1,5.7,3.85,8.18-1.04,.28-2.15-.28-3.22-.66-1.99-.76-4.09-1.7-6.18-1.97Z"/>
        <path class="cls-1" d="M415.1,402.84l.89,.53c.63,1.54,1.1,3.1,1.25,4.76,.28,3.36-.7,5.5-2.83,7.99l-.84-.47c-.62-1.31-1.08-2.52-1.23-3.97-.35-3.48,.56-6.18,2.77-8.83Z"/>
        <path class="cls-1" d="M604.19,431.71c5.74,2.81,11.18,8.2,16.52,11.9-1.67-.03-3.47-.04-5.08-.49-5.77-1.61-8.62-6.57-11.43-11.41Z"/>
        <path class="cls-1" d="M364.97,398.29c1.02-1.03,1.6-2.05,2.75-2.11,.47,1.4,.41,1.61,.38,3.12,.36,2.07,.47,4.66,.62,6.8-3.48-1.3-4.79-1.49-8.48-1.97,1.42-1.9,3.21-3.98,4.73-5.84Z"/>
        <path class="cls-3" d="M364.97,398.29c1.02-1.03,1.6-2.05,2.75-2.11,.47,1.4,.41,1.61,.38,3.12-1.34,.74-.65,.6-2.09,.54l-1.04-1.55Z"/>
        <path class="cls-1" d="M399.89,425.18c1.2-3.52,4.69-8.53,8.68-8.89l1.01,.56c.91,4.06-5.98,7.61-9.24,8.65l-.46-.32Z"/>
        <path class="cls-1" d="M453.08,428.13c1.79-5.23,7.93-14.42,11.11-19.43-1.86,8.12-2.02,9.49-7.54,15.78-1.04,1.13-2.4,2.73-3.57,3.65Z"/>
        <path class="cls-1" d="M402.16,390.71c.24,.14,.47,.28,.7,.43,2.53,1.67,5.33,4.48,5.96,7.52-2.14-.53-4.91-1.1-6.25-3.03-1.13-1.63-.78-3.12-.42-4.92Z"/>
        <path class="cls-3" d="M506.92,521.47c.02,8.55,.02,11.35-3,19.62,.46-6.43,1.74-13.49,2.08-19.6l.92-.03Z"/>
        <path class="cls-1" d="M434.09,452.56c1.25,.39,2.31,.68,3.33,1.52,.18,1.62-.51,2.53-1.2,3.95l-.66,.83c-1.08-1.77-1.18-4.27-1.47-6.31Z"/>
        <path class="cls-1" d="M407.78,429.4c.86-2.29,.45-2.26,2.14-3.56l1,.15c1.08,1.77,.78,2.73,.08,4.68-.91-.5-2.2-.91-3.22-1.27Z"/>
        <path class="cls-3" d="M509.65,496.04c.16,1.3,.18,2.92,.91,3.94-.41,1.99-1.58,5.26-2.25,7.31l1.34-11.24Z"/>
        <path class="cls-3" d="M473.65,335.64c1-.13,2-.25,3.01-.19,.88,.05,1.54-.11,2.14,.56l-1.26,.31c-1.46,.33-3.1,1.04-4.52,.55l.63-1.24Z"/>
        <path class="cls-1" d="M557.63,453.43c.79,.14,1.19,.17,1.84,.69,.67,.54,.52,1.87,.59,2.71-.32-.11-.37-.12-.7-.31-1.14-.67-1.35-1.91-1.73-3.09Z"/>
        <path class="cls-3" d="M424.93,449.86c.98,.23,1.89,.55,2.83,.9l.08,.72-.61,.54c-1.34-.3-1.53-1.07-2.31-2.16Z"/>
        <path class="cls-6" d="M506,521.5c.2-1.66,.16-2.45,1.04-3.9,.55,1.18,.11,2.53-.13,3.87l-.92,.03Z"/>
        <path class="cls-8" d="M621.87,359.27l.88,1.87c.17,1.61,.53,4.34,.54,5.86l-.99,2.81c0-3.98-.02-6.55-.43-10.54Z"/>
        <path class="cls-12" d="M688.05,555.06c2.08,.04,4.11,.42,5.97,1.37,2.8,1.44,4.8,4.07,5.74,7.04,1.2,3.78,.88,8.16-1.03,11.65-2.09,3.84-4.99,5.54-9.09,6.7-1.55-.13-3.1-.43-4.53-1.08-2.97-1.33-5.18-4.03-6.26-7.06-1.31-3.67-1.19-7.96,.53-11.47,1.86-3.78,4.77-5.83,8.67-7.15Z"/>
        <path class="cls-1" d="M686.62,557.48c1.42-.18,2.91-.28,4.32,.02,2.51,.53,4.8,2.27,6.06,4.49,1.62,2.82,1.9,6.34,1.12,9.47-.97,3.85-3,5.91-6.34,7.91-1.4,.17-2.87,.23-4.26-.09-2.54-.59-4.75-2.39-6.04-4.63-1.64-2.87-1.95-6.48-1.08-9.64,.99-3.6,3-5.72,6.2-7.52Z"/>
        <path class="cls-12" d="M684.29,560.91c2.37-.08,7.2-.56,9.08,1.08,1.43,1.24-.88,4.6-1.01,6.26-.16,2,2.31,4.11,2.34,6.49-1.11,.87-1.65,.59-3.02,.52-.54-1.71-1.12-3.26-1.93-4.88-.88-.64-.89-.74-1.96-.66-.75,1.21-.4,3.35-.36,4.75-.65,1.07-.56,1.19-1.83,1.52-.12-.12-.26-.22-.36-.35-1.96-2.54-.99-11.35-.94-14.73Z"/>
        <path class="cls-1" d="M687.4,562.77c.85,.19,1.69,.46,2.53,.71,1,1.29,.83,1.79,.89,3.39-1.12,.28-1.81,.35-2.95,.12-.78-1.36-.5-2.67-.47-4.21Z"/>
        <path class="cls-12" d="M275.56,573.74c.58,.02,1.17,.03,1.74,.14,.92,.18,1.69,.66,2.2,1.46,.58,.92,.58,2.06,.26,3.08-.46,1.42-1.24,2.5-2.55,3.19l-.79-.28-.19-1.07c.73-1.19,.83-1.84,.81-3.23-3.04-.03-1.33,2.98-3.41,4.37l-.89-.23-.42-.82c.65-2.85,1.29-4.49,3.25-6.61Z"/>
        <path class="cls-12" d="M268.49,565.71c2.14,.44,4.37,.77,6.35,1.73l.03,1c-1.76,.4-3.5,1-5.25,.33-.91-1.17-.91-1.63-1.14-3.06Z"/>
      </g>
    </g>
  </g>
</svg>