<?xml version="1.0" encoding="UTF-8"?>
<svg id="Capa_2" data-name="Capa 2" xmlns="http://www.w3.org/2000/svg" viewBox="0 0 446 585.79">
  <defs>
    <style>
      .cls-1 {
        fill: #9a061a;
      }
    </style>
  </defs>
  <g id="Capa_1-2" data-name="Capa 1">
    <g>
      <path class="cls-1" d="M59.03,271.85c-1.18-6.62-2.78-13.19-3.47-19.86-2.84-27.36-1.84-54.66,6.02-81.05,7.53-25.28,22.07-46.12,46.46-57.97,7.66-3.72,16.74-5.38,25.33-6.1,11.74-.98,19.45,7.08,20.05,18.93,.08,1.58,.01,3.16,.01,3.83,4.43-3.57,8.63-8.59,14.01-10.99,14.79-6.6,29.92,1.75,34.54,18.38,4.15,14.95,3.05,30.07-.05,44.98-5.07,24.41-13.45,47.52-31.43,65.64-17.93,18.08-40.2,24.9-65.45,22.7,6.76-2.5,13.68-4.62,20.24-7.56,34.26-15.35,53.31-42.58,59.61-78.89,1.81-10.42,.99-21.31,1.18-31.99,.04-2.05-.65-4.18-1.32-6.16-2.09-6.24-5.09-7.12-9.18-2.07-6.3,7.77-12.3,15.84-17.89,24.14-4.61,6.84-8.27,14.3-12.65,21.3-7.49,11.95-20.83,22.98-34.63,28.72,4.03-5.81,7.77-10.93,11.21-16.25,11.41-17.66,16.18-36.92,12.92-57.81-1.52-9.73-6.43-11.87-13.4-5.09-8.39,8.16-15.91,17.33-23.06,26.63-22.92,29.8-32.16,64.76-37.23,101.19-.24,1.71-.36,3.43-.53,5.15l-1.3,.2Z"/>
      <path class="cls-1" d="M359.44,265.04c4.76-4.97,10.48-9.72,14.68-15.56,8.72-12.12,8.4-26.05,6.06-40.05-.72-4.32-1.62-8.63-2.7-12.88-4.1-16.22-21.14-22.26-34.62-12.25-8.7,6.45-13.61,15.24-14.09,26.01-.92,20.62-10.82,35.91-27.12,47.66-1.26,.91-2.62,1.68-4.48,2.87,2.17-9.98,4.34-19.29,6.21-28.66,3.93-19.77,4.71-39.74,3.69-59.85-1.04-20.44,1.84-40.34,9.21-59.48,7.39-19.18,20.1-25.49,40.08-20.16,29.1,7.76,49.1,31.69,51.61,61.75,2.71,32.34-4.85,62.84-17.26,92.29-5.35,12.7-18.8,19.77-31.27,18.31Zm23.56-83.16c-2.1-15.32-4.93-29.02-10.9-41.85-1.98-4.27-4.3-8.52-7.21-12.18-6.79-8.52-14.02-9.01-22.03-1.58-3.05,2.83-5.68,6.26-7.91,9.79-7.98,12.64-8.44,25.85-2.81,39.73,17.43-11.89,34.88-12.74,50.86,6.08Z"/>
      <path class="cls-1" d="M157.81,550.2c.37,.76,.57,1.67,1.13,2.24,10.99,11.4,23.56,14.55,37.91,8.49,14.17-5.98,24.11-15.69,24.45-32.39,.18-8.6-.53-17.33,.78-25.76,2.94-18.81,25.92-33.2,44.46-28.76,6.29,1.5,10.25,5.82,13.99,10.57,10.24,13,23.25,21.48,39.91,23.09,34.18,3.31,64.98-30.56,58.74-64.19-.3-1.62-.21-4.17,.78-5.04,14.31-12.48,23.72-28.09,29.9-45.85,.1-.3,.38-.54,1.25-1.74,0,10.25,.6,19.62-.12,28.88-1.52,19.63-3.81,39.18-11.02,57.77-12.03,31.04-45.68,54.22-78.85,54.23-13.58,0-25-5.16-34.41-14.75-7.71-7.87-16.97-10.77-27.79-9.83-11.61,1.02-19.18,7.75-21.07,19.24-.83,5.03-1.16,10.17-2.39,15.1-4.23,17.01-13.88,30.24-28.93,39.26-14.42,8.64-28.83,5.99-39.5-7-5.46-6.64-8.51-14.39-9.26-23.58Z"/>
      <path class="cls-1" d="M154.7,332.25c-2.22-3.9-4.38-7.83-6.68-11.68-4.51-7.57-10.78-11.84-20.01-10.77-6.54,.75-11.16,4.27-12.72,10.73-2.96,12.24-1.38,24.54,.64,36.67,1.2,7.22,3.27,14.36,5.65,21.3,6.51,18.99,20.53,15.81,31.36,6.98,6.64-5.42,8.4-13.13,8.29-21.37-.02-1.31-.16-2.61-.24-3.92,.49-.1,.97-.2,1.46-.29,1.7,7.6,4.12,15.12,4.91,22.81,1.01,9.9,1.28,19.97,.81,29.91-.44,9.16-5.83,16.05-13.32,21.09-6.72,4.52-14.14,4.66-19.83-1.05-7.4-7.42-14.38-15.43-20.46-23.95-15.42-21.62-29.57-44.06-38.91-69.14-4.37-11.73-5.53-23.97-4.6-36.34,.94-12.4,8.1-20.66,19.64-24.22,20.33-6.27,39-2.4,54.93,11.88,9.44,8.46,13.24,19.7,12.94,32.25-.07,2.98-1.18,5.94-1.82,8.91-.69,.07-1.37,.14-2.06,.21Z"/>
      <path class="cls-1" d="M209.41,135.38c1.75,.45,3.55,.77,5.25,1.36,14.73,5.15,28.82,4.78,42.45-3.78,13.7-8.59,27.79-16.55,41.52-25.1,4.28-2.67,6.77-1.07,9.34,2.09,2.71,3.32,2.66,6.85-.66,9.27-5.36,3.92-11.03,7.49-16.86,10.68-5.38,2.94-11.1,5.29-16.74,7.72-7.79,3.35-14.24,8.35-19.12,15.26-5.58,7.91-5.44,16.13,.39,23.92,6.63,8.86,15.67,13.3,26.6,14.12,1.93,.14,3.88,.14,5.78,.45,1.47,.23,2.88,.84,4.31,1.28-.61,1.32-1.29,2.61-1.8,3.96-.51,1.34-.95,2.73-1.22,4.14-.12,.63,.43,1.36,.42,2.04-.04,3.38-.16,6.76-.25,10.13-2.82-1.4-5.97-2.39-8.42-4.28-13.59-10.49-27.59-10.43-38.39,.45-7.54,7.58-8.68,20.86-2.66,29.68,3.23,4.73,7.8,6.55,13.21,5.98,8.55-.91,17.04-2.37,25.59-3.22,3.14-.31,8.09-.7,9.17,.94,1.53,2.34,.68,6.61,.02,9.88-.59,2.92-1.47,5.94-6.09,5.63-35.42-2.39-69.64,4.12-103.34,14.33-4.78,1.45-9.69,2.48-15.1,2.75,14.77-10.18,29.7-19.79,39.47-35.27,9.83-15.57,14.61-32.57,15.7-50.81,1.09-18.22-2.57-35.59-9.73-52.37,.39-.41,.78-.82,1.17-1.23Z"/>
      <path class="cls-1" d="M242.28,129.56c-23.87-4.87-45.79-13.02-58.65-35.31-16.29-28.22-5.99-64.08,22.63-82.32C224.38,.39,244.21-1.37,264.61,.81c11.11,1.19,22.16,3.85,32.93,6.93,4.77,1.36,9.08,5.04,13.06,8.32,6.61,5.44,12.58,11.66,19.2,17.09,5.28,4.33,5.98,9.44,.94,14.2-6.53,6.16-14.9,8.04-23.08,6.54-12.35-2.26-24.52-5.79-36.48-9.66-3.88-1.25-7.97-4.61-10.04-8.14-5.13-8.73-12.48-10.28-21.58-9.49-22.02,1.89-43.27,21.61-46.37,43.43-1.46,10.26,1.81,19.16,8.31,26.87,10.86,12.88,23.18,24.04,38.63,31.29,.76,.36,1.43,.92,2.14,1.38Zm61.26-96.89c-1.37-7.94-5.72-11.21-12.14-9.8-4.04,.88-3.34,3.31-2.48,5.91,2.23,6.77,5.79,7.76,14.62,3.9Z"/>
      <path class="cls-1" d="M294.27,439.84c-9.2-15.45-22.13-19.54-39.66-12.32,1.49-2.38,1.7-3.1,2.17-3.39,9.48-5.9,11.93-14.78,10.42-25.13-1.96-13.48-.61-26.29,3.89-39.37,7.35-21.34,4.32-43.02-.9-64.47-1.24-5.1-2.33-10.31-2.67-15.53-.43-6.72,2.92-9.52,9.49-7.95,9.75,2.33,17.9-.14,25.38-6.54,16.21-13.87,37.95-8.41,46.02,11.69,5.55,13.82,2.33,27.1-4.55,39.48-9.69,17.44-24.15,27.21-44.85,25.14-3.95-.4-5.57,1.1-7.09,4.3-7.63,16.1-10.37,32.63-5.62,50.17,3.3,12.21,6.03,24.57,8.94,36.88,.42,1.76,.42,3.62,.61,5.43-.53,.53-1.06,1.06-1.59,1.59Zm-7.43-144.81c10.1,9.83,9.55,19.8,3.91,30.19-.25,.46-.43,.96-.6,1.46-1.46,4.51-.13,6.77,4.54,7.29,1.89,.21,3.89,.1,5.76-.24,15.44-2.85,27.12-11.18,34.68-24.89,6.17-11.18,4.42-23.67-3.92-32.11-6.68-6.77-11.53-6.39-16.1,1.99-5.82,10.68-14.19,16.7-28.28,16.31Z"/>
      <path class="cls-1" d="M190.04,373.78c.26,14.25-2.56,27.98-6.3,41.61-1.29,4.71-2.33,9.59-2.68,14.45-.42,5.96,2.56,8.74,8.43,8.99,7.63,.32,14.04-2.78,16.26-9.99,3.29-10.68,5.92-21.67,7.65-32.71,4.19-26.73,7.95-53.54,11.36-80.39,1.48-11.67,1.66-23.5,2.52-35.25,.21-2.79,.56-5.62,1.31-8.31,.37-1.33,1.68-3.13,2.79-3.31,1.11-.18,2.87,1.12,3.71,2.25,4.73,6.37,5.61,13.92,5.96,21.52,.87,18.75-1.68,37.22-5.28,55.53-3.86,19.63-7.63,39.32-12.6,58.68-4.7,18.31-13.53,35.03-23.56,51.02-1.13,1.8-3.69,3.51-5.78,3.78-13.36,1.7-24.24-2.84-31.71-14.26-.94-1.44-1.02-4.56-.09-5.96,16.11-24.14,17.55-51.27,14.9-78.65-2.33-24.1-6.87-47.99-10.44-71.98-.15-1.04-.49-2.12-.37-3.13,.21-1.75,.72-3.47,1.1-5.2,2.43,.54,5.81,.29,7.1,1.8,2.42,2.83,4.56,6.54,5.19,10.16,3.19,18.33,6.04,36.72,8.61,55.15,1.12,7.99,1.28,16.12,1.88,24.18Z"/>
      <path class="cls-1" d="M340.5,448.91c-6.25-.4-11.57-2.5-14.35-7.33-7.26-12.61-15.39-25.06-20.24-38.62-7.01-19.62,1.47-37.02,20.57-48.63,8.21-4.99,16.95-9.44,24.18-15.62,10.79-9.22,16.18-21.49,15.01-36.12-.68-8.49,.1-16.51,7-22.77,5.77-5.23,13.12-5.99,19.17-1.2,7.47,5.91,11.22,13.68,9.07,23.22-2.2,9.75-6.11,19.2-7.46,29.04-1.76,12.84-1.66,25.93-2.5,38.9-.46,7.01-.35,14.22-2.09,20.93-1.73,6.65-4.89,13.11-8.41,19.08-6.6,11.18-13.91,21.95-20.92,32.89-.84,1.31-1.62,2.65-3.36,3.59,3.63-10.14,7.3-20.27,10.87-30.43,2.92-8.29,5.85-16.57,8.5-24.94,.85-2.69,.82-5.65,1.28-9.19-5.52,1.69-9.92,3.26-14.42,4.36-8,1.96-15.66,.61-23.11-2.77-12.69-5.75-22.48,.44-21.82,14.71,.33,6.99,2.53,14.3,5.58,20.66,4.61,9.61,10.7,18.51,16.15,27.71,.41,.69,.74,1.43,1.31,2.54Zm37.81-73.97c1.87-23.01,7.99-45.85,1.48-69.67-4.98,10.31-9.76,19.87-14.24,29.57-8.13,17.62-21.6,29.12-39.79,35.37-1.52,.52-2.97,1.25-4.45,1.88,10.02,2.18,19.39,.85,28.42-2.99,5.17-2.19,9.79-2.14,13.91,2.33,4,4.34,9.11,4.81,14.66,3.5Z"/>
      <path class="cls-1" d="M344.35,462.99c-12.76,9.49-27.08,11.81-41.73,6.7-10.36-3.61-20.23-8.87-29.87-14.2-15.29-8.46-30.47-11.22-46.4-2.03-3.82,2.2-7.94,4.6-11.93,.31-3.1-3.32-3.12-8.35,.68-13.03,7.48-9.19,14.67-18.41,17.2-30.39,1.23-5.84,3.39-11.53,4.2-17.42,3.41-24.88,7.08-49.75,9.44-74.74,1.47-15.51-2.44-30.76-6.26-45.8-.54-2.13-.64-4.37-.95-6.55,.49-.35,.98-.69,1.47-1.04,2.45,2.23,5.28,4.16,7.28,6.73,8.37,10.72,14.79,22.62,15.22,36.41,.88,28.19-.94,56.27-7.54,83.79-1.61,6.71-5.33,12.94-8.27,19.3-2.06,4.46-4.69,8.68-6.65,13.18-2.51,5.79-.9,8.16,5.23,7.07,10.71-1.91,19.03,2.81,27.45,8.28,10.89,7.09,21.83,14.15,33.17,20.47,11.04,6.16,23.04,6.99,35.28,3.61,.98-.27,1.99-.43,2.99-.65Z"/>
      <path class="cls-1" d="M51.21,272.34c.21,15.64,3.44,28.56,12.21,40.24-11.83,2.04-22.09,5.99-29.89,14.35-4.03,4.32-7.87,9.09-10.62,14.28-7.4,13.96-4.92,25.96,7.28,36.24,15.28,12.88,33.5,16.14,52.83,15.28,1.92-.09,3.83-.31,6,.72-5.59,1.2-11.13,2.66-16.76,3.56-14.04,2.24-27.99,1.96-41.71-2.29-24.28-7.51-35.09-26.03-28.75-50.55,6.84-26.48,21.76-48.14,41.59-66.59,1.84-1.71,4.2-2.85,7.83-5.25Z"/>
      <path class="cls-1" d="M400.45,350.88c9.23-14.71,17.94-29.3,23.56-45.57,4.6-13.33,6.91-26.88,4.3-40.95-1.95-10.49-7.17-19.06-15.88-25.22-2.96-2.09-3.32-3.95-2.54-7.38,2.5-11.12,4.45-22.37,6.59-33.58,.42-2.21,.77-4.43,1.48-8.52,3.28,3.39,5.92,5.51,7.81,8.17,10.3,14.46,16.33,30.78,18.86,48.18,6.02,41.45-7.82,75.36-40.07,101.88-1.31,1.07-2.73,2-4.11,2.99Z"/>
    </g>
  </g>
</svg>