<?xml version="1.0" encoding="utf-8"?>
<!-- Generator: Adobe Illustrator 26.5.0, SVG Export Plug-In . SVG Version: 6.00 Build 0)  -->
<svg version="1.1" id="Capa_1" xmlns="http://www.w3.org/2000/svg" xmlns:xlink="http://www.w3.org/1999/xlink" x="0px" y="0px"
	 viewBox="0 0 1920 1080" style="enable-background:new 0 0 1920 1080;" xml:space="preserve">
<style type="text/css">
	.st0{fill:#0F2038;}
	.st1{fill:#FFFFFF;}
	.st2{fill:#F83A27;}
	.st3{fill:#060202;}
	.st4{fill:#FBFBFA;}
	.st5{fill:#474848;}
	.st6{fill:#EFF2EF;}
	.st7{fill:#2C2D2B;}
	.st8{fill:#C2C3C3;}
	.st9{fill:#1C0808;}
	.st10{fill:#F74331;}
	.st11{fill:#727273;}
	.st12{fill:#898786;}
</style>
<rect x="0" class="st0" width="1920" height="1080"/>
<g>
	<g>
		<circle class="st1" cx="478.2" cy="540" r="403.7"/>
		<path class="st2" d="M478.2,951.6C251.3,951.6,66.6,767,66.6,540c0-227,184.7-411.6,411.6-411.6c227,0,411.6,184.7,411.6,411.6
			C889.9,767,705.2,951.6,478.2,951.6z M478.2,144.1C259.9,144.1,82.4,321.7,82.4,540c0,218.3,177.6,395.9,395.9,395.9
			c218.3,0,395.9-177.6,395.9-395.9C874.1,321.7,696.5,144.1,478.2,144.1z"/>
	</g>
	<g>
		<path class="st3" d="M440.7,221.8h80.2c2.4,1.6,7.6,1,10.9,3.2c3.7,2.5,4.6,5.5,6.9,9.2c0.3,0.5,3.5-0.4,5.8,0.9
			c0.2,1.2,0,3.7,1,4.1c3.2,1.1,4.1,3.7,5.7,6.6c2,3.5,4.3,7.3,6.2,10.9c2.6,8.6,7.9,23.4,9.1,31.9c2,13,7.8,25.8,1.6,37.4
			c1.2,2.2,2.4,4.4,3.8,6.5c-2,4.2-4.2,8.5-6.1,12.7c2.9,6.8,3.3,12.5,0.6,19.6c-0.7,1.8-1.5,3.5-2.4,5.2c1.5,5,0.4,14.1-0.4,19.3
			c-0.6,8.9-5.3,21.7-11.5,28.1c-0.3,3.2-0.2,9.1-2.6,11.2c-5.2,4.7-5.1,13.6-7.1,20.1c-1.3,4.2-3.4,9.5-3.8,13.9l0.5,0.3
			c2.3-0.9,7.1-1.3,9,0.5c0.3,2.3-1.2,2.3-1.1,2.8c1.1,4.2,7.7,13.5,10,16.2c4.6-9.3,11.4-33.5,24.2-27.2c2.4,1.2,4.9,3,5.4,6.2
			c-0.3,11.9-2.1,24.7-1.9,36.6c9.8-1.1,12.2-0.4,18.9,6.7c3.2,0.5,6.4,1,9.6,1.3c-9.7-13.5-13.3-21.4-20.2-36.7
			c-4.2-9.3-8.2-16.7-11.8-26.6c-8.9-24.2-9.6-48.3-6.1-73.6c1.9-13.7,10.3-25,21.2-33c8.1-5.9,18.3-9.8,28.5-7.7
			c16.3,3.3,24.5,16.3,33.2,28.5c21.8,30.1,34.5,60.8,27.7,98.3c-0.8,4.4-1.9,8.7-3.1,13.1c-0.5,1.9-3.3,8-3.3,9.3
			c0.1,5.1,3.9,11.6,5,17c1.4,7,1.2,13.5,2,20.4c0.8,7.4,2,13.9,2.4,21.4c1.3-0.9,3.1-1.8,3.7-3.1c-1.5-8.1-1-11.1-1.4-18.9
			c-0.3-5.4-2.1-9.3-1.9-15.8l1-2.8c0-1.5-0.4-4.2-0.5-5.9l-0.9-1.9c-0.9-6.4-2.7-14.6,1.6-19.6c10-11.7,16.7-4.2,16.4,8.2
			c-0.1,4.1-0.3,8.7-0.1,12.8c1.5,6.8,4.7,14.3,4.7,21.4c0,11.6-1.3,23-1.3,34.7c4.3-1.6,7.7-4.1,11.5-5.6c0.9-2.3,3.1-8,3.4-10.1
			c1.3-10.3-0.2-11.1,4.3-20.5l1.2-1.9c1.2-2.1,2.2-3.4,4.6-4.1c1.7-0.5,3.6-0.5,5.3,0c1.8,2,1,22.3,0.8,25.9
			c-0.3,6.7-2.5,23.2-6.6,28.3c-3,3.8-7,6.6-9.7,10.7c16.5,13.2,31.5,28.6,37.9,49.4c7.1,23.1-10.8,49.3-27.4,64.2
			c0.3,2.7,1,9.4-0.9,11.5l-0.8,0.8c0.2,0.1,2.1,1.7,2.1,1.7c1.3,3.2,3.4,10.6,2.5,13.7l-0.7,0.5l-0.9-0.2
			c-2.7-8.9-3.6-14.1-8.5-22.3c-5.4,3.4-10.6,6.8-16.1,10c-1,3.2-2.3,10.6-3,12.2l-0.6,0.3c-1.5-1.7,0.7-8.8,1.2-11.7
			c-3.9,1.7-9.3,4.2-13.4,5.3c-0.7,2.3-1.1,4.6-2.7,6.4l-0.7,0c-0.8-1.7-0.4-2.9-0.2-4.7c-3.4,0.5-7.7,1.3-11,1.4
			c-1.6,0.2-2.9,0.4-4.5,0.8l0.3,0.4c3.5,0.4,5.6,1.2,8.9,2.3c-8.1,0.5-15.9-1.1-24-1.7c-4.5-0.3-4.1,0.7-7.9,1.7
			c-2.2-2-3.2-9.4-3.7-12.5c-7.4-6.5-11-13.3-14-22.5c-1.7-5.3-1.7-8,0.8-12.8c-5.2-3.6-9.1-7.4-11.9-13.2
			c-3.8-7.9-9.8-14.2-12.1-22.8c-0.7-2.4-2.1-5.7-3.1-8c-4.7-10.1-9.5-20.2-14.5-30.2c-2.5,2.5-5,5-7.5,7.6
			c-2.5,16.3-9.3,30.4-12.3,46.5c-1.1,6,0.1,13.3-1.1,19.4c-1,5.1-3,10.1-3.9,15.3c-0.7,3.5-1.2,7-1.8,10.5c0,0-1.4,1.7-1.4,1.7
			c-0.7,3.7-1.5,8.3-2.3,11.8c-1,4.5-1.9,9.1-3.3,13.5c-2.3,7.1-5,14-8.3,20.8c-10.7,21.7-23.8,42.7-41.4,59.4
			c-5.8,5.5-12.4,10.2-19,14.7c-4.6,3.1-9,6.3-13.9,9c-13.4,7.5-29.8,12.1-45.2,11.6c-14.9-0.5-33.3-7.1-43.2-18.6
			c-11-12.8-21.9-31.3-20.9-48.7c1.4-20.2,11.6-42.5,23.1-59c3.5-4.9,9.9-11.4,14.3-15.3c0.7-15.9-4-39.2-5.8-55.2
			c-2.5-21.6-2-39-0.9-60.6c-6.9,11.4-2.9,21.8-6.5,33.8c-3.6,12-8.9,24-16.6,34c-3.7,4.8-7.7,9.6-11.2,14.6
			c0.2,0.5,0.4,0.9,0.7,1.4c8.1,17.7-1.1,30.5-7.3,47.3c1.1,1.8,2.8,4,2.8,6l-0.8,0.6l-1.1-0.3c-0.7-1.2-0.9-1.8-2-2.6
			c-1,1.2-2.2,2.4-3.7,2.7c-0.3-1.5,1.8-5.3,2.5-7c-1.2-11.9-4.2-16.3-2.9-29.5c-20.5-6.2-34-6-46.6-24.5c-3.8-5.6-7.2-8.3-10.9-15
			c-1.1,2.2-2,4.1-2.6,6.4c-0.9,3.3-0.9,6.7-0.2,10c1.1,4.6,5.1,12.3,7.3,16.9c6.3,12.8,12.7,25.7,20.2,37.8
			c1.4,2.3,2.1,2.9,1.5,5.3l-0.8,0.1c-6.6-5.6-26-48.9-30.3-59c-4-9.6,3.1-18.6,8.5-25c3.7-4.3-1.9-12.6-1.9-17.5
			c0.1-13.2-0.6-22.6-4.3-35.5c-7.1,6.3-12,14.2-17.7,21.6c-2,2.6-5.4,5.6-8.9,5.6c-8.6,0.2-9.7-10.8-13.6-14.4
			c-3,4.8-0.9,15.3-2.3,21.4c-1.5,6.5-5.3,12.9-5.8,19.3c-0.7,8,1,17.9-0.1,25.8c-1.1,5.7-4.8,10.6-6.2,16.2
			c-1.7,6.6-0.4,13.3-1.5,20.1c-0.7,4.9-2.9,8.4-5.3,12.5c-0.2,0.4-1.3,6.6-1.5,7.7c-0.9,1.1-0.5,0.9-1.8,1.3l-0.4-0.6
			c-0.8-8.6,5-13.1,6.4-19.7c1.4-6.5-0.1-16.5,2.5-24.2c1.2-3.3,4.9-10.6,5.2-12.9c1.3-7.8-0.7-17.7,0.1-25.7
			c0.6-7.7,4.7-13.7,6.2-21.2c1.8-9.5-0.8-14,2.7-23.4c-3-5.1-6.8-12.7-8.7-18.3c-4.3-12.4-6.7-25.8-9.7-38.6
			c-0.7-3.8-2.1-7.3-3-11.1c-1.9-8.2,9.3-12.2,12.8-4.6c1.2,2.6,1.9,5,2.6,7.8c4,15.5,6.7,31.1,13.6,45.6c2.5-5.6,5.1-11.2,7.4-17
			c1.3-3.2,2.9-11.6,4.6-14c2.3-0.8,6.3-0.8,8.8-0.9c-6.6-10.5-6.8-20.9-9.5-32.3c-2.2-8.7-7.3-17.5-5.5-26.8
			c0.9-4.5,2.1-16.2,8.9-14.9c1.4,1,2.1,1.9,3.1,3.3c8,10.8,9.1,14.9,5.9,28.2c3.9,4.3,4.6,6.3,5.2,12.1c2.4,1.9,3.8,3.2,5.9,5.4
			c0-21.9,1-44.2,1.5-66.1c0.1-4.9,3.3-14.9,9.5-14.3c2.3,2.2,9.7,15.7,10,19.2c0.4,4.2-1.3,10.6-1.8,15c-0.2,2.3,1.3,6.5,1.4,8.9
			c0.4,11.3-3.1,14.9,1.9,25.7c-1-13.2,0.1-16.2,3-28.7c1.3-4.9,1.3-13.2,2.7-17.6c2.4-7.6,3.6-10.4,2.7-18.7
			c-0.3-2.8,0-14.5,2-16.3c3.8-3.4,12,1.8,14.1,5.5c2.4,3.2,2.1,7,2.1,10.8c0,9-0.3,16.8-2.7,25.5c-0.7,2.4-0.4,9.9-0.6,12.8
			c-0.3,5.5-2.5,16.3,0.6,20.8l0.8,0c3.1-4,3.5-16.5,4.4-21.5c1.8-10.7,3.5-20,7.3-30.2c18.3,9.2,9.1,25.5,11.3,41.2
			c0.2,1.5,0.1,3.5,0.1,5.1c8.3-4.8,18.8-5.5,27.3-0.7c6.3,3.5,5,6.4,12.1,3.9c-0.5-8.2-2.7-58.7,0.5-62.9c0.9-1.2,2.3-2,3.9-2.2
			c2.5-0.2,4.8,1.8,5,4.3c0.5,6.3,0.5,12.7,0.6,19c0.2,11.2,0.6,22.4,1.2,33.6c10.7-13.3,6.5-15.2,5.4-29.6
			c-1-12.2-1.5-24.5-2.8-36.8c-1.5-14-4.7-32.1-2.7-45.8l0.2-7.2c-0.1-3.1-0.1-5.3,0.1-8.4c-1.7-4.1-1.7-5.5-1.7-10
			c-3.8-5.6-6.4-22.5-6.2-28.9c0.5-0.5,2.7-2.3,2.8-2.9c0.1-0.5-3.1-8-2.6-11.6c0.7-4.7,4.2-8.2,5-12.7l0.1-0.3
			c1-5.4-0.4-11.4,0.7-16.7c0.6-2.9,4.5-6.4,5.6-8.9c1.2-2.9,2-6.9,3.1-9.9C427.1,237,429.8,228.5,440.7,221.8z"/>
		<path class="st4" d="M440.7,221.8h80.2c2.4,1.6,7.6,1,10.9,3.2c3.7,2.5,4.6,5.5,6.9,9.2c0.3,0.5,3.5-0.4,5.8,0.9
			c0.2,1.2,0,3.7,1,4.1c3.2,1.1,4.1,3.7,5.7,6.6c2,3.5,4.3,7.3,6.2,10.9c2.6,8.6,7.9,23.4,9.1,31.9c2,13,7.8,25.8,1.6,37.4
			c1.2,2.2,2.4,4.4,3.8,6.5c-2,4.2-4.2,8.5-6.1,12.7c2.9,6.8,3.3,12.5,0.6,19.6c-0.7,1.8-1.5,3.5-2.4,5.2c1.5,5,0.4,14.1-0.4,19.3
			c-0.6,8.9-5.3,21.7-11.5,28.1l-1.2-0.7c-1.4-0.4-2.4-0.9-3.5-0.4c-2.7,6.2-1.1,10.2-2.4,16.3c-1.2,5.5-3,11.5-4.4,17
			c-2,7.5-5,10.2-3.2,18.1c-15.3,27.8-51.1,59.7-84.3,40.8c-0.6-0.4-1.3-0.7-1.9-1.1l16.3-15.7c13.5-2.2,22.8-10.3,30.6-21.2
			c3.3-4.5,5.5-9.7,8.9-14.1c3.3-4.3,8.6-8.2,12.6-11.8c2.3-2.1,7.5-5.9,7-9.3c-0.2-1.4-1.1-2.8-2.4-3.6c-0.8-0.4-2-0.9-2.9-0.7
			c-4.5,1.2-60,49.6-65.9,55.3c-8.6-4.6-11.5-10.5-16-18.8c-0.6-1.2-2.4-4.6-2.7-5.6l-0.8,0.6c2.6,8.9,10.1,20.5,18,25.2
			c-3.6,3.3-7.2,6.6-10.8,9.9c-5.9-6.2-6.8-11.1-10.6-18.4c-2.1-3.9-4.7-7.2-7.4-10.7c-0.6-7.6-2.8-16.9-2.9-24.3
			c-0.3-25.3-7-52.6-5.8-77.4c-0.2-0.1-0.8-0.5-1-0.6l0.2-7.2c-0.1-3.1-0.1-5.3,0.1-8.4c-1.7-4.1-1.7-5.5-1.7-10
			c-3.8-5.6-6.4-22.5-6.2-28.9c0.5-0.5,2.7-2.3,2.8-2.9c0.1-0.5-3.1-8-2.6-11.6c0.7-4.7,4.2-8.2,5-12.7l0.1-0.3
			c1-5.4-0.4-11.4,0.7-16.7c0.6-2.9,4.5-6.4,5.6-8.9c1.2-2.9,2-6.9,3.1-9.9C427.1,237,429.8,228.5,440.7,221.8z"/>
		<path class="st3" d="M440.7,221.8c7.4-3.2,17.9-6.7,30.9-7.9c22.3-2,40,4,49.3,7.9c6-0.2,8.9,1.9,10.9,3.2
			c3.7,2.5,4.6,5.5,6.9,9.2c0.3,0.5,3.5-0.4,5.8,0.9c0.2,1.2,0,3.7,1,4.1c3.2,1.1,4.1,3.7,5.7,6.6c2,3.5,4.3,7.3,6.2,10.9
			c2.6,8.6,7.9,23.4,9.1,31.9c2,13,7.8,25.8,1.6,37.4c1.2,2.2,2.4,4.4,3.8,6.5c-2,4.2-4.2,8.5-6.1,12.7c2.9,6.8,3.3,12.5,0.6,19.6
			c-0.7,1.8-1.5,3.5-2.4,5.2c1.5,5,0.4,14.1-0.4,19.3c-0.5-0.7-0.6-2.5-1.1-3.9c-0.6-3.8-0.9-6.2-2.4-9.8c0.7-2.2,1.4-4.7,2.6-6.7
			c-1.6-2.4-3.2-5.6-6.2-5.9c-6.8,1.8-11.4,12-15.1,16.2l-0.4,0.5l1.9,5.1c-1,1.9-2.1,4.5-3,6.6l-2.3-6.6l1.9-7.6
			c-0.8-0.9-2-2.6-2.2-3.7c-1.4-12.2-0.1-25.7,0.9-37.9c-6.8-11.9-8.8-18.7-5.5-31.1c0.3-1.2-1.6-8.8-1.3-12.1
			c-4.1-5.4-9-18.9-13.5-20.9c-1.3,0.1-2.3,1.4-3.3,2.4c-3.3,0.7-3-3.2-8-1c-2.2-0.5-2-1-3.8-2.8c-2.5,0.8-1.8,2.8-4.3,3.7
			c-2.1,0.8-4.4-0.7-6.7-0.3c-10,1.8-12.9,5.3-22.4,0c-1.5,2.3-4.1,5.8-6.9,6.4c-5.5,1-6-6-6.5-9.4c-7,4.7-10.5,3.6-16.2-2.1
			l-9.6,4.5c-2.9,6.6-8.4,10.5-9.4,17.7c-1.2,9.1-0.9,18-0.5,27.2c0.4-0.6,0.8-1.1,1.2-1.7c2.4-3.2,7.6-7.6,11.2-9.2
			c6.3-2.9,12.9,3.4,17.7,6.9c-0.2,0.2-0.5,0.5-0.7,0.7c-2.4,1.4-2.5,7.2-4.7,8.6c-3.5,2.3-8.6-4.6-12.2-4.7c-2.4,0.1-6.6,4-8.2,5.6
			c-6,6.3-5.2,14.6-4.8,22.7l-2.7,4c0.2,3.2,0.4,8-0.2,11.1l-0.2,5c-0.2-0.1-0.8-0.5-1-0.6l0.2-7.2c-0.1-3.1-0.1-5.3,0.1-8.4
			c-1.7-4.1-1.7-5.5-1.7-10c-3.8-5.6-6.4-22.5-6.2-28.9c0.5-0.5,2.7-2.3,2.8-2.9c0.1-0.5-3.1-8-2.6-11.6c0.7-4.7,4.2-8.2,5-12.7
			l0.1-0.3c1-5.4-0.4-11.4,0.7-16.7c0.6-2.9,4.5-6.4,5.6-8.9c1.2-2.9,2-6.9,3.1-9.9C427.1,237,429.8,228.5,440.7,221.8z"/>
		<path class="st5" d="M416.7,361.6c-0.3-3.3-0.7-7.9,0.2-11.1C417.1,353.8,417.3,358.5,416.7,361.6z"/>
		<path class="st5" d="M415.9,350.5c1.1,1.7,0.5,6.5-0.1,8.4C415.7,355.8,415.7,353.6,415.9,350.5z"/>
		<path class="st3" d="M562.5,385.3c0.5,1.4,0.5,3.2,1.1,3.9c-0.6,8.9-5.3,21.7-11.5,28.1l-1.2-0.7
			C559.3,405.6,561.6,399.2,562.5,385.3z"/>
		<path class="st5" d="M435.9,462.3c-0.7-1.6-0.8-1.9-1-3.6c1,0.6,1.3,1.8,1.9,3.1L435.9,462.3z"/>
		<path class="st3" d="M429.4,418.8c6.2-6.4,11.9-19,20.3-21c4.3-1,6.3,4.8,9.1,7.1c4.8,0.8,4.3-6.4,10.3-7.2
			c3.5-0.7,7.5,4.8,10,5.7c14.2,5.2,29.5,9,21.8,27.9c-1,2.4-1.4,8.1-4.7,8.4c-3.2-1.8-5.2-7.8-7.6-11.6c-6.4,5.2-6.1,8.8-9.4,12.7
			l-1,0.6c-1,5.9-7.2,6.3-11.1,7.5c-17.2,5.5-14.1,8.2-22.5-7.6c-0.4-0.7-3.9-3.7-5-4.7c-0.9,1.7-1.4,3.3-3.1,4.1
			C430.6,439.7,429.1,423.7,429.4,418.8z"/>
		<path class="st4" d="M471.9,425.2c3.5,4,5.4,4.6,10.4,5.8c-1.6,2.5-3.3,4.9-5.1,7.3l-0.7,0.8l-0.3,0.2c-9.6,5.3-17.3,5-27.4,2.2
			c-2.6-2.9-5.2-6.5-7.6-9.6c4.2-1.5,9.4-4.3,13.5-6.3c2.6,1.7,4.1,2.8,6.9,4.1C465.4,427.7,467.9,426.8,471.9,425.2z"/>
		<path class="st6" d="M476.5,439.2l0.7-0.8l2,2.4l-1,0.6L476.5,439.2z"/>
		<path class="st4" d="M459.6,410.6c7-0.1,3.5,2.1,7.7,4.9l0.8-0.2c0.3-0.1,0.6-0.2,1-0.3c1.6-0.5,2.6-0.3,4.2,0.2
			c6.2,2.1,10.9,6.8,13.8,12.5c-1.9,0.1-4,0.2-5.8-0.2c-3.9-0.9-7.6-4.9-11.2-4.6c-3.3,0.9-5.9,2.3-8.7,4.2
			c-1.7-1.5-3.3-3.1-5.6-3.5c-4.4-0.7-8.3,2.6-11.7,5c1.7-10.9,8.1-11.1,15.1-17.6L459.6,410.6z"/>
		<path class="st3" d="M485.2,300.5c0.4,2.2-1.6,5.9-2.5,8c0.5-0.2,0.9-0.3,1.4-0.4c0.4-0.1,0.8-0.3,1.2-0.4
			c2.4-0.7,4.9-0.2,7.3-0.4c7.8-0.8,13.4-3.3,21,0.9c6.3,3.5,8.7,9.2,10.5,15.8c-2.2-1.7-4.4-3.3-6.8-4.7c-1-0.6-1.7-2-2.3-3
			c-4.1,0.1-7.9,0.7-11.8,1.8c-4.8-1.6-9.3-3.3-14.4-3.4c-3.8,2.6-6.6,3.5-11.2,4.3c1.4-2.1,3.8-4.9,3.8-7.5c-0.6-1.7-1.5-2-3-2.9
			L485.2,300.5z"/>
		<path class="st3" d="M490,337.3c1.2-0.1,2.4-0.1,3.6-0.1c4.6,0.1,10.2,4,13.2,7.3c1.3,1.4,1.9,2.5,1.8,4.4
			c-0.3,0.4-0.6,0.8-1.1,1.1c-3.8,2.8-9.7,3-14,2.1c-3.2-0.3-7.2-0.6-10-2.4c-1.5-0.9-1.8-1.8-2.2-3.5c0-0.2-0.1-0.3-0.1-0.5
			c-1.3,0.2-2.2,2.7-3.8,3.4l0.7,0l-0.3,0.2l-0.6-0.5c-0.1-1-0.2-1.3,0.3-2.2C479.7,342.2,485.5,338.7,490,337.3z"/>
		<path class="st4" d="M496.4,339.4c0.4,0.2,0.9,0.5,1.3,0.7c2.6,1.5,5.9,3.8,6.7,6.9c-0.3,1.5-0.6,1.5-1.7,2.5
			c-2.7,0.3-5.3,0.1-8-0.1C496.2,345.6,496.8,343.4,496.4,339.4z"/>
		<path class="st3" d="M437.6,339.2c3-0.2,5.8-0.2,8.6,0.9c2.4,1,5,2.9,5.9,5.4c0.4,1.2,0.3,1.7-0.3,2.8l-1.2,0.2
			c-3-1.2-4.3-3.3-6-5.9l-4.4,0.1c-1.5,1.8,0.8,4.2,0.7,6.3c-0.1,1.6-1,3.5-1.6,5l0.4,0.7c1.2-0.6,3-1.7,4.3-1.8
			c0.9-0.1,1.1,0.3,1.7,0.8l-0.3,0.8c-1.1,1.2-2.3,2-3.9,2.5c-2.8,0.9-7.2,0.9-9.8-0.7c-2.5-1.5-4.4-4.2-5.2-7
			c-0.5-1.9-0.2-3.7,0.8-5.4C429.7,340.9,434,339.9,437.6,339.2z"/>
		<path class="st3" d="M546.6,381.4c1,0,1.8,0.1,2.7,0.5c3.5,1.7,4.8,7.7,6,11.1c-2.2,2.3-4,3.9-4.2,7.3l-0.2,1
			c-1,0.8-1.2,1-2.5,1.1c-1-2.2,0.4-6.6,0.4-9.1c0.1-4.5-1-7.5-2.2-11.6L546.6,381.4z"/>
		<path class="st3" d="M440.7,289.1c2-0.2,3.2,0.5,4.9,1.4c1.6,0.9,3.5,2.2,4,4.1l-0.7,0.7c-4,1-8.2-1-11.9-2.2
			c-4.4-0.3-5.4,2.2-8.8,2.6c-0.2-1.2,0.3-2,1-3C431.3,289.8,437.6,289.6,440.7,289.1z"/>
		<path class="st3" d="M440.4,387.2c1.1,0.7,1.9,1.5,2.9,1.3c0.7-3.4,2.8-5.2,6.5-4.3c4.5,1.1,7.1,4.4,9.8,7.9l-0.7,0.9
			c-1.8-1.1-3.1-2.8-4.5-4.5c-1.1,0.2-4.5,0.9-5.2,0.8c-1.9-0.2-2.3-0.8-4.6-0.9c-0.4,1.6,0.5,3.7,1.1,5.4c-1.1,0.9-0.5,0.7-1.8,0.7
			c-2.5-1.6-3.2-4.3-4-7L440.4,387.2z"/>
		<path class="st3" d="M491.1,287.6c2.8-0.2,6.5-0.8,9.1,0.4c-0.7,2.4-5.3,2.8-7.3,4.4c-0.1,0.1-0.2,0.2-0.4,0.3
			c-2.1,0.2-4.2,0.5-6.3,0.5c-1.4,0-2.7-0.3-3.7-1.3l0.3-0.9C485.2,289,488.2,288.3,491.1,287.6z"/>
		<path class="st3" d="M477.8,368.2c4.1,4.7,6.3,9.5,7.4,15.6c1.7,9.2-3.1,8.5-9.8,8.3c-1-1.2-2.5-3.5-3.8-3.8
			c0.1-0.3,0.8-0.9,1-1.2c2,1.5,5.7,4.9,8,4.2C488.6,389.2,479.6,371.8,477.8,368.2z"/>
		<path class="st3" d="M551.6,371.1c0.1,0.1,0.2,0.1,0.3,0.2c2.9,2.7,5.4,11.8,5.8,15.7c-0.3-0.2-0.5-0.2-0.8-0.6
			C553.5,382.5,551.4,376.3,551.6,371.1z"/>
		<path class="st3" d="M470.6,340.6c-0.4,4.5-2.9,9.3-3.6,13.9c-0.6,3.9,1.1,8.9-0.3,12.5c-0.3-0.7-0.7-1.5-0.9-2.3
			C464,357.2,466.6,346.9,470.6,340.6z"/>
		<path class="st3" d="M512.8,348.9l0.7-1.4l0.5,0.2l0.6,2c-0.1,1.4-0.1,1.5-0.6,2.8c-2.7,2-5.5,4.1-8.9,2.2l0-0.7
			C509.7,350.9,509.4,354.8,512.8,348.9z"/>
		<path class="st3" d="M464,388.7c2.4-5.5,4.3-4.4,8.7-1.5c-0.3,0.3-0.9,0.9-1,1.2c-2.4,1.3-3,1.3-5.7,1.7
			C464.8,389.7,464.8,389.5,464,388.7z"/>
		<path class="st7" d="M487.1,328c2.2-0.1,3.9-0.1,6,0.8c-2.2,1.1-6.3,0.3-9.1,1.3l-0.5,0.2c-1.4,0.9-2.8,1.7-4.4,2.4l-0.4-0.3
			C481.3,330.1,483.8,328.9,487.1,328z"/>
		<path class="st3" d="M478.4,354.6c0.5,0.4,0.3,0.2,0.6,0.6c1.2,1.6,2.6,3.6,4.3,4.8c2.2,1.6,4.9,1.2,6.6,3.4c-0.1,0-0.2,0-0.3,0
			c-2.9,0.1-6.5-2-8.5-3.9C479.8,358.3,478.4,356.5,478.4,354.6z"/>
		<path class="st3" d="M527,445.1c0,0.2,0.1,0.4,0.1,0.6c0.4,3.3-2.8,8.1-4.8,10.6C521.9,453.2,525.4,448,527,445.1z"/>
		<path class="st3" d="M443.8,372.5c2.7-4.2,5.1-8.9,7.8-12.8c-2.3,6.5-2.7,8.6-7.4,13.6L443.8,372.5z"/>
		<path class="st5" d="M439.9,387.5c-2.7-4.6,1.2-11.3,3.9-15l0.4,0.8c-3.1,4.3-5,8.4-3.8,13.9L439.9,387.5z"/>
		<path class="st7" d="M511.5,361l0.3,0.7c-0.1,0.4-0.2,0.6-0.3,1c-1.4,2.8-6.2,4.3-9,5.1c-0.2-0.2-0.2-0.6-0.3-0.9
			C506,365.4,508.8,364.1,511.5,361z"/>
		<path class="st3" d="M532.7,389.3c0,0.1,0.1,0.3,0.1,0.4c-0.1,3.1-4.2,7-6.5,8.8C526.2,397.2,531.7,390.8,532.7,389.3z"/>
		<path class="st3" d="M459.6,392.1c2.4,0.3,3.3-1.7,4.4-3.4c0.8,0.8,0.8,1,1.9,1.4c-3.5,0.6-1.4,3.7-7,2.9L459.6,392.1z"/>
		<path class="st4" d="M730.7,507.4c2.4-1.4,5.6-2,8.4-2.5c0,15.6,0.7,30.3-3.6,45.6c-2.3,8.1-8.5,9.3-12.4,16.4l-15.7-12.4
			c1.1-2.4,1.7-3.5,3.1-5.8c2.2,1.5,11.3,9.9,11.8,10c1.4-2.3-7.3-9.2-9.2-10.7c3.4-1.6,7.2-4.1,10.4-6.2c2.5-10.5,4.6-21,6.4-31.7
			l-1-1.1l1.2-1.9L730.7,507.4z"/>
		<path class="st5" d="M730.2,507.1l0.5,0.2l-0.7,2.8l-1-1.1L730.2,507.1z"/>
		<path class="st4" d="M689.8,471.4c11.4-12.1,14.8-5.6,14.7,8c0,2.6-0.1,5.3-0.2,7.9c-1.3,1.7-2.6,3.2-3.2,5.2l0.5,0.9
			c1.6,0.3,1,0.3,2.6-0.4l1-1.4c2,7.2,3.5,14.5,4.4,21.8c-6.3-1.9-9.9-1.7-16.4,0.1c-2.2-6.7-3-11-3.3-18.2c0-1.5-0.4-4.2-0.5-5.9
			c1.7,0.6,1.6,0.9,3,0.5c-0.2-1.7-1.4-2.9-2.5-4.3C689.7,481,689.6,476.2,689.8,471.4z"/>
		<path class="st4" d="M652.6,699c3.5,2.6,6.6,4,10.6,5.5c-2.1,1.5-3.4,0.3-6.3,1.1c-1.2,0.2-1.1,0.2-2.2-0.2
			C653.4,704,653,701,652.6,699z"/>
		<path class="st8" d="M663.2,704.5c7.8,1.8,10.1,1.9,18.1,1.8c-1.6,0.2-2.9,0.4-4.5,0.8l0.3,0.4c-3.8,0.2-13.7-1.9-20.2-1.9
			C659.8,704.8,661.1,706,663.2,704.5z"/>
		<path class="st4" d="M729.7,685.9c1.1-0.9,1.8-1.7,3.1-2.2l0.3,1.1c-0.1,2.1,0.2,5.5-0.7,6.8L729.7,685.9z"/>
		<path class="st6" d="M733.2,684.8c0.5,2.6,0.4,6.5,1,8.2l-0.8,0.8l-1-2.2C733.4,690.3,733.1,686.9,733.2,684.8z"/>
		<path class="st2" d="M595.7,470.1c-14.6-28.7-23.4-53.2-20.5-86.1c0.9-14.9,2-27.6,13-38.8c22.1-22.4,43.5-20.9,62.1,4.5
			c20.6,28,35.9,53.3,34.9,89.4c-0.9,31-12.6,51.4-29.9,75.9c11.2,10.8,23.9,20.4,35.9,29.9c24,19,56.5,39.1,67.8,69
			c16.4,43.3-43.8,90.9-82.6,91.1c-10.4,0.1-20.4-4.1-27.7-11.5c-8.7-8.8-20.9-34.7,0.3-35.7c14.4,1,10.2,23.2,25.8,23.6
			c15.4,0.4,31.8-8,43-18.2c20.6-18.8,30.2-35.7,9-59.3c-20.6-23-45.1-36.9-68.9-56c-5-4-11.1-8.5-15.6-12.8
			c-4.3,5.8-10.4,12.6-15.2,18c-15.7,17.5-32.4,34.1-50,49.7c-2.4,25.7-6.4,52.2-10.1,77.7c-1.6,10.8-3.7,24.5-7.3,34.8
			c-9.2,26.5-25,52.1-43.6,72.9c-7.2,8-15.9,13.8-24.7,19.8c-17.7,12.7-38.4,21.5-60.6,19.5c-15-1.4-31.4-8-40.7-20.3
			c-11.2-14.7-20.1-29.6-17.6-49c2.5-19.6,12.5-40.7,24.4-56.3c3.7-4.9,9.2-9.9,13.7-13.9l1.2-0.8c6.8-5.3,13.5-11.8,21.1-16.2
			c18-10.3,37.5-17.8,55.6-28.1c15.9-9,26.3-17.9,40.1-29.5c1.5-1.3,3-2.5,4.6-3.7c0.6-0.9,5.3-4.5,6.4-5.2c2.5-2.2,4.6-4.2,7.3-6.2
			c2.2-2,6.9-6.7,9.4-7.5l0.5,0.4c-0.2,1.6-0.3,3-0.5,4.6l0.5,0.4c2.3-2.3,2.5-11.8,3-15.4c2.8-24.5,4.6-49.1,5.3-73.8
			c-1,1.9-1.8,4-2.6,5.9c-4.8,11.8-10.3,23.1-16.1,34.4l-1.7,3.4c-0.8,1.1-1.7,2.5-2.7,3.4c-1.9,2.9-4.1,5.6-6.5,8.1
			c-5.3,5.7-7.9,8.1-14.8,12.1c5,1.6,15.5,2.3,12.2,9.9c-1.5,3.6-5.6,2.4-8.6,1.7c-22.7-5.5-42.1-12-62.4-23.6l-1,0.6
			c-1.2-0.1-3.1-1.8-4.5-2.5c-2.4-1-4.5-2.8-6.7-4.3c-1.3-1.4-1.9-1.8-2.6-3.5c-1.1-1.3-3.5-2.9-4.9-4.1c-6.2-5-9.9-6.7-17.6-7.2
			c-0.7,1.6-1.4,3.2-2.1,4.8c1.4,14.5,5.6,28.5,8.4,42.7c0.6,2.9-1.5,5.3-4.4,6c-1.6,0.3-3.3,0-4.6-1c-3.4-2.7-9.2-39.9-10.5-46.7
			c-2.7,1.7-5.4,3.5-8.1,5.2c-0.2,0.5-0.9,1.9-1,2.4c1.1,2.5-2.2,11.7-3.1,14.8c-1.7-4.2-3-6.6-5.5-10.4c0-0.8-0.3-1.1-0.6-1.9
			c-23.6,6.9-34.4-10.3-39.5-30.1c-6-23,1.9-47,29.2-45.3c9.5,0.6,19.2,7.1,17.1,17.6c-0.4,1.9-2,3.5-3.5,4.6c-5,1-6.6-5.6-7.9-9.4
			c-1.9-1.4-3.6-1.7-5.8-1.9c-11.2-1.3-18,6.1-18.5,17.1c-0.5,10.9,4.6,34,18.4,34.7c8.8,0.5,21.1-9.6,27.4-15.4
			c-1.7-7.3-1.3-17.3-2-24.9c-2.5-25.4-2.9-50.9-2.3-76.4c0.1-2.5,1.8-5.1,4.5-4.5c1.6,1.4,2.4,3.9,2.4,6c0.9,24,0.8,47.8,3.8,71.7
			c0.9,7,1,14.2,2.4,21.2c14.9-13,28.7-26.7,43.7-40c18.5-16.4,38.8-33.2,58-48.9c0.7-0.6,2.3-0.2,3.1,0.1c1.1,1.1,1.1,1.1,1.4,2.7
			c-0.5,3.3-14.5,14.7-18,17.7c-22.5,19.6-44.4,39.9-65.8,60.7c-6.6,6.5-13,13.6-19.6,20.2c16-0.9,28.8,11.7,42.8,19.3l2.2-0.2
			l0.5,0.3l1.2,1.8c1.6,0.9,3.1,1.8,4.7,2.7l1.6-0.6c1,0.4,2.3,0.8,3.2,1.3c0.4,1.3,1.1,1.6,2.3,2.5l0.3,0.1
			c4.8-0.3,5.3,1.4,7.9,1.9c2.1,0.3,4.2,1.2,6.2,2l-2.1,1.2l5.3,1.8c0.9-0.2,1.4-0.5,2.3-0.9c-1.4-5.7-2.1-17.5-3.3-24.3
			c-2-11.5-5.1-17.5-9-28.4c17.3-8.4,33.2-19.6,44.2-35.6c2.7-4,5.2-9.2,8.8-12.1c0.6-0.5,1-0.2,1.7,0c0.5,1.6-2.3,11.2-2.5,13.9
			c-1.2,15.1-2.3,32.9-6.8,47.3c-1.9,6.3-9.3,14.7-12.6,21.7c-0.5,1.8-1.4,2-2.1,5.1c0,1.5-0.1,2.6,0.6,3.9c0.8-0.2,0.5,0.1,1-0.4
			l0-2.2c1.2-0.9,2.5-2.5,3.6-3.7l1,1c3.5-3.8,5.5-7,8.3-11.3l-0.1-2.6c0.1-1.1,0.6-2.8,0.9-3.9c1.7-4.3,3.3-8.9,4.5-13.4
			c1-3.7,0.2-8.3,0.9-11.9c1.7-9,2.6-16.6,2.5-25.8c0.2,0.3,0.4,0.7,0.6,1c3.7,6.6,6,15.7,3.9,23.2l1.4,0.3
			c5.6-14.6,12.3-28.2,19-42.5c2.8-6.7,5.9-13.3,14.6-10.2c2.8,1,4.7,4.6,4.4,7.5c-1.2,11.2-1.9,22.5-2.1,33.7
			c-0.4,14.8-0.3,29.7-1,44.6c-0.3,7.3-0.7,18.5-2.2,25.6c11.1-11.5,21.9-22.5,32.6-34.4c2.7-3,11.3-13.8,13.3-15.2
			c-0.3-2.6-8-9.3-10.6-13.1c-3.9-3.2-12.4-19.2-14.2-24.4C599.3,478.2,597.1,473.1,595.7,470.1z"/>
		<path class="st4" d="M487.4,515c17.3-8.4,33.2-19.6,44.2-35.6c2.7-4,5.2-9.2,8.8-12.1c0.6-0.5,1-0.2,1.7,0
			c0.5,1.6-2.3,11.2-2.5,13.9c-1.2,15.1-2.3,32.9-6.8,47.3c-1.9,6.3-9.3,14.7-12.6,21.7c-1.2-9.2,8.1-34.6,10.5-44.7
			c0.9-3.6,9.5-13.2-3.5-14.7c-7.1-0.5-10.9,12.6-12.6,17.7c-5.2,17.8-15.6,42.6-8.1,60.8c-1.4-0.4-5.3-1.8-6.5-1.6
			c-1.4-5.7-2.1-17.5-3.3-24.3C494.4,531.9,491.3,525.8,487.4,515z"/>
		<path class="st9" d="M506.3,569.2c-7.4-18.2,3-43,8.1-60.8c1.7-5.1,5.5-18.2,12.6-17.7c13,1.5,4.4,11.1,3.5,14.7
			c-2.4,10.1-11.7,35.5-10.5,44.7c-0.5,1.8-1.4,2-2.1,5.1l-0.1-0.6c-1.1-13.1,7.4-35,10.5-48.1c0.7-3.2,7-10,2.7-12.8
			c-10.2-6.5-13.8,11.4-16.1,17.7c-3.1,10.8-7.6,22.7-8.9,33.8c-1.1,9.1-3.5,24.8,8.6,26.1l-0.1,0.7c-2.4,1.3-7.1-0.4-9.7-1.2
			c-2.5-0.8-5-1.6-7.5-2.4c0.9-0.2,1.4-0.5,2.3-0.9C501,567.4,504.9,568.8,506.3,569.2z"/>
		<path class="st6" d="M541.1,484.9c0.2,0.3,0.4,0.7,0.6,1c3.7,6.6,6,15.7,3.9,23.2c-1.4,2.4-4.2,10.3-5.3,13.5
			c-2,5.3-3.9,9.4-6.2,14.5l-0.8-1c1.7-4.3,3.3-8.9,4.5-13.4c1-3.7,0.2-8.3,0.9-11.9C540.3,501.8,541.3,494.1,541.1,484.9z"/>
		<path class="st4" d="M402.1,554.4c1.1,2.5-2.2,11.7-3.1,14.8c-1.7-4.2-3-6.6-5.5-10.4C395.8,557.9,400.4,555.9,402.1,554.4z"/>
		<path class="st9" d="M545.6,509.1l1.4,0.3c-4.9,12.4-7.6,21.4-14.4,33.1l-0.1-2.6c0.1-1.1,0.6-2.8,0.9-3.9l0.8,1
			c2.2-5.1,4.2-9.2,6.2-14.5C541.4,519.4,544.2,511.5,545.6,509.1z"/>
		<path class="st8" d="M532.5,540c0.1-1.1,0.6-2.8,0.9-3.9l0.8,1C533.6,538.1,533.1,539.1,532.5,540z"/>
		<path class="st9" d="M446.9,552.4c5,3,10,6.3,14.7,9.8l-1,0.6c-1.2-0.1-3.1-1.8-4.5-2.5c-2.4-1-4.5-2.8-6.7-4.3
			C448.2,554.5,447.6,554.1,446.9,552.4z"/>
		<path class="st10" d="M615,505.3c5.4,2.1,2.3,5,11.1,8.4c0.5,1.2,0.1,2.3,0.7,4l-0.6,0.7l-0.6,0
			C625.3,515.8,617.6,509.1,615,505.3z"/>
		<path class="st9" d="M480.3,561.6c4.8-0.3,5.3,1.4,7.9,1.9c2.1,0.3,4.2,1.2,6.2,2l-2.1,1.2C488.8,565.5,483.4,563.3,480.3,561.6z"
			/>
		<path class="st9" d="M403.1,552.1c-0.2,0.5-0.9,1.9-1,2.4c-1.8,1.5-6.3,3.4-8.6,4.4c0-0.8-0.3-1.1-0.6-1.9
			C396.9,555.3,399.4,554.1,403.1,552.1z"/>
		<path class="st10" d="M535.2,562c0.7-3.2,0.6-2-0.8-5.3l0.4-0.3l2.3,0.7c1.9-2.4,1.9-2.6,4.5-3.1
			C539.8,556.8,537.6,559.5,535.2,562z"/>
		<path class="st10" d="M595.7,470.1c4.7,2.3,4.6,6.3,5.1,10.8C599.3,478.2,597.1,473.1,595.7,470.1z"/>
		<path class="st10" d="M539.4,604.2c2.5-2.2,4.6-4.2,7.3-6.2l0.1,1C544.1,602.2,543.4,603.2,539.4,604.2z"/>
		<path class="st9" d="M474.4,557.8c1,0.4,2.3,0.8,3.2,1.3c0.4,1.3,1.1,1.6,2.3,2.5c-2.9-0.8-4.5-1.8-7.1-3.2L474.4,557.8z"/>
		<path class="st3" d="M523.2,552.8l1,1l-4.6,4.8l0-2.2C520.8,555.6,522.2,554,523.2,552.8z"/>
		<path class="st2" d="M411.7,686.9c1.3,0.6,1.4,0.5,2.2,1.7l-0.5,0.6c-1.5-0.2-1.7-0.5-2.9-1.5L411.7,686.9z"/>
		<path class="st9" d="M466.5,553.5l0.5,0.3l1.2,1.8l-3.8-1.9L466.5,553.5z"/>
		<path class="st4" d="M437.5,696.4c8.3-6.5,14.7-10.5,24.3-14.8c21.3-9.6,42.9-20.4,61.9-34c10.3-7.4,20-16.5,29.9-24.5
			c-2,13.6-4.1,27.1-6.5,40.6c-1.5,8.9-3.4,20.4-5.8,29.1c-0.8,5.2-3.7,15.8-5.5,20.8c-8,21.3-21.8,43.2-39.4,60.5
			c-21.3,21-60.2,45.8-88,18.9c-6.7-6.5-13.8-21.3-12.9-30.5c0.9-8.4,3.5-16.6,7.4-24.2c7.8-20.1,17.4-27.3,32.9-40.9L437.5,696.4z"
			/>
		<path class="st3" d="M437.5,696.4c8.3-6.5,14.7-10.5,24.3-14.8c21.3-9.6,42.9-20.4,61.9-34c10.3-7.4,20-16.5,29.9-24.5
			c-2,13.6-4.1,27.1-6.5,40.6c-1.5,8.9-3.4,20.4-5.8,29.1c-0.3-2.5,0.5-4.1-0.2-6.5l-0.9,3.9c-0.8-0.6-0.7-2.8-1.2-3.9
			c-3.2-7.1-11.9-15.2,3-16.7c0.9-12.3,0.8-23.7,1.6-35.5c-2,0.2-1.7-0.1-2.8,1l0,1.1c-6.8,5.8-31.5,25.4-39.3,27.3
			c-1.5,0.1-4.7,1.7-5.4,2.9c-2.1,1.3-4.2,2.7-6.4,3.5l-0.6-0.3c-3.7,2.4-6.4,4-10.4,5.9c-9.5,5.7-25.1,10.5-32.8,17.2
			c-1.1,0.8-4.2,3.1-5.3,3.6c-0.9,0.6-1.2,0.5-2.3,0.6c-0.1,0.7-0.3,0.5,0,1c-4.7,4-14.9,12.1-18.8,16.6
			c-10.5,12.4-19.4,30.9-21.9,46.9c-1.4,8.9,5.4,22.8,11.3,29.2c22.4,23.8,56.6,8,77-9.5c17-14.7,26.2-25.5,36.9-44.9
			c4.1-7.3,9.5-15.5,11.5-24l1.6,1.5c-8,21.3-21.8,43.2-39.4,60.5c-21.3,21-60.2,45.8-88,18.9c-6.7-6.5-13.8-21.3-12.9-30.5
			c0.9-8.4,3.5-16.6,7.4-24.2c7.8-20.1,17.4-27.3,32.9-40.9L437.5,696.4z"/>
		<path class="st4" d="M551.1,627.8c-3.3,19.9-6.1,38.7-10,58.5l-0.9,3.9c-0.8-0.6-0.7-2.8-1.2-3.9c-3.2-7.1-11.9-15.2,3-16.7
			c0.9-12.3,0.8-23.7,1.6-35.5C545.3,633.3,549.2,629.4,551.1,627.8z"/>
		<path class="st3" d="M496,666.4c0.7-1.3,3.9-2.8,5.4-2.9c-2.6,6.7-17.5,42.9-21.3,46.4l-0.8,0c-0.1-0.4-0.2-0.7-0.3-1.1
			c2.1-5.2,6.4-12.8,8.5-17.7c-5.4-4.2-6.8-9.2-8.8-15.5c4-1.9,6.7-3.5,10.4-5.9l0.6,0.3C491.9,669.1,494,667.7,496,666.4z"/>
		<path class="st4" d="M496,666.4c0,3.1-0.6,4.5-3.8,5c-1.5-0.5-1.6-0.4-2.7-1.5C491.9,669.1,494,667.7,496,666.4z"/>
		<path class="st3" d="M540.7,636.2l0-1.1c1-1.1,0.8-0.8,2.8-1c-0.8,11.8-0.7,23.2-1.6,35.5c-14.9,1.5-6.2,9.6-3,16.7
			c0.5,1,0.4,3.3,1.2,3.9l0.9-3.9c0.7,2.4-0.1,3.9,0.2,6.5c-0.8,5.2-3.7,15.8-5.5,20.8l-1.6-1.5c3.3-10.3,6.6-18.7,0.4-28.6
			c-4.6-7.4-5.6-15.9,5.7-16.3C540.4,657.2,541.1,645.9,540.7,636.2z"/>
		<path class="st3" d="M438.2,697.9c-0.3-0.5-0.2-0.2,0-1c1.1,0,1.4,0,2.3-0.6l0.2,1.1c-0.2,2.5-0.7,10.5-2.5,12
			C436.7,706.5,438,701.1,438.2,697.9z"/>
		<path class="st6" d="M445.8,692.8c0.1,1.8,0.5,2-0.4,3.1l-0.5,0.1c-2,0.3-2.4,0.4-4.2,1.5l-0.2-1.1
			C441.6,695.9,444.6,693.6,445.8,692.8z"/>
		<path class="st3" d="M616.9,351.8c2.6,0.2,4.3,0.8,6.5,2.2c14,9.4,34.4,47.6,37.5,64.2c1.2,6.3,1.4,12.7,1.3,19.1
			c-0.4,23.5-8.5,38.9-21.6,58c-0.5,0.8-0.9,1.3-1.6,1.9l-0.9-0.3c-3.4-3.8-6.7-7.6-9.5-11.9c-8.1-12.3-13.9-27.3-20-40.8
			c-8.5-18.9-11.6-38.3-10.3-59c0.4-5.8,0.7-11.9,2.8-17.4C603.9,360.7,609.9,354.9,616.9,351.8z"/>
		<path class="st4" d="M617.1,353.7c1.5,0.3,3,0.5,4.4,1.3c11.8,6.2,31.1,42,35.3,55.2c5.1,16.2,4.8,36.6-0.5,52.8
			c-1.7,5.2-4.1,10-6.6,14.9c-0.7-0.8-1.6-1.6-2.5-2.2c-1.7-1-4.4-1-6.3-0.4c-2.5,0.8-4.3,2.3-5.4,4.7c-0.3,3.7-0.1,7.5-0.1,11.2
			c-2.2-3-4.4-6-6.3-9.2c-4.5-7.7-8.1-16.2-11.9-24.2c-11.5-24.9-19-42.7-17.1-70.9c0.3-5.3,0.5-10.8,1.9-15.9
			C604,362.9,610.2,357.7,617.1,353.7z"/>
		<path class="st4" d="M642.4,477.4c1.5-0.1,2.5,0,4,0.5c0.5,0.6,1,0.9,1.1,1.7c0.5,3.3-5,10-6.9,12.7l-1.2,1.7l-1,0.1
			c-2-2.2-1.1-11-1.2-14.3L642.4,477.4z"/>
		<path class="st2" d="M545.1,528.6c0.6,0.5,1,0.8,1.8,0.9c0.7,0.1,1.2,0.1,1.9,0.3c0.4,1.1-0.3,2.5-0.7,3.6l0,0.4l-0.7,0.5
			C546.4,532.6,545.7,530.4,545.1,528.6z"/>
		<path class="st2" d="M435.8,697.4l-0.8-0.5l-0.2-1c0.6-1.5,0.2-1.2,1.4-1.8c1.2,0.7,0.8,0.5,1.3,2.3L435.8,697.4z"/>
		<path class="st2" d="M623,547.3l0.6,0.5c0.1,1.4,0,2.1-0.8,3.3c-0.7-0.4-1-0.9-1.5-1.4C621.5,548.5,622.1,548.2,623,547.3z"/>
		<path class="st10" d="M589.8,447.1c1,0.2,2.1,0.3,3.2,0.4l0.7,1l-1.3,1C591.1,449.3,590.5,448.1,589.8,447.1z"/>
		<path class="st2" d="M361,519.1c0.9,0.4,1.3,0.4,1.7,1.4l-1,1.6l-0.9,0C360.2,520.9,360.7,520.3,361,519.1z"/>
		<path class="st10" d="M505.2,788.8c0.7-0.2,0.4-0.2,1.1,0.1l-1,0.5l-1-0.1L505.2,788.8z"/>
		<path class="st10" d="M659.2,478.6l0.6-0.1l-0.5,0.9c-0.6,0-0.6-0.1-1.1-0.3L659.2,478.6z"/>
		<path class="st2" d="M541.5,629l1.8,0.1l0.4,0.5l-0.5,0.6l-0.8,0.1L541.5,629z"/>
		<path class="st4" d="M657.7,549.9c1.3,1,7.2,5.1,7.9,6.1c6.7,9.5,9.6,20.8,23.8,17.8l5.1,3.9c-3.9,4.9-4.6,7.1-6.6,12.8
			c1.4-1.6,2.9-3.7,4.2-5.4c1.2-2.1,2.7-4,4.1-6c2.1,1.5,3.7,2.5,5.5,4.4c5.2,3.3,13,10.1,17.1,14.7c-1.1,14.8-10.4,26.7-11.1,42.2
			c-0.4,7.9,2.4,15.2,3,22.8c-7.1,10.1-16.3,13.2-27.2,15.5c-23,4.9-16.1-15.5-30.3-22.4c-4.7-2.3-10.4,0.3-14.4,3.9
			c-10.5-7.2-8.6-9.2-15.1-18.5c-6.9-10-6.8-13.5-11.3-23.5c-4.4-9.9-10-22.2-15-31.7c5.6-5.6,12.4-12.1,17.7-17.8
			c3.7,8.2,6.5,16,12.8,22.9c6.4,7.1,12.4,14.4,12.6,24.6l0.9,0.9c0.1-9.1-1.2-12.9-5.9-20.5c5-4.8,7.9-9.5,11.7-15.2
			c5.3-0.6,9.8-1.8,15.5-2.3c2.1,8,2.4,30.5,0.2,39.1c-0.7,3-4.5,8.1-4.8,11.8l0.6-0.1c12.8-14.2,4.4-45.5,7.2-49.5
			c4.9-0.6,9.6,8.1,14.6,11.6c-9.8-18.7-16.7-15.4-35-13.4c0.6-6.1,1.5-12.7,1.6-18.8C650.2,556.3,653.8,552.9,657.7,549.9z"/>
		<path class="st11" d="M640.2,616.1l0.9,0.9l-0.3,1.1l-0.4-0.3L640.2,616.1z"/>
		<path class="st3" d="M701.9,649.6c0.6,0.1,0.8,0.2,1.3,0.7c-1.2,6.2-11.3,13-16.2,16.6l-0.2,0.2l-0.5-0.3c0.2-1.5,0.8-2.6,1.7-3.8
			C689,661.6,700.2,650.9,701.9,649.6z"/>
		<path class="st3" d="M611.1,581.5l0.2,0.6c-0.3,3-4.7,8.6-6.3,11.3c-0.2-0.8-0.3-1.5-0.2-2.3C605.2,587.1,608,583.8,611.1,581.5z"
			/>
		<path class="st3" d="M686.2,605c0,1.4-7,12.1-8.4,14.7l-0.2-1.2C679,613.5,682.7,608.9,686.2,605z"/>
		<path class="st4" d="M355.2,440.3c1.3,0.7,2.6,1.7,3.6,2.8c5.8,6.4,4.6,17.5,4.2,25.5c-1.3-0.2-2.8-0.5-4.1-0.4
			c-1.3,0.1-1.8,0.6-2.6,1.5l0.2,0.7c1.2,0.2,3.1,0.4,4,1.3c3,2.5,2.5,9.3,2.6,12.8l-1.7,1.3c-2.2,1.7-2.7,2.3-5.5,1.9l-0.8,0.7
			c0.1,0.6,0.3,0.9,0.7,1.4c0.1,0.2,0.3,0.3,0.4,0.5c-1,2.2-2.3,4.2-3.4,6.3c-6,12.1-2.8,28.3,1.8,40.4c1.6,4.1,3.7,8.1,5.2,12.2
			c1.7,4.8,1.8,10.2,3.5,15.1c1.3,3.7,3.9,11.5,7.7,13.1c1.2,0.5,2.1,0.3,3.2-0.2c3.8-3.4,2.6-12.2,2.9-17c3.9,0.2,8-0.1,11.7,1.3
			c4.6,1.7,6.6,5.5,8.6,9.7c-1.3,0.9-2.4,1.7-3.5,2.8l0,0.9l1.8,1.6c-0.5,3.6-1.4,7.2-1.8,10.9c-0.5,5.3-0.4,10.9-1.5,16.2
			c-2.1,10.7-9.1,24.3-15.3,33.3c-4.9,7.1-10,11.1-14,19.2c2.2,3.1,2.8,6,2.4,9.8c-0.2,1.9-0.8,3.9-2.4,5.1
			c-1.5,1.1-3.4,1.1-5.2,0.8c-3.6-0.5-7.1-2-10.6-3c-10.9-3.1-26.7-6.3-33.8-15.9c-4.1-7.6-11.4-12.3-14.6-20.5
			c2.5-2.5,4.3-4.4,4.8-8c0.8-6.1-2.3-11.4-3-17.3c-1-8.2-0.1-16.5-1.5-24.7c-0.5-3.1-2.6-7.1-2.3-10.1c1.6-0.3,3.3-0.6,4.9-0.9
			c3.7-0.7,5.7-1.6,7.8-4.8l0.3-0.5c2.2,2.6,4.5,4.6,7.9,5.6c5.2,1.6,9.6-0.4,14.1-2.8c0.6,0.5,1.2,1,1.9,1.4c0.8,0.4,1,0.4,1.8,0.1
			c-0.1-0.7-0.2-1.4-0.3-2c-0.1-0.8-0.3-1.7-0.3-2.5c0.1-1.1,0.4-1.8,1.2-2.5c3,4.2,4.7,9.8,7.1,14.4c4.3,8.1,15,20.1,23.6,23.4
			c2.6,1,4.9,1,7.4-0.2c2.5-1.2,4.7-3.6,5.6-6.3c0.6-2.1,0.5-6.1-0.9-8c-1.9-2.6-5.8-4.8-8.3-6.9c-6.3-5.2-12.9-13.8-15.9-21.4
			c-4.2-10.7-6.7-21.9-8.2-33.3c-0.8-5.9-0.9-11.8-0.9-17.8c0-3.4,0.4-7.8-0.4-11.1c-0.3-1.1-0.9-2.1-1.4-3
			c0.7-4.5,2.6-8.5,3.4-12.9c0.7-3.4,0.7-7.1,1.1-10.5C349.7,460.8,351.4,448,355.2,440.3z"/>
		<path class="st3" d="M345.2,628.9l0.1,0.5c-0.6,1.9-1.5,3.7-2.8,5.3c-5.1,6.3-13.3,9.2-21.1,10l-0.1-0.7c2-2.8,8.1-2.5,11.3-4.3
			C337.5,637.1,341.3,632.7,345.2,628.9z"/>
		<path class="st3" d="M356.7,626.1c0.7,0.3,1,0.6,1.5,1.1c0,1.8-0.2,3.9,0.3,5.6c1.1,4.1,5.5,9.5,5.3,13.5c-3.2-3-5.1-6.9-6.4-11.1
			C356.6,632.8,355.4,628.3,356.7,626.1z"/>
		<path class="st11" d="M360.5,610.3c0.2,2.1-5.6,10.8-6.8,13.8c0-0.1-0.1-0.3-0.1-0.4C353.3,619.4,358.1,613.6,360.5,610.3z"/>
		<path class="st2" d="M328.5,440.4c0-3.7-0.6-22.8,0.6-24.7c1.2-0.5,1.4-0.5,2.7-0.3c13.8,1.7,9.3,15.4,9.8,25.1
			c0.1,1.9-0.3,8.3-1.7,9.3c-3.8-2.3-5-4.5-8.9-6.7l-0.5-0.3c4.8,9.5,10.5,8.9,8.2,22.3c-1,6-1.1,17.3-0.4,23.5l0.4,1.5
			c6.7,3.6,5.2,8.9,5.4,15.5c0.2,3.8-0.2,7.8,0,11.6c0.1,8,2.7,15.9,3.5,23.7c0.6,2.1,1.6,5.3,1.9,7.4c3.8,8.4,5.1,15.7,11.4,23.3
			c5,6,10,9.8,15.9,14.7c1.8,1.5,2.2,7,0.6,8.9c-3.6,5.5-8.8,5.1-13.6,1.7c-12.9-9.4-23.7-24.5-27-40.3c-5.7,13.8-20.9,21-27.4,2.6
			c-0.7-2.1-1.4-3.1-2.9-4.6l-0.4-0.4c-2.8-9.6-3.9-28.4-4.8-39l-0.3-0.4c-0.1-1.5,0-1.8-0.8-2.8l-0.6,0c-1.5-1.4-1.8-3-2-5
			c-0.7-9.1-0.2-18.4-0.1-27.6c0.2-13.5-0.8-27.1,1-40.6c0.8-6.1,1.9-7,6.3-11.1c2.2,5.3,6.4,9.9,7.8,15.6
			c1.4,5.9,0.1,11.6-1.6,17.3c-1.5-1.2-3-2.4-4.9-2.8l-0.6,0.5c1.4,3.4,4.4,5.1,7.3,7.3c0.1,5.2,0.4,12.8-0.5,17.9
			c-0.2,0.9-2.3,1.7-3.4,2.2l-0.1,0.8c10.2,6.5,6.9,18,10.4,21.9l0.8-0.1c1.2-3.5-1.5-17.8-1.4-22.3c0.5-7.6,2.8-14.9,4.2-22.4
			C324.7,455.9,324.4,447.4,328.5,440.4z"/>
		<path class="st4" d="M328.5,440.4c0-3.7-0.6-22.8,0.6-24.7c1.2-0.5,1.4-0.5,2.7-0.3c13.8,1.7,9.3,15.4,9.8,25.1
			c0.1,1.9-0.3,8.3-1.7,9.3c-3.8-2.3-5-4.5-8.9-6.7l-0.5-0.3c4.8,9.5,10.5,8.9,8.2,22.3c-1,6-1.1,17.3-0.4,23.5
			c-6.9,0.1-9.7,4.8-10.8,11.1c-1.4,8.4-0.6,17.1-1,25.6c-0.2,5.7-1.4,13.5-1.3,18.9c-2.3-1-7-4.8-9.2-6.5
			c0.2-1.2-1.4-14.2-1.5-16.5c-0.2-3.1-0.3-6.6-0.2-9.9c-3.9-7.1-11.4-7.4-13.9,0.6l-0.6,0c-1.5-1.4-1.8-3-2-5
			c-0.7-9.1-0.2-18.4-0.1-27.6c0.2-13.5-0.8-27.1,1-40.6c0.8-6.1,1.9-7,6.3-11.1c2.2,5.3,6.4,9.9,7.8,15.6
			c1.4,5.9,0.1,11.6-1.6,17.3c-1.5-1.2-3-2.4-4.9-2.8l-0.6,0.5c1.4,3.4,4.4,5.1,7.3,7.3c0.1,5.2,0.4,12.8-0.5,17.9
			c-0.2,0.9-2.3,1.7-3.4,2.2l-0.1,0.8c10.2,6.5,6.9,18,10.4,21.9l0.8-0.1c1.2-3.5-1.5-17.8-1.4-22.3c0.5-7.6,2.8-14.9,4.2-22.4
			C324.7,455.9,324.4,447.4,328.5,440.4z"/>
		<path class="st9" d="M300.3,512c2.6-7.9,10-7.7,13.9-0.6c0,3.3,0,6.8,0.2,9.9c0.1,2.2,1.7,15.3,1.5,16.5c2.2,1.7,6.9,5.4,9.2,6.5
			c0.4,1.6,0.2,3.8,0.4,5.5c-0.1,0.7-0.3,1.9-0.5,2.5l0,0.8c-1.4,2.5-1.5,3-3.9,4.7c-9.8-13.9-7.2-44.6-10.2-48.2
			c-0.8-1-2.1-1.5-3.4-1.6c-1.8-0.1-3.4,0.6-4.6,1.9c-1.5,1.6-1.5,3.4-1.5,5.5l-0.3-0.4C301.1,513.4,301.2,513,300.3,512z"/>
		<path class="st4" d="M316,537.8c2.2,1.7,6.9,5.4,9.2,6.5c0.4,1.6,0.2,3.8,0.4,5.5c-0.1,0.7-0.3,1.9-0.5,2.5l-1.1-0.4
			c-0.6,1.4-0.6,1.5-1.5,2.7c-3.6,0.3-5.3-9.2-5.4-12.1C315.8,541,316.1,539.8,316,537.8z"/>
		<path class="st3" d="M316,537.8c2.2,1.7,6.9,5.4,9.2,6.5c0.4,1.6,0.2,3.8,0.4,5.5c-0.1,0.7-0.3,1.9-0.5,2.5l-1.1-0.4
			c0.3-5.3-2.9-6.8-7-9.4C315.8,541,316.1,539.8,316,537.8z"/>
		<path class="st3" d="M338.4,488.7l0.4,1.5c-13.6-0.3-9.8,22-10.2,30.6c-0.5,9.4-0.8,19.7-2.9,28.9c-0.1-1.7,0-3.9-0.4-5.5
			c-0.1-5.4,1.1-13.2,1.3-18.9c0.5-8.5-0.4-17.2,1-25.6C328.7,493.6,331.5,488.9,338.4,488.7z"/>
		<path class="st10" d="M325.1,553.1c1,2.2-1,5-3,6.2l-0.8-0.1c-0.2-0.9-0.3-0.6-0.2-1.4C323.6,556.1,323.7,555.6,325.1,553.1z"/>
		<path class="st10" d="M349.7,548.4c-2.9-0.6-2.4-5.3-1.9-7.4C348.4,543.2,349.4,546.4,349.7,548.4z"/>
		<path class="st4" d="M425.5,543c0.7,0,1.3,0,2,0.1c2.7,0.2,6.4,0.9,8.1,3.1c2.1,2.6,1.3,14.9,1.6,18.8c0.4,5.7,2,11.2,2.3,16.9
			c0.9,14.1,0.3,28.1,0.2,42.2c-0.1,13.6,0.5,28-1.3,41.4c-10.5,5.6-19.7,12.8-28.6,20.7c-0.1-14.7-2.4-29.4-4.7-43.8
			c-3.9-23.9-4.7-65.5,0.1-89.1c1.5-1.2,3.2-2.3,4.7-3.4c1.2,7.3,2.7,14.6,4,21.8c1.1,6,2,12.3,3.8,18.1c0.7,2.3,1.6,4.7,3.9,5.8
			c1.8,0.9,4.2,1.1,6.1,0.4c2.8-1,3.8-3.5,4.9-6.1C430.7,577.8,422.4,554.1,425.5,543z"/>
		<path class="st4" d="M438.6,550.9l0.3-1.8c2-0.4,4.5,2.6,5.9,4c8.4,16,9.3,34.1,13.5,51.3c1.9,7.7,5.9,15.7,8.4,23.3
			c2.2,6.6,3.5,14.9,4.7,21.8c-10.2,4.7-20.2,9.6-30.3,14.6c0.7-18.1,1-36.2,0.9-54.2c0-15.3,0.4-29.3-2.3-44.3
			C438.9,561,439.6,555.7,438.6,550.9z"/>
		<path class="st6" d="M438.6,550.9l0.3-1.8c2-0.4,4.5,2.6,5.9,4C441.2,553,443,551.4,438.6,550.9z"/>
		<path class="st4" d="M560.8,520.2l2.3-5.6c-0.1,1.9-0.3,5.8-0.5,7.5c-1.2,20.9-2.4,43.9-5.9,64.6c-2.8,2.5-8.7,7.5-10.9,10.1
			c-0.8,1.6-1.7,1.9-3.2,2.8c-4.7,2.1-27.1,22.4-33.3,27.3c5.1-13.1,11.1-26.1,12.3-40.1c6,1.7,16.4,2.4,12.5-8.4
			c-1.1-3-5.9-4-8.9-4.8c9.5-7.1,13.5-12.5,20.6-21.7l0.1-0.2c-0.5-0.4-0.9-0.8-1.4-1.2l1.7-3.4l1.8,0.2
			C552.4,538.4,556.7,529.3,560.8,520.2z"/>
		<path class="st4" d="M560.8,520.2l2.3-5.6c-0.1,1.9-0.3,5.8-0.5,7.5c-1.2,20.9-2.4,43.9-5.9,64.6c-2.8,2.5-8.7,7.5-10.9,10.1
			c-0.8,1.6-1.7,1.9-3.2,2.8c1.9-12.7,1.4-25.3,2.5-38c0.3-3.2,0.5-6.4,0.7-9.6l0.1-0.2c-0.5-0.4-0.9-0.8-1.4-1.2l1.7-3.4l1.8,0.2
			C552.4,538.4,556.7,529.3,560.8,520.2z"/>
		<path class="st3" d="M546.1,547.1l1.8,0.2c0.3,13.1-2.5,27.4-2,40.7c0.1,2.7-0.4,6-0.2,8.6c-0.8,1.6-1.7,1.9-3.2,2.8
			c1.9-12.7,1.4-25.3,2.5-38c0.3-3.2,0.5-6.4,0.7-9.6l0.1-0.2c-0.5-0.4-0.9-0.8-1.4-1.2L546.1,547.1z"/>
		<path class="st2" d="M236.1,507.4c0.5,0,1.1-0.1,1.6-0.1c2.3,0.2,4.1,1.1,5.1,3.2c2.1,4.3,2.7,10.5,3.8,15.2
			c4.7,19.3,9.2,39.1,21.9,55c8.7-9.3,12.9-21.9,27-25.2c2.7-0.6,7.7-1.1,10.1,0.5c1.5,1,2.5,3,2.8,4.8c0.3,2.1,0,4.5-1.3,6.2
			c-1.1,1.3-2.6,1.8-4.3,1.9c-0.1,0-0.3,0-0.4,0c-14.5-0.1-19.5,18.3-28.5,26.5c-1.7,1.5-3.9,3-6.3,2.7c-2-0.2-4.4-1.3-5.7-2.9
			c-1.7-2.1-2.6-5.4-4.1-7.7c-14.1-23.1-16.3-38.5-22.3-64c-0.8-3.3-3.5-8.5-3-11.8C232.9,509.6,234.5,508.6,236.1,507.4z"/>
		<path class="st4" d="M397.8,504.3l0.4-0.3c6.1-5.3,1.2-8.6,4.3-13.4l0.9-0.4c2.9,2.3,2,7.9,2.4,11.6c0.9,8.8,1,17.9,1.9,26.7
			c-0.9,0.9-2.4,2.1-3.1,3.1l-0.1,0.5c-1.6,0.3-0.9-0.1-2.1,1.1c-5.6,3.8-13.7,9.9-20.7,9.4l-0.3,0.3c-1.1-0.3-1.3-0.2-1.9-0.9
			c-12.6-7.1-16.5-28.8-11.6-41.6c4.6-2.6,12.3-7.5,17.6-5.8c4.2,1.3,2.2,4.1,3.3,6.6c0.4,0.9,2.7,2,3.5,3.6
			C393.8,504,396.1,503.5,397.8,504.3z"/>
		<path class="st4" d="M397.8,504.3l0.4-0.3c6.1-5.3,1.2-8.6,4.3-13.4l0.9-0.4c2.9,2.3,2,7.9,2.4,11.6c0.9,8.8,1,17.9,1.9,26.7
			c-0.9,0.9-2.4,2.1-3.1,3.1c-1.9-2.9-3.6-4.1-6.4-6.1C404.1,517.2,408.7,510.6,397.8,504.3z"/>
		<path class="st4" d="M381.7,542.6c3.4-10.4,10.3-23.8,20.7-9.4C396.8,536.9,388.8,543.1,381.7,542.6z"/>
		<path class="st3" d="M392.2,504.9c1.6-0.9,3.9-1.4,5.6-0.7c10.9,6.3,6.3,13,0.4,21.1c2.8,2,4.4,3.3,6.4,6.1l-0.1,0.5
			c-1.6,0.3-0.9-0.1-2.1,1.1c-10.4-14.3-17.3-1-20.7,9.4l-0.3,0.3c-1.1-0.3-1.3-0.2-1.9-0.9c2.4-8.2,6.4-18.8,16.7-17.5
			c1.7-2.5,6.1-9.1,6.1-12.1C402.4,509.1,394.6,507.7,392.2,504.9z"/>
		<path class="st4" d="M273.2,459.6l1.5,0.5c3.1,3.3,6.4,8.9,8,13.1c2.2,5.9,0,11.5-2.5,17c1.2,0.6,2.4,1.2,3.4,2.1
			c4.4,4.4,1.3,6.2,1.7,10.6c0.1,1.2,5.7,2.5,7,3.6c2.2,1.9,6.4,8.5,7.5,11.3c1.6,4.5,1.8,16.6,2.5,22.1c0.6,4.5,1.8,9,2.2,13.4
			c-3.4-0.5-6-0.4-9.3,0.5c-0.3-1.9-1.4-15.7-2.1-16c-1.2-0.7-2.4,0.1-3.7-1.2c-3.7-3.8-8.1-10-10.2-14.9c-3-7.1-3.1-15.2-5-22.6
			c-1.4-5.4-3.7-10.5-4.9-15.9c-0.7-3.2-1-6.4-0.9-9.7C268.4,468.8,269.5,463.1,273.2,459.6z"/>
		<path class="st4" d="M677.2,481.7c6.7,10.2,5.8,23.1,7.1,34.6c0.7,6.6,2,13,2.2,19.6l3.3,2.7l5-5.9c-2.5-5.5-2.1-11.3-1.9-17.2
			c5.8-0.7,10.7-1.7,16.4,0.1c0,4.9-0.9,10.3-1.6,15.2c-0.4,0.2-0.8,0.4-1.3,0.6l-0.4,0.2c0.1,3.6,1.7,7.7,2.1,11.4
			c-1.1-1-2.2-2.1-3.4-2.9c-1.7-1.2-4.9-3.6-7.1-3.2l-0.2,0.8c0.6,1.5,0.9,2.4,2.3,3.3c2.8,2,5.3,4.2,7.8,6.6l-2.6,4.9
			c-12.9-9.7-25.4-19.7-38-29.8c0.2-6.4,0.5-11.6-2.6-17.4l6.6,0.3c1,1.8,1.9,4.1,4,4.7l0.4-0.7c-0.3-1.2-0.7-2-1.4-2.9
			c-2.4-3.1-4.8-3.6-8.5-4.1C669.8,495.9,673.6,488.9,677.2,481.7z"/>
		<path class="st3" d="M701.6,528.4c1,0.1,2.5,0.4,3.3,1.2c0.7,0.7,0.7,1,0.7,2c-1.5-0.1-2.7-0.1-4-0.8
			C701.1,529.6,701.2,529.6,701.6,528.4z"/>
		<path class="st4" d="M642.4,537.6l0.7,0.7c1.1,3.2,0.7,5.6,0.2,8.8c1.3,2.1,2.3,4.3,3.4,6.6c-1.3,7.2-1.8,14.3-2.4,21.5
			c-0.5,6.2-2.1,12.7-7.2,16.8c-1.3,1-2.7,1.8-4.3,1.5c-2.7-0.5-4.3-3.8-5.6-5.9c0.6-1.7,1.7-4.2,0.9-5.9c-0.8-1.7-4-1.4-5.7-1.9
			c-2.7-3.2-4.4-8.4-6.1-12.2C625.1,557.7,634.3,548,642.4,537.6z"/>
		<path class="st4" d="M586.2,499.5c8.5-0.5,11.1,2.3,17.3,7.4c10.7,0.5,12.7,3,20.1,10.5c-6,7.4-12.2,14.4-18.6,21.5l-5.8,6.6
			c-2.7-3.3-6.3-5.2-9.8-7.4c2.9-3.6,9.2-9.8,9.6-14.4c0.1-1.2-0.3-2.4-0.9-3.5c-2-3.2-10.5-10.8-13.8-14.3c0-1.5-0.3-3.4,0.1-4.8
			C584.7,500,585.3,499.9,586.2,499.5z"/>
		<path class="st4" d="M449.8,508.4c7.8,3.4,7,6.8,17.5,7c-1.8,8.5-5,24.9-8,32.7l-0.7,0.3l-2.1-1.2l-14.5-8.9
			c-3-5.8-4.5-10.6-5.1-17C441,516.7,445.5,512.6,449.8,508.4z"/>
		<path class="st4" d="M283.7,534.2c0.3,0.1,0.1,0,0.4,0.4c1.9,2.5,3.8,4.8,6.6,6.4l1.9,13.3c-10.7,5.4-16.5,12.8-23,22.5l-0.8,0.6
			c-2.7-1.3-5.6-8.6-7-11.3c4.6-10.3,8.9-20,11.2-31.1C276.6,534.6,280.2,534.5,283.7,534.2z"/>
		<path class="st4" d="M718.4,609.8c0.9,1.1,1.4,3.7,1.8,5.2c4.9,16,2.2,24.3,4.2,39.3c-1.4,1.5-4.6,6-6.5,6.3
			c-0.9,0.2-1.2-0.5-2.4-0.1c0,0.7,0,1.2-0.1,1.8c0,0.2-0.1,0.3-0.1,0.5c-0.8,0.6-1.6,1.1-2.3,1.6l-0.7-0.2
			c0.3-5.7-1.5-11.6-2.3-17.3C708.1,634.7,713.6,620.9,718.4,609.8z"/>
		<path class="st4" d="M424,469c0.9,1.3,1.8,2.6,2.3,4.1c1.1,3,1.3,6.7,2,9.8c1.6,8,3.8,15.8,4.6,24c-3.1,3-6.3,5.9-9.5,8.8
			l-3.4,2.9c-1.7-12-2.5-24.3-3.9-36.3C419.6,478.2,422.4,474.1,424,469z"/>
		<path class="st4" d="M481.2,574.5c2.4,0.9,6.1,1.7,7.7,3.6c1.9,2.1,1.2,5.6,1,8.2c-1.9,1.1-4.1,1.8-6.2,2.6c-0.1,2.4,0,5-0.4,7.3
			c-0.4,2.6-5,16.6-6.5,18.5c-1,0.4-1.9,0.6-3,0.2c-2-0.7-3.3-2.5-4.2-4.3c-1.4-3.1-2.7-9.6-0.7-12.6c0.9-1.4,2.8-2.9,3.1-4.5
			c0.7-3.4-0.2-7,1.8-10.1c2-3.2,5.9-4.7,7.1-8.4C481.1,574.8,481.1,574.7,481.2,574.5z"/>
		<path class="st4" d="M584.2,508.8c5.3,3.3,10.6,10.7,13.8,16.1c-3.8,4.4-7.4,8.9-10.9,13.6c3.6,2.7,7.3,5.3,10.8,8.3l-3,3
			c-3.9,4.3-8,8.4-12.3,12.3C583.7,544.3,584.2,526.5,584.2,508.8z"/>
		<path class="st4" d="M720.4,599.9c5.9,4,15,18,16.4,24.8c1.7,8.3-2,14.8-6.3,21.5c-1.2,2.1-3,4.2-4.4,6.2
			c-0.6-8.4,0.5-17.1-0.6-25.5c-0.8-5.8-3.2-11.3-4.4-17.1C720.4,606.5,720.4,603.1,720.4,599.9z"/>
		<path class="st4" d="M507.4,583.3c3.9,0.8,7.9,2,11.7,3.1c-0.3,9.4-3.9,20.9-7.9,29.4l-2.3,3.8c-1.8-4.8-3.1-9.9-4.3-14.8
			C502.3,595.2,502.2,591.7,507.4,583.3z"/>
		<path class="st4" d="M544.4,467c4,3.8,6.7,12,11.7,17.1c-2,4.3-4,8.7-5.9,13.1l-1.9,5.2c-0.2-6.9-1.6-13.2-5.2-19.2
			C543.3,477.8,543.8,472.5,544.4,467z"/>
		<path class="st4" d="M503.2,458.9c-0.1,1.7-1.7,4.1-2.6,5.6c-6.4,11.1-17.7,21.5-30.1,24.9c0-0.3-0.1-0.6,0.1-0.9
			C471.6,486.5,499.5,462.1,503.2,458.9z"/>
		<path class="st4" d="M454.2,574.3c-1.1-6.7-3.8-13-4.7-18.4c2.1,1.6,4.2,3.3,6.7,4.3c-0.3,1-0.4,2.1-0.5,3.2
			c1.6,3.3,6.2,2.5,9.2,4c3.8,1.8,3.3,8.9-1,9.6C460,577.6,457.2,576.2,454.2,574.3z"/>
		<path class="st4" d="M355.9,677.8c6.1-3.7,9-5,12.8-11.1c-0.7,12-3.8,18.1-8.8,28.8c-0.3,0.9-0.1,0.6-0.8,1.4
			c-0.6-0.9-0.4-1.8-0.3-3C357.3,687.3,356.3,684.7,355.9,677.8z"/>
		<path class="st8" d="M358.9,693.9l1.1,1.6c-0.3,0.9-0.1,0.6-0.8,1.4C358.6,696,358.8,695.1,358.9,693.9z"/>
		<path class="st4" d="M363.5,551.6c3.6,3.3,6.8,5.6,11.3,7.5c0.1,5.1,0.6,10-1.3,14.8l-1.4,0.5c-1.1-0.4-1.6-1-2.3-1.9
			C366.1,567.4,362.6,557.9,363.5,551.6z"/>
		<path class="st4" d="M491.1,615.7c0.3,0,0.7,0,1,0c1.8,0,2.8,0.5,4.1,1.9c1.8,2.1,2.3,4.9,2.1,7.6c-0.2,3-1.1,5.4-3.4,7.4
			c-1.3,0.1-2.4,0.2-3.5-0.6c-2.7-2-2.9-7.9-3.4-11.1C488.8,618.8,489.6,617.4,491.1,615.7z"/>
		<path class="st4" d="M578.5,603.8c2.5-2.2,5-4.5,7.4-6.7c-2.2,13.2-4.2,18.8-8.8,31.3c-0.7-1-0.8-2.6-0.9-3.9
			C577.1,617.7,578.1,610.5,578.5,603.8z"/>
		<path class="st4" d="M429.5,477.6l0.3-0.5c1.2,0.9,1.3,1.3,2,2.7c3.5,8.2,4.5,11.9,10.2,19c-2.4,2.1-4.7,4.3-7,6.4
			C434.4,497.7,431,485.6,429.5,477.6z"/>
		<path class="st12" d="M429.5,477.6l0.3-0.5c1.2,0.9,1.3,1.3,2,2.7L429.5,477.6z"/>
		<path class="st4" d="M645.5,540c3.3,2.7,6.6,5.4,9.8,8.2l-3.2,2.4l-3.7,3C646.2,548.7,645.3,545.5,645.5,540z"/>
		<path class="st4" d="M661.6,508.4c1.1,1,2.3,1.9,3.5,2.8c0.1,2.5,0.9,7.4-0.4,9.5l-0.9-0.4c-2.1-2-3.9-4.1-5.6-6.5L661.6,508.4z"
			/>
		<path class="st4" d="M488.1,563.5c0.9-2.5,2.1-6.8,5.5-5.6c2.6,0.9,4.1,5.7,3.8,8.2c-1,0.3-2.1-0.3-3.2-0.7
			C492.3,564.7,490.2,563.8,488.1,563.5z"/>
		<path class="st4" d="M481.7,531.2l0.9,0.5c0.6,1.5,1.1,3.1,1.2,4.8c0.3,3.4-0.7,5.5-2.8,8l-0.8-0.5c-0.6-1.3-1.1-2.5-1.2-4
			C478.6,536.6,479.5,533.9,481.7,531.2z"/>
		<path class="st4" d="M670.8,560.1c5.7,2.8,11.2,8.2,16.5,11.9c-1.7,0-3.5,0-5.1-0.5C676.4,569.9,673.6,564.9,670.8,560.1z"/>
		<path class="st4" d="M431.6,526.7c1-1,1.6-2,2.7-2.1c0.5,1.4,0.4,1.6,0.4,3.1c0.4,2.1,0.5,4.7,0.6,6.8c-3.5-1.3-4.8-1.5-8.5-2
			C428.3,530.6,430,528.5,431.6,526.7z"/>
		<path class="st6" d="M431.6,526.7c1-1,1.6-2,2.7-2.1c0.5,1.4,0.4,1.6,0.4,3.1c-1.3,0.7-0.7,0.6-2.1,0.5L431.6,526.7z"/>
		<path class="st4" d="M466.5,553.5c1.2-3.5,4.7-8.5,8.7-8.9l1,0.6c0.9,4.1-6,7.6-9.2,8.7L466.5,553.5z"/>
		<path class="st4" d="M519.7,556.5c1.8-5.2,7.9-14.4,11.1-19.4c-1.9,8.1-2,9.5-7.5,15.8C522.2,554,520.8,555.6,519.7,556.5z"/>
		<path class="st4" d="M468.8,519.1c0.2,0.1,0.5,0.3,0.7,0.4c2.5,1.7,5.3,4.5,6,7.5c-2.1-0.5-4.9-1.1-6.2-3
			C468,522.4,468.4,520.9,468.8,519.1z"/>
		<path class="st6" d="M573.5,649.8c0,8.5,0,11.3-3,19.6c0.5-6.4,1.7-13.5,2.1-19.6L573.5,649.8z"/>
		<path class="st4" d="M500.7,580.9c1.2,0.4,2.3,0.7,3.3,1.5c0.2,1.6-0.5,2.5-1.2,4l-0.7,0.8C501.1,585.5,501,583,500.7,580.9z"/>
		<path class="st4" d="M474.4,557.8c0.9-2.3,0.4-2.3,2.1-3.6l1,0.1c1.1,1.8,0.8,2.7,0.1,4.7C476.7,558.5,475.4,558.1,474.4,557.8z"
			/>
		<path class="st6" d="M576.2,624.4c0.2,1.3,0.2,2.9,0.9,3.9c-0.4,2-1.6,5.3-2.2,7.3L576.2,624.4z"/>
		<path class="st6" d="M540.2,464c1-0.1,2-0.3,3-0.2c0.9,0.1,1.5-0.1,2.1,0.6l-1.3,0.3c-1.5,0.3-3.1,1-4.5,0.6L540.2,464z"/>
		<path class="st4" d="M624.2,581.8c0.8,0.1,1.2,0.2,1.8,0.7c0.7,0.5,0.5,1.9,0.6,2.7c-0.3-0.1-0.4-0.1-0.7-0.3
			C624.8,584.2,624.6,583,624.2,581.8z"/>
		<path class="st6" d="M491.5,578.2c1,0.2,1.9,0.6,2.8,0.9l0.1,0.7l-0.6,0.5C492.5,580.1,492.3,579.3,491.5,578.2z"/>
		<path class="st12" d="M572.6,649.9c0.2-1.7,0.2-2.5,1-3.9c0.6,1.2,0.1,2.5-0.1,3.9L572.6,649.9z"/>
		<path class="st5" d="M688.5,487.6l0.9,1.9c0.2,1.6,0.5,4.3,0.5,5.9l-1,2.8C688.9,494.2,688.9,491.6,688.5,487.6z"/>
		<path class="st3" d="M754.6,683.4c2.1,0,4.1,0.4,6,1.4c2.8,1.4,4.8,4.1,5.7,7c1.2,3.8,0.9,8.2-1,11.7c-2.1,3.8-5,5.5-9.1,6.7
			c-1.6-0.1-3.1-0.4-4.5-1.1c-3-1.3-5.2-4-6.3-7.1c-1.3-3.7-1.2-8,0.5-11.5C747.8,686.8,750.7,684.8,754.6,683.4z"/>
		<path class="st4" d="M753.2,685.8c1.4-0.2,2.9-0.3,4.3,0c2.5,0.5,4.8,2.3,6.1,4.5c1.6,2.8,1.9,6.3,1.1,9.5c-1,3.9-3,5.9-6.3,7.9
			c-1.4,0.2-2.9,0.2-4.3-0.1c-2.5-0.6-4.8-2.4-6-4.6c-1.6-2.9-1.9-6.5-1.1-9.6C748,689.8,750,687.6,753.2,685.8z"/>
		<path class="st3" d="M750.9,689.3c2.4-0.1,7.2-0.6,9.1,1.1c1.4,1.2-0.9,4.6-1,6.3c-0.2,2,2.3,4.1,2.3,6.5c-1.1,0.9-1.6,0.6-3,0.5
			c-0.5-1.7-1.1-3.3-1.9-4.9c-0.9-0.6-0.9-0.7-2-0.7c-0.7,1.2-0.4,3.4-0.4,4.8c-0.6,1.1-0.6,1.2-1.8,1.5c-0.1-0.1-0.3-0.2-0.4-0.3
			C749.9,701.5,750.8,692.7,750.9,689.3z"/>
		<path class="st4" d="M754,691.1c0.9,0.2,1.7,0.5,2.5,0.7c1,1.3,0.8,1.8,0.9,3.4c-1.1,0.3-1.8,0.4-2.9,0.1
			C753.7,694,754,692.7,754,691.1z"/>
		<path class="st3" d="M342.2,702.1c0.6,0,1.2,0,1.7,0.1c0.9,0.2,1.7,0.7,2.2,1.5c0.6,0.9,0.6,2.1,0.3,3.1c-0.5,1.4-1.2,2.5-2.6,3.2
			l-0.8-0.3l-0.2-1.1c0.7-1.2,0.8-1.8,0.8-3.2c-3,0-1.3,3-3.4,4.4l-0.9-0.2l-0.4-0.8C339.6,705.9,340.2,704.2,342.2,702.1z"/>
		<path class="st3" d="M335.1,694.1c2.1,0.4,4.4,0.8,6.4,1.7l0,1c-1.8,0.4-3.5,1-5.2,0.3C335.3,696,335.3,695.5,335.1,694.1z"/>
	</g>
</g>
</svg>
