<?xml version="1.0" encoding="iso-8859-1"?>
<!-- Generator: Adobe Illustrator 19.0.0, SVG Export Plug-In . SVG Version: 6.00 Build 0)  -->
<svg version="1.1" id="Capa_1" xmlns="http://www.w3.org/2000/svg" xmlns:xlink="http://www.w3.org/1999/xlink" x="0px" y="0px"
	 viewBox="0 0 480.004 480.004" style="enable-background:new 0 0 480.004 480.004;" xml:space="preserve">
<path style="fill:#FF7E6B;" d="M192,152.002l-184-72v240l184,72V152.002z"/>
<path style="fill:#689CB0;" d="M192,392.002l46.728-18.288c20.928-23.608,62.008-61.712,109.272-61.712c9.632,0,19,1.624,28,4.344
	V80.002l-184,72V392.002z"/>
<path style="fill:#F2CF77;" d="M376,80.002l-184-72l-184,72l184,72L376,80.002z"/>
<path style="fill:#F4EFEF;" d="M238.728,373.714c-9.392,10.6-14.728,18.288-14.728,18.288s55.52,80,124,80s124-80,124-80
	s-41.008-59.032-96-75.656v3.656v-3.656c-9-2.72-18.368-4.344-28-4.344C300.736,312.002,259.656,350.106,238.728,373.714z
	 M400,392.002c0,26.512-21.488,48-48,48s-48-21.488-48-48s21.488-48,48-48S400,365.49,400,392.002z"/>
<path style="fill:#94D8E3;" d="M304,392.002c0,26.512,21.488,48,48,48s48-21.488,48-48s-21.488-48-48-48S304,365.49,304,392.002z
	 M352,376.002c8.84,0,16,7.16,16,16s-7.16,16-16,16s-16-7.16-16-16S343.16,376.002,352,376.002z"/>
<circle style="fill:#F4EFEF;" cx="352" cy="392.002" r="16"/>
<g>
	<path style="fill:#474747;" d="M5.088,327.45l184,72c0.936,0.368,1.92,0.552,2.912,0.552s1.976-0.184,2.912-0.552l21.216-8.304
		c-0.2,1.872,0.176,3.792,1.296,5.416c2.368,3.408,58.736,83.44,130.576,83.44s128.208-80.032,130.576-83.44
		c1.904-2.744,1.904-6.376,0-9.128c-1.952-2.808-40.712-57.784-94.576-76.912V80.002c0-3.296-2.016-6.248-5.088-7.448l-184-72
		c-1.872-0.736-3.952-0.736-5.832,0l-184,72C2.016,73.754,0,76.706,0,80.002v240C0,323.298,2.016,326.25,5.088,327.45L5.088,327.45z
		 M16,91.722l168,65.736v222.824L16,314.538V91.722z M462.024,392.002c-12.76,16.496-59.744,72-114.024,72
		s-101.264-55.504-114.024-72c12.76-16.496,59.744-72,114.024-72S449.264,375.506,462.024,392.002z M348,304.002
		c-49.696,0-91.968,38.28-114.104,63.016L200,380.282V157.458l168-65.736v214.312C361.496,304.73,354.816,304.002,348,304.002
		L348,304.002z M192,16.594l162.048,63.408L192,143.41L29.952,80.002L192,16.594z"/>
	<path style="fill:#474747;" d="M296,392.002c0,30.88,25.12,56,56,56s56-25.12,56-56s-25.12-56-56-56S296,361.122,296,392.002z
		 M352,352.002c22.056,0,40,17.944,40,40s-17.944,40-40,40s-40-17.944-40-40S329.944,352.002,352,352.002z"/>
	<path style="fill:#474747;" d="M352,416.002c13.232,0,24-10.768,24-24s-10.768-24-24-24s-24,10.768-24,24
		S338.768,416.002,352,416.002z M352,384.002c4.408,0,8,3.592,8,8s-3.592,8-8,8s-8-3.592-8-8S347.592,384.002,352,384.002z"/>
</g>
<g>
</g>
<g>
</g>
<g>
</g>
<g>
</g>
<g>
</g>
<g>
</g>
<g>
</g>
<g>
</g>
<g>
</g>
<g>
</g>
<g>
</g>
<g>
</g>
<g>
</g>
<g>
</g>
<g>
</g>
</svg>
