{
  "asset": {
    "version": "2.0",
    "generator": "THREE.GLTFExporter r181"
  },
  "scenes": [
    {
      "name": "AuxScene",
      "nodes": [
        0
      ]
    }
  ],
  "scene": 0,
  "nodes": [
    {
      "children": [
        1,
        2,
        3,
        4,
        5,
        6,
        7,
        8,
        9,
        10
      ]
    },
    {
      "matrix": [
        0.05,
        0,
        0,
        0,
        0,
        -0.05,
        0,
        0,
        0,
        0,
        0.05,
        0,
        0,
        0,
        0,
        1
      ],
      "mesh": 0
    },
    {
      "matrix": [
        0.05,
        0,
        0,
        0,
        0,
        -0.05,
        0,
        0,
        0,
        0,
        0.05,
        0,
        0,
        0,
        0,
        1
      ],
      "mesh": 1
    },
    {
      "matrix": [
        0.05,
        0,
        0,
        0,
        0,
        -0.05,
        0,
        0,
        0,
        0,
        0.05,
        0,
        0,
        0,
        0,
        1
      ],
      "mesh": 2
    },
    {
      "matrix": [
        0.05,
        0,
        0,
        0,
        0,
        -0.05,
        0,
        0,
        0,
        0,
        0.05,
        0,
        0,
        0,
        0,
        1
      ],
      "mesh": 3
    },
    {
      "matrix": [
        0.05,
        0,
        0,
        0,
        0,
        -0.05,
        0,
        0,
        0,
        0,
        0.05,
        0,
        0,
        0,
        0,
        1
      ],
      "mesh": 4
    },
    {
      "matrix": [
        0.05,
        0,
        0,
        0,
        0,
        -0.05,
        0,
        0,
        0,
        0,
        0.05,
        0,
        0,
        0,
        0,
        1
      ],
      "mesh": 5
    },
    {
      "matrix": [
        0.05,
        0,
        0,
        0,
        0,
        -0.05,
        0,
        0,
        0,
        0,
        0.05,
        0,
        0,
        0,
        0,
        1
      ],
      "mesh": 6
    },
    {
      "matrix": [
        0.05,
        0,
        0,
        0,
        0,
        -0.05,
        0,
        0,
        0,
        0,
        0.05,
        0,
        0,
        0,
        0,
        1
      ],
      "mesh": 7
    },
    {
      "matrix": [
        0.05,
        0,
        0,
        0,
        0,
        -0.05,
        0,
        0,
        0,
        0,
        0.05,
        0,
        0,
        0,
        0,
        1
      ],
      "mesh": 8
    },
    {
      "matrix": [
        0.05,
        0,
        0,
        0,
        0,
        -0.05,
        0,
        0,
        0,
        0,
        0.05,
        0,
        0,
        0,
        0,
        1
      ],
      "mesh": 9
    }
  ],
  "bufferViews": [
    {
      "buffer": 0,
      "byteOffset": 0,
      "byteLength": 169920,
      "target": 34962,
      "byteStride": 12
    },
    {
      "buffer": 0,
      "byteOffset": 169920,
      "byteLength": 113280,
      "target": 34962,
      "byteStride": 8
    },
    {
      "buffer": 0,
      "byteOffset": 283200,
      "byteLength": 169920,
      "target": 34962,
      "byteStride": 12
    },
    {
      "buffer": 0,
      "byteOffset": 453120,
      "byteLength": 2160,
      "target": 34962,
      "byteStride": 12
    },
    {
      "buffer": 0,
      "byteOffset": 455280,
      "byteLength": 1440,
      "target": 34962,
      "byteStride": 8
    },
    {
      "buffer": 0,
      "byteOffset": 456720,
      "byteLength": 2160,
      "target": 34962,
      "byteStride": 12
    },
    {
      "buffer": 0,
      "byteOffset": 458880,
      "byteLength": 3240,
      "target": 34962,
      "byteStride": 12
    },
    {
      "buffer": 0,
      "byteOffset": 462120,
      "byteLength": 2160,
      "target": 34962,
      "byteStride": 8
    },
    {
      "buffer": 0,
      "byteOffset": 464280,
      "byteLength": 3240,
      "target": 34962,
      "byteStride": 12
    },
    {
      "buffer": 0,
      "byteOffset": 467520,
      "byteLength": 125424,
      "target": 34962,
      "byteStride": 12
    },
    {
      "buffer": 0,
      "byteOffset": 592944,
      "byteLength": 83616,
      "target": 34962,
      "byteStride": 8
    },
    {
      "buffer": 0,
      "byteOffset": 676560,
      "byteLength": 125424,
      "target": 34962,
      "byteStride": 12
    },
    {
      "buffer": 0,
      "byteOffset": 801984,
      "byteLength": 66240,
      "target": 34962,
      "byteStride": 12
    },
    {
      "buffer": 0,
      "byteOffset": 868224,
      "byteLength": 44160,
      "target": 34962,
      "byteStride": 8
    },
    {
      "buffer": 0,
      "byteOffset": 912384,
      "byteLength": 66240,
      "target": 34962,
      "byteStride": 12
    },
    {
      "buffer": 0,
      "byteOffset": 978624,
      "byteLength": 81072,
      "target": 34962,
      "byteStride": 12
    },
    {
      "buffer": 0,
      "byteOffset": 1059696,
      "byteLength": 54048,
      "target": 34962,
      "byteStride": 8
    },
    {
      "buffer": 0,
      "byteOffset": 1113744,
      "byteLength": 81072,
      "target": 34962,
      "byteStride": 12
    },
    {
      "buffer": 0,
      "byteOffset": 1194816,
      "byteLength": 2160,
      "target": 34962,
      "byteStride": 12
    },
    {
      "buffer": 0,
      "byteOffset": 1196976,
      "byteLength": 1440,
      "target": 34962,
      "byteStride": 8
    },
    {
      "buffer": 0,
      "byteOffset": 1198416,
      "byteLength": 2160,
      "target": 34962,
      "byteStride": 12
    },
    {
      "buffer": 0,
      "byteOffset": 1200576,
      "byteLength": 23472,
      "target": 34962,
      "byteStride": 12
    },
    {
      "buffer": 0,
      "byteOffset": 1224048,
      "byteLength": 15648,
      "target": 34962,
      "byteStride": 8
    },
    {
      "buffer": 0,
      "byteOffset": 1239696,
      "byteLength": 23472,
      "target": 34962,
      "byteStride": 12
    },
    {
      "buffer": 0,
      "byteOffset": 1263168,
      "byteLength": 18288,
      "target": 34962,
      "byteStride": 12
    },
    {
      "buffer": 0,
      "byteOffset": 1281456,
      "byteLength": 12192,
      "target": 34962,
      "byteStride": 8
    },
    {
      "buffer": 0,
      "byteOffset": 1293648,
      "byteLength": 18288,
      "target": 34962,
      "byteStride": 12
    },
    {
      "buffer": 0,
      "byteOffset": 1311936,
      "byteLength": 7776,
      "target": 34962,
      "byteStride": 12
    },
    {
      "buffer": 0,
      "byteOffset": 1319712,
      "byteLength": 5184,
      "target": 34962,
      "byteStride": 8
    },
    {
      "buffer": 0,
      "byteOffset": 1324896,
      "byteLength": 7776,
      "target": 34962,
      "byteStride": 12
    }
  ],
  "buffers": [
    {
      "byteLength": 1332672,
      "uri": "data:application/octet-stream;base64,"
    }
  ],
  "accessors": [
    {
      "bufferView": 0,
      "componentType": 5126,
      "count": 14160,
      "max": [
        99.4710464477539,
        147.29501342773438,
        20.849998474121094
      ],
      "min": [
        -257.2149963378906,
        -158.24502563476562,
        -20.850000381469727
      ],
      "type": "VEC3"
    },
    {
      "bufferView": 1,
      "componentType": 5126,
      "count": 14160,
      "max": [
        1738.5760498046875,
        416.32000732421875
      ],
      "min": [
        119.33000183105469,
        -40.599998474121094
      ],
      "type": "VEC2"
    },
    {
      "bufferView": 2,
      "componentType": 5126,
      "count": 14160,
      "max": [
        1,
        0.9999996423721313,
        1
      ],
      "min": [
        -1,
        -1,
        -1
      ],
      "type": "VEC3"
    },
    {
      "bufferView": 3,
      "componentType": 5126,
      "count": 180,
      "max": [
        909.64501953125,
        -200.16500854492188,
        20.849998474121094
      ],
      "min": [
        837.175048828125,
        -269.42498779296875,
        -20.850000381469727
      ],
      "type": "VEC3"
    },
    {
      "bufferView": 4,
      "componentType": 5126,
      "count": 180,
      "max": [
        2548.75,
        68.86000061035156
      ],
      "min": [
        -0.20000000298023224,
        -40.599998474121094
      ],
      "type": "VEC2"
    },
    {
      "bufferView": 5,
      "componentType": 5126,
      "count": 180,
      "max": [
        1,
        1,
        1
      ],
      "min": [
        -1,
        -1,
        -1
      ],
      "type": "VEC3"
    },
    {
      "bufferView": 6,
      "componentType": 5126,
      "count": 270,
      "max": [
        907.284912109375,
        139.06784057617188,
        20.849998474121094
      ],
      "min": [
        840.06494140625,
        -149.89500427246094,
        -20.850000381469727
      ],
      "type": "VEC3"
    },
    {
      "bufferView": 7,
      "componentType": 5126,
      "count": 270,
      "max": [
        2546.389892578125,
        407.989990234375
      ],
      "min": [
        119.33000183105469,
        -40.599998474121094
      ],
      "type": "VEC2"
    },
    {
      "bufferView": 8,
      "componentType": 5126,
      "count": 270,
      "max": [
        1,
        1,
        1
      ],
      "min": [
        -1,
        -1,
        -1
      ],
      "type": "VEC3"
    },
    {
      "bufferView": 9,
      "componentType": 5126,
      "count": 10452,
      "max": [
        1639.351806640625,
        147.30502319335938,
        20.849998474121094
      ],
      "min": [
        1333.9150390625,
        -158.22503662109375,
        -20.850000381469727
      ],
      "type": "VEC3"
    },
    {
      "bufferView": 10,
      "componentType": 5126,
      "count": 10452,
      "max": [
        3278.456787109375,
        416.3299865722656
      ],
      "min": [
        155.80921936035156,
        -40.599998474121094
      ],
      "type": "VEC2"
    },
    {
      "bufferView": 11,
      "componentType": 5126,
      "count": 10452,
      "max": [
        0.9998594522476196,
        0.9998589158058167,
        1
      ],
      "min": [
        -0.9998138546943665,
        -0.9998488426208496,
        -1
      ],
      "type": "VEC3"
    },
    {
      "bufferView": 12,
      "componentType": 5126,
      "count": 5520,
      "max": [
        445.8049011230469,
        269.4253234863281,
        20.849998474121094
      ],
      "min": [
        128.07041931152344,
        -158.3314666748047,
        -20.850000381469727
      ],
      "type": "VEC3"
    },
    {
      "bufferView": 13,
      "componentType": 5126,
      "count": 5520,
      "max": [
        2084.909912109375,
        538.4500122070312
      ],
      "min": [
        119.33000183105469,
        -40.599998474121094
      ],
      "type": "VEC2"
    },
    {
      "bufferView": 14,
      "componentType": 5126,
      "count": 5520,
      "max": [
        1,
        1,
        1
      ],
      "min": [
        -1,
        -1,
        -1
      ],
      "type": "VEC3"
    },
    {
      "bufferView": 15,
      "componentType": 5126,
      "count": 6756,
      "max": [
        782.324951171875,
        138.9949951171875,
        20.849998474121094
      ],
      "min": [
        506.4650573730469,
        -158.23501586914062,
        -20.850000381469727
      ],
      "type": "VEC3"
    },
    {
      "bufferView": 16,
      "componentType": 5126,
      "count": 6756,
      "max": [
        2421.429931640625,
        408.0199890136719
      ],
      "min": [
        119.33000183105469,
        -40.599998474121094
      ],
      "type": "VEC2"
    },
    {
      "bufferView": 17,
      "componentType": 5126,
      "count": 6756,
      "max": [
        1,
        1,
        1
      ],
      "min": [
        -1,
        -1,
        -1
      ],
      "type": "VEC3"
    },
    {
      "bufferView": 18,
      "componentType": 5126,
      "count": 180,
      "max": [
        1281.635009765625,
        -200.16500854492188,
        20.849998474121094
      ],
      "min": [
        1209.195068359375,
        -269.42498779296875,
        -20.850000381469727
      ],
      "type": "VEC3"
    },
    {
      "bufferView": 19,
      "componentType": 5126,
      "count": 180,
      "max": [
        2920.739990234375,
        68.86000061035156
      ],
      "min": [
        -0.20000000298023224,
        -40.599998474121094
      ],
      "type": "VEC2"
    },
    {
      "bufferView": 20,
      "componentType": 5126,
      "count": 180,
      "max": [
        1,
        1,
        1
      ],
      "min": [
        -1,
        -1,
        -1
      ],
      "type": "VEC3"
    },
    {
      "bufferView": 21,
      "componentType": 5126,
      "count": 1956,
      "max": [
        1279.344970703125,
        138.9949951171875,
        20.849998474121094
      ],
      "min": [
        954.375,
        -269.3949890136719,
        -20.850000381469727
      ],
      "type": "VEC3"
    },
    {
      "bufferView": 22,
      "componentType": 5126,
      "count": 1956,
      "max": [
        2918.449951171875,
        408.0199890136719
      ],
      "min": [
        -0.14016208052635193,
        -40.599998474121094
      ],
      "type": "VEC2"
    },
    {
      "bufferView": 23,
      "componentType": 5126,
      "count": 1956,
      "max": [
        1,
        1,
        1
      ],
      "min": [
        -1,
        -1,
        -1
      ],
      "type": "VEC3"
    },
    {
      "bufferView": 24,
      "componentType": 5126,
      "count": 1524,
      "max": [
        -1049.428955078125,
        138.96499633789062,
        20.849998474121094
      ],
      "min": [
        -1639.321044921875,
        -269.42498779296875,
        -20.850000381469727
      ],
      "type": "VEC3"
    },
    {
      "bufferView": 25,
      "componentType": 5126,
      "count": 1524,
      "max": [
        589.6760864257812,
        407.989990234375
      ],
      "min": [
        -0.21606355905532837,
        -40.599998474121094
      ],
      "type": "VEC2"
    },
    {
      "bufferView": 26,
      "componentType": 5126,
      "count": 1524,
      "max": [
        1,
        1,
        1
      ],
      "min": [
        -0.9607110619544983,
        -1,
        -1
      ],
      "type": "VEC3"
    },
    {
      "bufferView": 27,
      "componentType": 5126,
      "count": 648,
      "max": [
        -303.8249816894531,
        141.1578369140625,
        20.849998474121094
      ],
      "min": [
        -755.1449584960938,
        -269.42498779296875,
        -20.850000381469727
      ],
      "type": "VEC3"
    },
    {
      "bufferView": 28,
      "componentType": 5126,
      "count": 648,
      "max": [
        1335.280029296875,
        410.1000061035156
      ],
      "min": [
        -0.20000000298023224,
        -40.599998474121094
      ],
      "type": "VEC2"
    },
    {
      "bufferView": 29,
      "componentType": 5126,
      "count": 648,
      "max": [
        1,
        1,
        1
      ],
      "min": [
        -1,
        -1,
        -1
      ],
      "type": "VEC3"
    }
  ],
  "materials": [
    {
      "pbrMetallicRoughness": {
        "metallicFactor": 0,
        "roughnessFactor": 0.09
      },
      "doubleSided": true
    },
    {
      "pbrMetallicRoughness": {
        "metallicFactor": 0,
        "roughnessFactor": 0.09
      },
      "doubleSided": true
    },
    {
      "pbrMetallicRoughness": {
        "metallicFactor": 0,
        "roughnessFactor": 0.09
      },
      "doubleSided": true
    },
    {
      "pbrMetallicRoughness": {
        "metallicFactor": 0,
        "roughnessFactor": 0.09
      },
      "doubleSided": true
    },
    {
      "pbrMetallicRoughness": {
        "metallicFactor": 0,
        "roughnessFactor": 0.09
      },
      "doubleSided": true
    },
    {
      "pbrMetallicRoughness": {
        "metallicFactor": 0,
        "roughnessFactor": 0.09
      },
      "doubleSided": true
    },
    {
      "pbrMetallicRoughness": {
        "metallicFactor": 0,
        "roughnessFactor": 0.09
      },
      "doubleSided": true
    },
    {
      "pbrMetallicRoughness": {
        "metallicFactor": 0,
        "roughnessFactor": 0.09
      },
      "doubleSided": true
    },
    {
      "pbrMetallicRoughness": {
        "metallicFactor": 0,
        "roughnessFactor": 0.09
      },
      "doubleSided": true
    },
    {
      "pbrMetallicRoughness": {
        "metallicFactor": 0,
        "roughnessFactor": 0.09
      },
      "doubleSided": true
    }
  ],
  "meshes": [
    {
      "primitives": [
        {
          "mode": 4,
          "attributes": {
            "POSITION": 0,
            "TEXCOORD_0": 1,
            "NORMAL": 2
          },
          "material": 0
        }
      ]
    },
    {
      "primitives": [
        {
          "mode": 4,
          "attributes": {
            "POSITION": 3,
            "TEXCOORD_0": 4,
            "NORMAL": 5
          },
          "material": 1
        }
      ]
    },
    {
      "primitives": [
        {
          "mode": 4,
          "attributes": {
            "POSITION": 6,
            "TEXCOORD_0": 7,
            "NORMAL": 8
          },
          "material": 2
        }
      ]
    },
    {
      "primitives": [
        {
          "mode": 4,
          "attributes": {
            "POSITION": 9,
            "TEXCOORD_0": 10,
            "NORMAL": 11
          },
          "material": 3
        }
      ]
    },
    {
      "primitives": [
        {
          "mode": 4,
          "attributes": {
            "POSITION": 12,
            "TEXCOORD_0": 13,
            "NORMAL": 14
          },
          "material": 4
        }
      ]
    },
    {
      "primitives": [
        {
          "mode": 4,
          "attributes": {
            "POSITION": 15,
            "TEXCOORD_0": 16,
            "NORMAL": 17
          },
          "material": 5
        }
      ]
    },
    {
      "primitives": [
        {
          "mode": 4,
          "attributes": {
            "POSITION": 18,
            "TEXCOORD_0": 19,
            "NORMAL": 20
          },
          "material": 6
        }
      ]
    },
    {
      "primitives": [
        {
          "mode": 4,
          "attributes": {
            "POSITION": 21,
            "TEXCOORD_0": 22,
            "NORMAL": 23
          },
          "material": 7
        }
      ]
    },
    {
      "primitives": [
        {
          "mode": 4,
          "attributes": {
            "POSITION": 24,
            "TEXCOORD_0": 25,
            "NORMAL": 26
          },
          "material": 8
        }
      ]
    },
    {
      "primitives": [
        {
          "mode": 4,
          "attributes": {
            "POSITION": 27,
            "TEXCOORD_0": 28,
            "NORMAL": 29
          },
          "material": 9
        }
      ]
    }
  ]
}